<?xml version="1.0" encoding="UTF-8"?>
<svg version="1.1" xmlns="http://www.w3.org/2000/svg" width="512" height="512">
<path d="M0 0 C3.48209317 0.00478262 6.96413382 -0.00782269 10.44620943 -0.01801741 C17.24734619 -0.03511307 24.04839018 -0.03606464 30.84954283 -0.03080451 C36.38484915 -0.02674369 41.92012832 -0.02822891 47.45543337 -0.03355277 C48.24679511 -0.03430119 49.03815685 -0.03504961 49.85349925 -0.03582071 C51.46177608 -0.03735238 53.07005291 -0.03889073 54.67832974 -0.04043568 C69.72213716 -0.05412771 84.76589241 -0.04874665 99.80969861 -0.03725047 C113.53012424 -0.02732494 127.25041487 -0.04025286 140.97081968 -0.06418466 C155.10563188 -0.08865088 169.24038141 -0.09816492 183.37521434 -0.09153193 C191.29210524 -0.08805592 199.2088925 -0.09016367 207.12576723 -0.10778296 C213.86618255 -0.12259964 220.60642124 -0.12301839 227.34683344 -0.10571205 C230.77628414 -0.09727601 234.20542062 -0.09486733 237.63485384 -0.1103636 C256.2259315 -0.17678101 274.3338109 0.71495553 291.83774996 7.59433305 C292.60812593 7.88912553 293.37850191 8.18391801 294.17222261 8.4876436 C325.37503496 20.86426764 350.65048267 45.68840576 364.20884371 76.31210649 C365.74160768 79.96519395 367.11248745 83.66083623 368.40024996 87.40683305 C368.63075045 88.06925004 368.86125093 88.73166704 369.09873629 89.41415727 C374.33453998 105.60034731 374.53369363 121.45944698 374.49458301 138.31908309 C374.48980039 141.80117627 374.5024057 145.28321691 374.51260042 148.76529253 C374.52969608 155.56642928 374.53064765 162.36747328 374.52538752 169.16862592 C374.5213267 174.70393225 374.52281192 180.23921141 374.52813578 185.77451646 C374.5288842 186.5658782 374.52963262 187.35723994 374.53040372 188.17258234 C374.53193539 189.78085918 374.53347374 191.38913601 374.53501869 192.99741283 C374.54871072 208.04122025 374.54332966 223.08497551 374.53183348 238.12878171 C374.52190795 251.84920733 374.53483587 265.56949796 374.55876767 279.28990278 C374.58323389 293.42471498 374.59274793 307.55946451 374.58611494 321.69429743 C374.58263893 329.61118834 374.58474668 337.52797559 374.60236597 345.44485033 C374.61718265 352.18526564 374.6176014 358.92550433 374.60029506 365.66591653 C374.59185902 369.09536723 374.58945034 372.52450372 374.60494661 375.95393693 C374.68139175 397.35190074 372.74882625 416.69816116 364.08774996 436.40683305 C363.80447847 437.06103227 363.52120699 437.71523149 363.22935152 438.38925493 C353.28634688 460.91208311 336.10457028 480.58039124 315.08774996 493.40683305 C314.01524996 494.09003618 312.94274996 494.7732393 311.83774996 495.47714555 C305.45004956 499.3659539 298.94823783 502.48484403 291.96274996 505.15683305 C291.27874117 505.42640825 290.59473238 505.69598344 289.88999605 505.97372758 C271.57496724 512.61625088 252.95550458 512.98750368 233.69712496 512.92441118 C230.88921006 512.92764626 228.08132106 512.93682879 225.2734189 512.94565141 C218.48616735 512.96329401 211.69909425 512.95966107 204.91183615 512.94800085 C199.38806192 512.93890996 193.86433716 512.93776673 188.34055758 512.94209611 C187.54973779 512.94270905 186.75891801 512.94332198 185.944134 512.94395348 C184.33682329 512.94523258 182.7295126 512.94652944 181.12220192 512.94784385 C166.10506253 512.95920786 151.08802133 512.94620193 136.07089806 512.92464238 C123.22881 512.90677521 110.38686666 512.9098805 97.54478121 512.92831743 C82.57569806 512.94979842 67.60670065 512.95810962 52.63760424 512.94586837 C51.03671695 512.94459438 49.43582965 512.9433369 47.83494234 512.94209611 C47.04759258 512.94147901 46.26024282 512.94086191 45.44903398 512.94022611 C39.94182532 512.93679481 34.43467175 512.94255319 28.92747164 512.95201433 C22.20178323 512.96331652 15.47628117 512.96002387 8.75061369 512.93889135 C5.32917146 512.92848977 1.90829014 512.92627884 -1.51318693 512.93748796 C-22.88729031 513.00100847 -42.22548579 511.05828192 -61.91225004 502.40683305 C-62.56644926 502.12356157 -63.22064848 501.84029008 -63.89467192 501.54843462 C-93.98974488 488.26256094 -117.69643593 462.6852702 -129.78334379 432.21054399 C-130.63388989 429.95385314 -131.44074075 427.68745259 -132.22475004 425.40683305 C-132.57050077 424.41320756 -132.57050077 424.41320756 -132.92323637 423.39950883 C-138.15904006 407.2133188 -138.35819372 391.35421913 -138.31908309 374.49458301 C-138.31430048 371.01248984 -138.32690578 367.53044919 -138.33710051 364.04837358 C-138.35419617 357.24723682 -138.35514773 350.44619283 -138.3498876 343.64504018 C-138.34582678 338.10973386 -138.347312 332.5744547 -138.35263586 327.03914964 C-138.35338428 326.2477879 -138.3541327 325.45642616 -138.35490381 324.64108376 C-138.35643548 323.03280693 -138.35797382 321.4245301 -138.35951877 319.81625327 C-138.3732108 304.77244585 -138.36782974 289.7286906 -138.35633356 274.6848844 C-138.34640804 260.96445877 -138.35933595 247.24416814 -138.38326775 233.52376333 C-138.40773398 219.38895113 -138.41724801 205.2542016 -138.41061503 191.11936867 C-138.40713902 183.20247777 -138.40924677 175.28569051 -138.42686605 167.36881578 C-138.44168273 160.62840046 -138.44210148 153.88816178 -138.42479514 147.14774957 C-138.41635911 143.71829887 -138.41395042 140.28916239 -138.4294467 136.85972917 C-138.49586411 118.26865151 -137.60412757 100.16077211 -130.72475004 82.65683305 C-130.42995756 81.88645708 -130.13516508 81.1160811 -129.8314395 80.3223604 C-117.45481545 49.11954805 -92.63067734 23.84410034 -62.0069766 10.2857393 C-58.35388915 8.75297533 -54.65824686 7.38209556 -50.91225004 6.09433305 C-49.91862455 5.74858232 -49.91862455 5.74858232 -48.90492582 5.39584672 C-32.71873579 0.16004303 -16.85963612 -0.03911062 0 0 Z M-66.91225004 65.40683305 C-67.67408598 66.07327837 -68.43592192 66.73972368 -69.22084379 67.4263643 C-84.38841266 81.59502916 -94.22532746 103.20604627 -95.00608635 123.89313161 C-95.04653733 126.76632149 -95.05514172 129.63797147 -95.05269194 132.51144731 C-95.05566306 133.60955279 -95.05863418 134.70765828 -95.06169534 135.83903968 C-95.07034702 139.50812964 -95.0718876 143.17718684 -95.07338285 146.84628618 C-95.07801357 149.48157215 -95.08301844 152.1168552 -95.08842802 154.75213945 C-95.10197281 161.90540276 -95.10803022 169.05866045 -95.11243868 176.21193445 C-95.115208 180.68528299 -95.11944663 185.15862939 -95.12394285 189.63197649 C-95.13613118 202.03657461 -95.1464309 214.44117103 -95.14981794 226.84577501 C-95.15003751 227.63872408 -95.15025708 228.43167316 -95.1504833 229.248651 C-95.15070157 230.04341481 -95.15091985 230.83817861 -95.15114474 231.65702617 C-95.1515882 233.26731336 -95.15203476 234.87760055 -95.15248442 236.48788774 C-95.15270585 237.28663275 -95.15292728 238.08537776 -95.15315542 238.90832716 C-95.15709929 251.83655506 -95.17454272 264.76472645 -95.19784394 277.69293255 C-95.22161715 290.99125124 -95.23402253 304.28954165 -95.23518586 317.58788192 C-95.23609935 325.04421098 -95.24176878 332.50046642 -95.26000547 339.95677507 C-95.27548739 346.30879714 -95.28047969 352.66072284 -95.27226737 359.01276022 C-95.26838905 362.24720633 -95.27081882 365.48142047 -95.28332472 368.71585023 C-95.38297829 396.1105747 -91.67011807 420.08319379 -72.91225004 441.40683305 C-71.91258207 442.54958696 -71.91258207 442.54958696 -70.89271879 443.7154268 C-56.72405394 458.88299567 -35.11303682 468.71991047 -14.42595148 469.50066936 C-11.55276161 469.54112034 -8.68111163 469.54972473 -5.80763578 469.54727495 C-4.7095303 469.55024607 -3.61142482 469.55321719 -2.48004341 469.55627835 C1.18904655 469.56493003 4.85810374 469.56647061 8.52720308 469.56796587 C11.16248905 469.57259658 13.7977721 469.57760145 16.43305635 469.58301103 C23.58631967 469.59655582 30.73957735 469.60261323 37.89285135 469.60702169 C42.36619989 469.60979101 46.8395463 469.61402964 51.31289339 469.61852586 C63.71749151 469.63071419 76.12208793 469.64101391 88.52669191 469.64440095 C89.71611553 469.6447303 89.71611553 469.6447303 90.9295679 469.64506631 C92.12171361 469.64539372 92.12171361 469.64539372 93.33794308 469.64572775 C94.94823027 469.64617121 96.55851746 469.64661777 98.16880465 469.64706743 C99.36692216 469.64739957 99.36692216 469.64739957 100.58924407 469.64773843 C113.51747196 469.6516823 126.44564336 469.66912573 139.37384945 469.69242695 C152.67216814 469.71620016 165.97045856 469.72860554 179.26879883 469.72976887 C186.72512788 469.73068236 194.18138332 469.73635179 201.63769197 469.75458848 C207.98971405 469.7700704 214.34163975 469.7750627 220.69367713 469.76685038 C223.92812324 469.76297206 227.16233738 469.76540183 230.39676714 469.77790773 C257.79149161 469.8775613 281.7641107 466.16470108 303.08774996 447.40683305 C303.8495859 446.74038774 304.61142183 446.07394243 305.39634371 445.3873018 C320.56391258 431.21863695 330.40082738 409.60761984 331.18158627 388.92053449 C331.22203724 386.04734462 331.23064164 383.17569464 331.22819185 380.30221879 C331.23116297 379.20411331 331.2341341 378.10600783 331.23719525 376.97462642 C331.24584694 373.30553646 331.24738752 369.63647927 331.24888277 365.96737993 C331.25351349 363.33209396 331.25851836 360.69681091 331.26392794 358.06152666 C331.27747273 350.90826334 331.28353014 343.75500566 331.28793859 336.60173166 C331.29070792 332.12838312 331.29494655 327.65503671 331.29944277 323.18168962 C331.3116311 310.7770915 331.32193082 298.37249508 331.32531786 285.9678911 C331.32553743 285.17494202 331.32575699 284.38199294 331.32598321 283.56501511 C331.32620149 282.7702513 331.32641977 281.97548749 331.32664466 281.15663993 C331.32708811 279.54635274 331.32753468 277.93606555 331.32798433 276.32577837 C331.32820576 275.52703336 331.32842719 274.72828835 331.32865533 273.90533894 C331.33259921 260.97711105 331.35004264 248.04893965 331.37334386 235.12073356 C331.39711707 221.82241487 331.40952244 208.52412445 331.41068578 195.22578418 C331.41159926 187.76945513 331.4172687 180.31319969 331.43550539 172.85689104 C331.4509873 166.50486896 331.4559796 160.15294326 331.44776729 153.80090588 C331.44388896 150.56645977 331.44631874 147.33224563 331.45882463 144.09781587 C331.55847821 116.7030914 327.84561799 92.73047231 309.08774996 71.40683305 C308.42130465 70.64499712 307.75485933 69.88316118 307.06821871 69.0982393 C292.89955385 53.93067043 271.28853674 44.09375563 250.6014514 43.31299675 C247.72826152 43.27254577 244.85661154 43.26394137 241.9831357 43.26639116 C240.88503022 43.26342004 239.78692473 43.26044891 238.65554333 43.25738776 C234.98645337 43.24873607 231.31739617 43.24719549 227.64829683 43.24570024 C225.01301087 43.24106952 222.37772782 43.23606465 219.74244356 43.23065507 C212.58918025 43.21711028 205.43592256 43.21105287 198.28264856 43.20664442 C193.80930002 43.20387509 189.33595362 43.19963647 184.86260653 43.19514024 C172.4580084 43.18295191 160.05341198 43.17265219 147.648808 43.16926515 C146.45938439 43.1689358 146.45938439 43.1689358 145.24593201 43.1685998 C144.45116821 43.16838152 143.6564044 43.16816324 142.83755684 43.16793835 C141.22726965 43.1674949 139.61698246 43.16704833 138.00669527 43.16659868 C136.80857776 43.16626653 136.80857776 43.16626653 135.58625585 43.16592768 C122.65802795 43.1619838 109.72985656 43.14454037 96.80165046 43.12123916 C83.50333177 43.09746594 70.20504136 43.08506057 56.90670109 43.08389723 C49.45037203 43.08298375 41.99411659 43.07731431 34.53780794 43.05907762 C28.18578587 43.04359571 21.83386017 43.03860341 15.48182279 43.04681572 C12.24737668 43.05069405 9.01316254 43.04826427 5.77873278 43.03575838 C-21.61599169 42.9361048 -45.58861078 46.64896502 -66.91225004 65.40683305 Z " fill="#FFD600" transform="translate(137.91225004196167,-0.40683305263519287)"/>
<path d="M0 0 C6.38048483 3.79413152 10.58468853 8.85888731 12.48046875 16.08984375 C12.74552704 19.04361522 12.73381015 21.97698221 12.70751953 24.94091797 C12.70781158 25.80986191 12.70810364 26.67880585 12.70840454 27.57408142 C12.70701713 30.43100149 12.69148368 33.28765703 12.67578125 36.14453125 C12.67204903 38.13135638 12.66920304 40.11818336 12.66720581 42.10501099 C12.65958584 47.32300945 12.63995138 52.54089579 12.61779785 57.7588501 C12.59730418 63.08791589 12.58819656 68.41699987 12.578125 73.74609375 C12.55670396 84.19405956 12.52258776 94.64194231 12.48046875 105.08984375 C14.12298866 105.07652008 14.12298866 105.07652008 15.7986908 105.06292725 C26.14127859 104.98167902 36.48380124 104.92180048 46.82663631 104.88259506 C52.14343045 104.86176121 57.45996599 104.83352035 62.77661133 104.78808594 C67.91189157 104.74447833 73.04692378 104.72067506 78.18237495 104.71033478 C80.13711003 104.70297014 82.09183223 104.68858886 84.04646111 104.66692352 C86.79420698 104.63769111 89.54094087 104.63389599 92.28881836 104.63574219 C93.08867661 104.62136108 93.88853485 104.60697998 94.71263123 104.59216309 C101.29309523 104.6396962 107.47712109 106.26486105 112.37229824 110.86931992 C118.0616557 117.20228354 118.99198754 122.08783754 118.859375 130.6015625 C118.1692508 136.95497397 115.14094426 140.75508781 110.54296875 144.96484375 C104.71832218 149.00643525 99.47925555 149.37765397 92.62939453 149.31689453 C91.76045059 149.31718658 90.89150665 149.31747864 89.99623108 149.31777954 C87.13931101 149.31639213 84.28265547 149.30085868 81.42578125 149.28515625 C79.43895612 149.28142403 77.45212914 149.27857804 75.46530151 149.27658081 C70.24730305 149.26896084 65.02941671 149.24932638 59.8114624 149.22717285 C54.48239661 149.20667918 49.15331263 149.19757156 43.82421875 149.1875 C33.37625294 149.16607896 22.92837019 149.13196276 12.48046875 149.08984375 C12.4893512 150.18485703 12.49823364 151.2798703 12.50738525 152.4080658 C12.58863348 162.75065359 12.64851202 173.09317624 12.68771744 183.43601131 C12.70855129 188.75280545 12.73679215 194.06934099 12.78222656 199.38598633 C12.82583417 204.52126657 12.84963744 209.65629878 12.85997772 214.79174995 C12.86734236 216.74648503 12.88172364 218.70120723 12.90338898 220.65583611 C12.93262139 223.40358198 12.93641651 226.15031587 12.93457031 228.89819336 C12.94895142 229.69805161 12.96333252 230.49790985 12.97814941 231.32200623 C12.9306163 237.90247023 11.30545145 244.08649609 6.70099258 248.98167324 C0.36802896 254.6710307 -4.51752504 255.60136254 -13.03125 255.46875 C-19.38466147 254.7786258 -23.18477531 251.75031926 -27.39453125 247.15234375 C-31.43612275 241.32769718 -31.80734147 236.08863055 -31.74658203 229.23876953 C-31.74687408 228.36982559 -31.74716614 227.50088165 -31.74746704 226.60560608 C-31.74607963 223.74868601 -31.73054618 220.89203047 -31.71484375 218.03515625 C-31.71111153 216.04833112 -31.70826554 214.06150414 -31.70626831 212.07467651 C-31.69864834 206.85667805 -31.67901388 201.63879171 -31.65686035 196.4208374 C-31.63636668 191.09177161 -31.62725906 185.76268763 -31.6171875 180.43359375 C-31.59576646 169.98562794 -31.56165026 159.53774519 -31.51953125 149.08984375 C-32.61454453 149.0987262 -33.7095578 149.10760864 -34.8377533 149.11676025 C-45.18034109 149.19800848 -55.52286374 149.25788702 -65.86569881 149.29709244 C-71.18249295 149.31792629 -76.49902849 149.34616715 -81.81567383 149.39160156 C-86.95095407 149.43520917 -92.08598628 149.45901244 -97.22143745 149.46935272 C-99.17617253 149.47671736 -101.13089473 149.49109864 -103.08552361 149.51276398 C-105.83326948 149.54199639 -108.58000337 149.54579151 -111.32788086 149.54394531 C-112.12773911 149.55832642 -112.92759735 149.57270752 -113.75169373 149.58752441 C-120.33215773 149.5399913 -126.51618359 147.91482645 -131.41136074 143.31036758 C-137.1007182 136.97740396 -138.03105004 132.09184996 -137.8984375 123.578125 C-137.2083133 117.22471353 -134.18000676 113.42459969 -129.58203125 109.21484375 C-123.75738468 105.17325225 -118.51831805 104.80203353 -111.66845703 104.86279297 C-110.79951309 104.86250092 -109.93056915 104.86220886 -109.03529358 104.86190796 C-106.17837351 104.86329537 -103.32171797 104.87882882 -100.46484375 104.89453125 C-98.47801862 104.89826347 -96.49119164 104.90110946 -94.50436401 104.90310669 C-89.28636555 104.91072666 -84.06847921 104.93036112 -78.8505249 104.95251465 C-73.52145911 104.97300832 -68.19237513 104.98211594 -62.86328125 104.9921875 C-52.41531544 105.01360854 -41.96743269 105.04772474 -31.51953125 105.08984375 C-31.5284137 103.99483047 -31.53729614 102.8998172 -31.54644775 101.7716217 C-31.62769598 91.42903391 -31.68757452 81.08651126 -31.72677994 70.74367619 C-31.74761379 65.42688205 -31.77585465 60.11034651 -31.82128906 54.79370117 C-31.86489667 49.65842093 -31.88869994 44.52338872 -31.89904022 39.38793755 C-31.90640486 37.43320247 -31.92078614 35.47848027 -31.94245148 33.52385139 C-31.97168389 30.77610552 -31.97547901 28.02937163 -31.97363281 25.28149414 C-31.98801392 24.48163589 -32.00239502 23.68177765 -32.01721191 22.85768127 C-31.9696788 16.27721727 -30.34451395 10.09319141 -25.74005508 5.19801426 C-18.45655832 -1.3452756 -9.53888582 -3.44583007 0 0 Z " fill="#FFD500" transform="translate(265.51953125,128.91015625)"/>
</svg>
