<?xml version="1.0" encoding="UTF-8"?>
<svg version="1.1" xmlns="http://www.w3.org/2000/svg" width="512" height="512">
<path d="M0 0 C1.35067566 -0.00744736 1.35067566 -0.00744736 2.7286377 -0.01504517 C5.68767076 -0.02956637 8.64665014 -0.03645387 11.60571289 -0.04199219 C12.62525118 -0.04481956 13.64478947 -0.04764694 14.69522285 -0.05056 C20.09645976 -0.06551604 25.49767023 -0.07476669 30.89892578 -0.07910156 C36.43264173 -0.08456426 41.96610891 -0.10855608 47.49974728 -0.13707352 C51.79389614 -0.15585496 56.0879871 -0.16091379 60.38217354 -0.16243744 C62.41958531 -0.16543237 64.45699685 -0.17335153 66.4943676 -0.18662262 C81.90320182 -0.27978634 96.88013819 0.65635085 111.57836914 5.72363281 C112.31522949 5.97556396 113.05208984 6.22749512 113.8112793 6.48706055 C128.12452295 11.64923888 140.79608168 20.38902727 153.41430664 28.72363281 C158.90734609 32.35091503 164.45664876 35.88638326 170.01586914 39.41113281 C171.7321656 40.49943698 173.44831316 41.58797599 175.16430664 42.67675781 C176.47890869 43.49140503 176.47890869 43.49140503 177.82006836 44.32250977 C179.84835123 45.64456259 181.81910742 47.05643461 183.74682617 48.52124023 C192.64080644 55.13515757 200.23014398 56.55419288 211.19192505 56.89276123 C215.61800996 57.03182582 220.03649625 57.31071791 224.45727539 57.56347656 C225.33381271 57.60958069 226.21035004 57.65568481 227.1134491 57.70318604 C256.88381164 59.3169337 305.33128683 63.62168076 327.14086914 86.47363281 C332.56952723 93.17624661 336.72220816 100.7785073 336.80200195 109.52734375 C336.8116095 110.38213318 336.82121704 111.23692261 336.83111572 112.11761475 C336.8353656 113.03431946 336.83961548 113.95102417 336.84399414 114.89550781 C336.84969421 115.84750061 336.85539429 116.79949341 336.86126709 117.78033447 C336.87070569 119.79430026 336.87724654 121.80828141 336.88110352 123.82226562 C336.89078975 126.88602035 336.92181616 129.94909848 336.95336914 133.01269531 C336.95990171 134.97362885 336.96515118 136.93456716 336.96899414 138.89550781 C336.98134094 139.8041156 336.99368774 140.71272339 337.00640869 141.64886475 C336.97819192 149.8042706 335.08618758 156.51920897 329.43383789 162.61816406 C324.29648817 167.03919487 318.32172399 168.88854519 311.59008789 168.54785156 C309.64086914 168.16113281 309.64086914 168.16113281 307.14086914 166.47363281 C305.43759712 163.84775511 304.71740006 162.29890043 304.64086914 159.16113281 C306.26242543 155.6747868 307.40540206 154.31811087 310.64086914 152.16113281 C311.81649414 151.87238281 312.99211914 151.58363281 314.20336914 151.28613281 C317.62096299 150.51976703 317.62096299 150.51976703 319.01586914 148.41113281 C320.40258345 143.4189613 320.76222377 138.61644192 320.73852539 133.45019531 C320.73369141 131.58427734 320.73369141 131.58427734 320.72875977 129.68066406 C320.72038086 128.39546875 320.71200195 127.11027344 320.70336914 125.78613281 C320.69660156 123.82353516 320.69660156 123.82353516 320.68969727 121.82128906 C320.67794508 118.60119001 320.66151457 115.38118511 320.64086914 112.16113281 C319.80894043 112.19255371 319.80894043 112.19255371 318.96020508 112.22460938 C316.43727891 112.30796829 313.91464265 112.35985149 311.39086914 112.41113281 C310.51817383 112.44464844 309.64547852 112.47816406 308.74633789 112.51269531 C302.25868745 112.61174341 302.25868745 112.61174341 299.08618164 110.29785156 C297.3844348 107.78202583 296.78906005 106.1990465 296.64086914 103.16113281 C297.70485988 99.34849935 298.26603424 98.41102275 301.64086914 96.16113281 C303.90258789 95.74707031 303.90258789 95.74707031 306.32836914 95.53613281 C307.54073242 95.42398438 307.54073242 95.42398438 308.77758789 95.30957031 C309.3924707 95.26058594 310.00735352 95.21160156 310.64086914 95.16113281 C276.37297103 74.64548328 228.09974999 72.98758501 189.11694336 73.03515625 C187.20168517 73.03375803 185.28642729 73.03185648 183.37117004 73.02949524 C179.27895739 73.02503369 175.18675466 73.02314296 171.09453964 73.02303314 C164.62298838 73.02188445 158.15149305 73.00898949 151.67996216 72.99346924 C150.58412744 72.99089638 149.48829273 72.98832353 148.3592509 72.98567271 C146.12063212 72.98040771 143.88201339 72.97512222 141.64339471 72.96981668 C126.59794679 72.93477595 111.55257234 72.90816613 96.50708008 72.91064453 C86.32552871 72.91223144 76.1441718 72.89625016 65.96268284 72.85993791 C60.58310371 72.84147394 55.20384947 72.83214067 49.82424545 72.84441376 C44.77603895 72.85582351 39.72841691 72.84421024 34.68028831 72.81477928 C32.82794566 72.80812548 30.97554972 72.81002806 29.12322807 72.82107735 C26.59616852 72.83490336 24.07109562 72.81811077 21.54415894 72.79364014 C20.81022002 72.80499552 20.07628111 72.81635089 19.32010162 72.82805037 C15.43358196 72.7547634 13.7656921 72.26048922 10.68597603 69.8091011 C8.64086914 67.16113281 8.64086914 67.16113281 8.01586914 64.16113281 C8.65145964 61.11029842 9.41699087 59.35008976 11.68383789 57.19091797 C16.35502432 54.73295086 22.3294398 55.6776435 27.45336914 55.84863281 C31.80524414 55.95175781 36.15711914 56.05488281 40.64086914 56.16113281 C40.64086914 42.96113281 40.64086914 29.76113281 40.64086914 16.16113281 C33.99153008 16.23581555 27.34337276 16.31924996 20.69458008 16.42358398 C18.44106554 16.45647849 16.18747562 16.48461586 13.93383789 16.50756836 C0.21915556 16.65093804 -12.91269923 17.36222531 -26.35913086 20.16113281 C-26.4614502 20.85722656 -26.56376953 21.55332031 -26.66918945 22.27050781 C-27.75674042 29.5189717 -29.30180685 36.64036178 -30.92163086 43.78613281 C-31.25457153 45.26267334 -31.25457153 45.26267334 -31.59423828 46.76904297 C-31.80669189 47.69507324 -32.01914551 48.62110352 -32.23803711 49.57519531 C-32.42954346 50.41002441 -32.6210498 51.24485352 -32.81835938 52.10498047 C-33.35913086 54.16113281 -33.35913086 54.16113281 -34.35913086 56.16113281 C-33.71363281 56.14542236 -33.06813477 56.12971191 -32.40307617 56.11352539 C-29.47185057 56.05107479 -26.54076506 56.01211051 -23.60913086 55.97363281 C-22.59334961 55.94849609 -21.57756836 55.92335937 -20.53100586 55.89746094 C-19.55131836 55.88779297 -18.57163086 55.878125 -17.56225586 55.86816406 C-16.66152344 55.85245361 -15.76079102 55.83674316 -14.83276367 55.82055664 C-11.83615611 56.23313733 -10.51162509 57.05926767 -8.35913086 59.16113281 C-7.25539708 63.13457443 -6.94369503 65.25113053 -8.67163086 69.03613281 C-10.35913086 71.16113281 -10.35913086 71.16113281 -12.35913086 72.16113281 C-16.31139508 72.43427359 -20.27351652 72.39292309 -24.23413086 72.41113281 C-25.31694336 72.43175781 -26.39975586 72.45238281 -27.51538086 72.47363281 C-44.74389603 72.55586916 -56.21376073 67.02050521 -68.35913086 55.16113281 C-69.57536133 53.865625 -69.57536133 53.865625 -70.81616211 52.54394531 C-71.5934668 51.71636719 -72.37077148 50.88878906 -73.17163086 50.03613281 C-74.20223633 48.88757813 -74.20223633 48.88757813 -75.25366211 47.71582031 C-77.24494357 45.87150163 -77.24494357 45.87150163 -79.71704102 46.45727539 C-82.16668438 47.10986473 -84.40253502 47.88914438 -86.73803711 48.86816406 C-101.50841145 54.89137027 -115.54915108 58.25174963 -131.36694336 60.14550781 C-132.06580658 60.23044495 -132.7646698 60.31538208 -133.48471069 60.40289307 C-136.98793137 60.82663936 -140.49115604 61.22892113 -144.0012207 61.59179688 C-145.28464355 61.73842773 -146.56806641 61.88505859 -147.89038086 62.03613281 C-149.04086914 62.15730469 -150.19135742 62.27847656 -151.37670898 62.40332031 C-154.8613693 63.28874808 -156.17873213 64.33966843 -158.35913086 67.16113281 C-159.26733451 70.41471964 -159.26733451 70.41471964 -159.60913086 73.91113281 C-159.75866211 75.08160156 -159.90819336 76.25207031 -160.06225586 77.45800781 C-160.16022461 78.35003906 -160.25819336 79.24207031 -160.35913086 80.16113281 C-159.53928711 80.11472656 -158.71944336 80.06832031 -157.87475586 80.02050781 C-156.79709961 79.98441406 -155.71944336 79.94832031 -154.60913086 79.91113281 C-153.54178711 79.86472656 -152.47444336 79.81832031 -151.37475586 79.77050781 C-147.67983919 80.24912396 -146.61432793 81.26537507 -144.35913086 84.16113281 C-143.26602703 87.20620776 -143.23731347 88.72462051 -144.10913086 91.84863281 C-145.35913086 94.16113281 -145.35913086 94.16113281 -148.35913086 96.16113281 C-151.27709961 96.35644531 -151.27709961 96.35644531 -154.54663086 96.28613281 C-155.63331055 96.26808594 -156.71999023 96.25003906 -157.83959961 96.23144531 C-158.67104492 96.20824219 -159.50249023 96.18503906 -160.35913086 96.16113281 C-160.27718864 99.64118729 -160.16445037 103.11962282 -160.04663086 106.59863281 C-160.02407227 107.57251953 -160.00151367 108.54640625 -159.97827148 109.54980469 C-159.6975714 117.17974338 -159.36695518 124.21224204 -153.70507812 129.76318359 C-150.39134937 132.37270788 -147.06475406 133.49056771 -142.99194336 134.61816406 C-142.31235565 134.81085373 -141.63276794 135.0035434 -140.93258667 135.20207214 C-138.78681536 135.8069765 -136.6359282 136.39057293 -134.48413086 136.97363281 C-133.01759305 137.38303858 -131.55144222 137.79383326 -130.08569336 138.20605469 C-126.51450144 139.20716472 -122.93840761 140.1892699 -119.35913086 141.16113281 C-119.31159668 140.50959229 -119.2640625 139.85805176 -119.21508789 139.18676758 C-118.05359238 125.41021081 -112.12428366 114.93726231 -101.73413086 105.91113281 C-90.98000333 97.66026315 -78.58915216 95.35750947 -65.35913086 96.16113281 C-52.29735048 98.08534016 -41.76969058 103.9963238 -33.35913086 114.16113281 C-25.72124415 124.79066442 -22.59609825 136.12225201 -23.35913086 149.16113281 C-23.68913086 150.15113281 -24.01913086 151.14113281 -24.35913086 152.16113281 C47.58086914 152.16113281 119.52086914 152.16113281 193.64086914 152.16113281 C193.31086914 151.17113281 192.98086914 150.18113281 192.64086914 149.16113281 C191.42398716 136.82850193 195.16583116 124.34046277 202.64868164 114.52832031 C211.15940567 104.59419993 221.51834175 97.90747676 234.64086914 96.16113281 C249.5841834 95.15197393 261.89724826 98.44970102 273.73852539 107.82128906 C281.57144909 115.10332582 287.87550063 126.41059545 288.81787109 137.18481445 C289.36085531 156.1157104 289.36085531 156.1157104 284.64086914 165.16113281 C284.19356445 166.03125 283.74625977 166.90136719 283.28540039 167.79785156 C276.89510437 179.2592672 267.86259312 186.1811621 255.51586914 190.53613281 C242.53832842 194.16984421 228.76135164 193.28572824 216.89477539 186.61816406 C209.57692742 181.75073702 202.93932351 176.40726872 199.64086914 168.16113281 C123.74086914 168.16113281 47.84086914 168.16113281 -30.35913086 168.16113281 C-31.01913086 169.81113281 -31.67913086 171.46113281 -32.35913086 173.16113281 C-41.8060671 184.39912388 -52.5095779 191.09555172 -67.29663086 192.54785156 C-81.11611348 193.14993136 -93.53290877 189.31705391 -104.32006836 180.57128906 C-109.73450285 175.54697758 -113.93966217 169.13668672 -116.42382812 162.17919922 C-119.15110055 157.92607172 -121.93840053 157.50877472 -126.68334961 156.34472656 C-127.50358109 156.12091812 -128.32381256 155.89710968 -129.16889954 155.66651917 C-131.78931475 154.95436851 -134.4166151 154.27438569 -137.04663086 153.59863281 C-139.65751652 152.91565199 -142.26591698 152.22556323 -144.87080383 151.52003479 C-146.4888238 151.08297791 -148.11046077 150.65901141 -149.73600769 150.25083923 C-157.23392322 148.24789041 -163.49645802 144.70954284 -168.67163086 138.84863281 C-169.30713867 138.15125 -169.94264648 137.45386719 -170.59741211 136.73535156 C-175.9861673 128.86131682 -175.81344109 121.13613562 -175.79272461 111.87988281 C-175.79729475 110.4980036 -175.80260278 109.11612665 -175.80860901 107.73425293 C-175.81750331 104.84959633 -175.81515876 101.96521714 -175.80517578 99.08056641 C-175.79367959 95.40209144 -175.81392491 91.72457559 -175.84309292 88.0462265 C-175.86152358 85.19612654 -175.86114914 82.34625367 -175.8554554 79.49610901 C-175.85522958 77.48659153 -175.8720567 75.47709515 -175.88926697 73.46765137 C-175.82690274 65.25820307 -175.07096932 59.65952752 -169.71850586 53.17285156 C-169.18741211 52.73585937 -168.65631836 52.29886719 -168.10913086 51.84863281 C-167.58834961 51.39875 -167.06756836 50.94886719 -166.53100586 50.48535156 C-160.77711984 46.97713688 -154.74057272 45.67597691 -148.15209961 44.95019531 C-146.58986763 44.75917738 -145.02769517 44.56767212 -143.46557617 44.37573242 C-142.66172485 44.28017059 -141.85787354 44.18460876 -141.02966309 44.08615112 C-115.14897834 40.95905546 -95.32599429 34.36162732 -72.01293945 22.45166016 C-48.84400121 10.61978192 -26.52516226 0.03560231 0 0 Z M56.64086914 16.16113281 C56.64086914 29.36113281 56.64086914 42.56113281 56.64086914 56.16113281 C92.28086914 56.16113281 127.92086914 56.16113281 164.64086914 56.16113281 C161.17178175 53.3858629 157.92119934 50.95984009 154.21118164 48.58691406 C153.17574219 47.92353027 152.14030273 47.26014648 151.07348633 46.57666016 C149.98197266 45.88266113 148.89045898 45.18866211 147.76586914 44.47363281 C146.92650818 43.9391452 146.92650818 43.9391452 146.07019043 43.39385986 C114.41436173 22.91438123 114.41436173 22.91438123 77.83227539 16.06347656 C76.71280518 16.06597412 75.59333496 16.06847168 74.43994141 16.07104492 C73.04187256 16.08014893 71.64380371 16.08925293 70.20336914 16.09863281 C65.72774414 16.11925781 61.25211914 16.13988281 56.64086914 16.16113281 Z M-50.05444336 29.91113281 C-51.12758789 30.45253906 -51.12758789 30.45253906 -52.22241211 31.00488281 C-53.34196289 31.57722656 -53.34196289 31.57722656 -54.48413086 32.16113281 C-55.23823242 32.54269531 -55.99233398 32.92425781 -56.76928711 33.31738281 C-58.63437852 34.26173289 -60.49699141 35.2109751 -62.35913086 36.16113281 C-60.77245508 40.06399048 -58.22562605 42.49634263 -55.23413086 45.41113281 C-54.32405273 46.30316406 -53.41397461 47.19519531 -52.47631836 48.11425781 C-51.77764648 48.78972656 -51.07897461 49.46519531 -50.35913086 50.16113281 C-48.47616024 47.33667689 -47.93618736 45.9271801 -47.28881836 42.71191406 C-47.11479492 41.86435547 -46.94077148 41.01679688 -46.76147461 40.14355469 C-46.58745117 39.26248047 -46.41342773 38.38140625 -46.23413086 37.47363281 C-46.05237305 36.58095703 -45.87061523 35.68828125 -45.68334961 34.76855469 C-45.23601677 32.56720624 -44.79485446 30.36480332 -44.35913086 28.16113281 C-46.75972903 28.16113281 -47.91985503 28.82689747 -50.05444336 29.91113281 Z M-95.35913086 122.16113281 C-102.67226024 131.21316184 -104.35233362 139.63743407 -103.35913086 151.16113281 C-101.65889481 158.91980491 -97.32664812 165.00690581 -91.35913086 170.16113281 C-82.28925332 175.79117531 -73.15667338 177.96894295 -62.56225586 175.51269531 C-52.93571022 172.01485109 -46.08810579 165.15240752 -41.35913086 156.16113281 C-37.99530155 147.58983698 -38.86474264 139.64796994 -41.90991211 131.19628906 C-46.17079954 122.2725437 -53.19617951 116.56361043 -62.35913086 113.16113281 C-74.3650064 109.49993512 -86.54317543 113.59111606 -95.35913086 122.16113281 Z M214.64086914 125.16113281 C212.89116693 127.73115611 211.67609753 130.23601075 210.64086914 133.16113281 C210.22836914 134.31613281 209.81586914 135.47113281 209.39086914 136.66113281 C207.59881713 145.0240422 208.57204786 152.91623827 212.92993164 160.36425781 C218.51533655 168.18979837 225.17627669 173.81475753 234.64086914 176.16113281 C244.21017198 177.31321104 252.17582121 176.03475878 260.08227539 170.43066406 C266.22615115 165.35968917 271.17088051 159.16602141 272.64086914 151.16113281 C273.48587196 140.1622436 272.4506198 131.58705979 265.45336914 122.84863281 C259.11847553 116.11950762 250.6544467 112.18957469 241.45336914 111.78613281 C230.16006807 112.07688176 222.06507486 116.78297887 214.64086914 125.16113281 Z " fill="#535353" transform="translate(175.359130859375,159.8388671875)"/>
<path d="M0 0 C0.71128241 -0.00779995 1.42256481 -0.01559991 2.15540123 -0.02363622 C4.53333054 -0.04354374 6.90965714 -0.02779833 9.28759766 -0.01205444 C10.99449598 -0.01883118 12.70138699 -0.02773463 14.40826416 -0.03860474 C19.04056983 -0.06139813 23.67231869 -0.05256166 28.30463409 -0.03670931 C33.15232341 -0.02405051 37.99996506 -0.03579037 42.84765625 -0.04364014 C50.98853109 -0.05273676 59.12917913 -0.04074846 67.27001953 -0.01693726 C76.68201816 0.01027405 86.09347524 0.0014599 95.50546074 -0.02606928 C103.58629937 -0.04875899 111.66697497 -0.05196111 119.74783516 -0.03887594 C124.57422894 -0.03108066 129.40036818 -0.03004193 134.22674561 -0.04655838 C138.7643341 -0.06100189 143.30122442 -0.05098386 147.83873749 -0.0220871 C149.50401398 -0.01547561 151.16934923 -0.0173751 152.83460236 -0.02840042 C155.10830144 -0.04206627 157.37976381 -0.02493192 159.65332031 0 C160.92535309 0.00188513 162.19738586 0.00377026 163.50796509 0.00571251 C167.72962895 0.80611596 169.21537906 2.28393407 171.82666016 5.63491821 C172.45166016 9.19741821 172.45166016 9.19741821 171.82666016 12.63491821 C169.10147678 15.47995289 167.42853946 16.5431213 163.50796509 17.14107609 C162.23593231 17.14388301 160.96389954 17.14668993 159.65332031 17.14958191 C158.5863967 17.1600002 158.5863967 17.1600002 157.49791908 17.17062896 C155.12019909 17.18889075 152.74347779 17.1786377 150.36572266 17.16836548 C148.65882623 17.17542436 146.95193607 17.18416925 145.24505615 17.19447327 C140.61283031 17.21697926 135.98094593 17.21402494 131.34868622 17.2051518 C127.48171225 17.20004304 123.61480251 17.20733346 119.74783516 17.21462387 C110.62626662 17.23162634 101.50486537 17.22805307 92.38330078 17.21133423 C82.97131565 17.19440626 73.55979408 17.21025591 64.14785957 17.24255711 C56.06703317 17.2692399 47.98635119 17.27653275 39.90548515 17.26804203 C35.07907701 17.26310974 30.2529479 17.26534492 25.42657471 17.28582954 C20.88900946 17.30416652 16.35211204 17.29825254 11.81458282 17.27363014 C10.14929794 17.26861619 8.48396233 17.2721272 6.81871796 17.28477859 C4.54504199 17.30068614 2.27357155 17.28578408 0 17.2631073 C-1.90804916 17.26222784 -1.90804916 17.26222784 -3.85464478 17.2613306 C-8.06584836 16.46645489 -9.55039422 14.95729311 -12.17333984 11.63491821 C-12.79833984 8.63491821 -12.79833984 8.63491821 -12.17333984 5.63491821 C-8.41595737 0.87635571 -5.9871707 0.00887287 0 0 Z " fill="#535353" transform="translate(180.17333984375,279.3650817871094)"/>
<path d="M0 0 C1.7618565 1.67029546 3.45011686 3.38892234 5.12329102 5.14794922 C5.70788086 5.74220703 6.2924707 6.33646484 6.89477539 6.94873047 C12.20205218 12.39745265 12.20205218 12.39745265 12.56079102 16.52294922 C12.27700587 20.0702636 11.98755208 21.31657668 9.31079102 23.64794922 C5.65777042 24.66267716 3.41336228 25.18286003 -0.05639648 23.49951172 C-3.16620622 21.31249419 -5.79526739 18.79709282 -8.43920898 16.08544922 C-8.93291992 15.59109375 -9.42663086 15.09673828 -9.93530273 14.58740234 C-14.59896501 9.86624286 -14.59896501 9.86624286 -14.93920898 5.27294922 C-14.67895406 1.49925284 -14.41955045 0.18326629 -11.68920898 -2.35205078 C-7.57024992 -4.34051378 -3.4411037 -2.75427551 0 0 Z " fill="#545454" transform="translate(417.689208984375,293.35205078125)"/>
<path d="M0 0 C2.56205842 3.84308764 2.67366765 5.4340304 2 10 C0.00186435 13.00902677 -2.4528395 15.4528395 -5 18 C-5.58652344 18.66902344 -6.17304687 19.33804687 -6.77734375 20.02734375 C-9.67039597 23.235286 -11.42181917 24.82056457 -15.625 26.125 C-19.38528342 25.98573024 -21.07601465 25.32198837 -24 23 C-25.50889469 19.98221063 -25.50026276 18.37677363 -25 15 C-22.9835505 12.02450744 -20.52427401 9.54799839 -18 7 C-16.94039063 5.88431641 -16.94039063 5.88431641 -15.859375 4.74609375 C-10.33571545 -0.97191678 -8.01195733 -2.91343903 0 0 Z " fill="#545454" transform="translate(115,292)"/>
</svg>
