<?xml version="1.0" encoding="UTF-8"?>
<svg version="1.1" xmlns="http://www.w3.org/2000/svg" width="512" height="512">
<path d="M0 0 C1.70760035 -0.00570953 3.41519689 -0.01267604 5.12278748 -0.02079773 C9.74066987 -0.03868084 14.35836173 -0.03756979 18.97626829 -0.03185534 C22.84038226 -0.02875617 26.70446002 -0.03486411 30.56856883 -0.04089409 C39.68946088 -0.05492208 48.81025923 -0.05339268 57.93115234 -0.04199219 C67.32031648 -0.03051523 76.70919483 -0.04458349 86.09832132 -0.07138866 C94.17845836 -0.09358755 102.25850597 -0.10017354 110.33867133 -0.09431225 C115.15623358 -0.09095118 119.97361272 -0.09330095 124.79114914 -0.11056328 C129.3237727 -0.12609704 133.85597492 -0.12200598 138.38858223 -0.10325813 C140.04490265 -0.09958985 141.70125474 -0.10262895 143.35754585 -0.11314392 C157.36234123 -0.19521414 168.48921518 1.92459894 178.77197266 12.06420898 C184.34908761 18.16982859 188.20189823 25.24222156 188.22259998 33.62930393 C188.22705783 34.46998277 188.23151567 35.31066161 188.2361086 36.17681557 C188.23592424 37.09537943 188.23573988 38.01394328 188.23554993 38.96034241 C188.23922661 39.940135 188.2429033 40.9199276 188.24669141 41.92941087 C188.25772921 45.22182607 188.26157228 48.5142097 188.26538086 51.80664062 C188.27164549 54.163738 188.27829229 56.52083439 188.28529358 58.87792969 C188.30452096 65.95831715 188.31512238 73.03870105 188.32402137 80.11910811 C188.32840795 83.45644019 188.33377385 86.79377078 188.33901024 90.13110161 C188.35602163 101.23077725 188.37051424 112.33045192 188.37775898 123.43013859 C188.37966876 126.30938277 188.38158911 129.18862694 188.38354492 132.06787109 C188.38402866 132.78346183 188.3845124 133.49905257 188.3850108 134.23632788 C188.39330529 145.81994057 188.41863274 157.4034498 188.4511256 168.98701734 C188.4842401 180.88961977 188.50221175 192.79216971 188.50540322 204.69481844 C188.50756441 211.37362517 188.51670155 218.05230135 188.5418644 224.73106575 C188.56516628 231.01755477 188.56936958 237.30377285 188.55910301 243.59029388 C188.55860805 245.89325551 188.5649168 248.19623056 188.57865906 250.49915123 C188.73702028 278.61859798 188.73702028 278.61859798 178.08837891 289.40405273 C166.79986323 298.96179088 156.1171313 299.85032287 141.97729492 299.80810547 C140.24836792 299.81381479 138.51944469 299.82078122 136.79052734 299.8289032 C132.11486339 299.84678724 127.4393876 299.84567524 122.76369977 299.83996081 C118.85227046 299.8368622 114.94087694 299.84296886 111.02945274 299.84899956 C101.79833186 299.86302745 92.56730357 299.86149784 83.33618164 299.85009766 C73.82998331 299.8386168 64.32406712 299.85269554 54.81790596 299.87949413 C46.6392718 299.90168248 38.46072601 299.90828149 30.2820639 299.90241772 C25.40473065 299.89905461 20.52757825 299.90142028 15.65027046 299.91866875 C11.06265964 299.93418596 6.47546544 299.93012959 1.88787079 299.9113636 C0.21016708 299.90769098 -1.46756783 299.91074728 -3.14524269 299.92124939 C-17.0758533 300.00175599 -27.30974727 297.68733864 -37.59912109 287.77905273 C-43.30537207 281.61630168 -47.02476349 273.67822648 -47.04584217 265.21003628 C-47.05030001 264.37632423 -47.05475786 263.54261218 -47.05935079 262.68363613 C-47.05916643 261.77285417 -47.05898206 260.86207221 -47.05879211 259.9236908 C-47.0624688 258.95206531 -47.06614549 257.98043982 -47.06993359 256.97937113 C-47.08097086 253.71459496 -47.08481438 250.44985063 -47.08862305 247.18505859 C-47.09488772 244.84766539 -47.10153452 242.51027319 -47.10853577 240.17288208 C-47.12957998 232.48822727 -47.13993921 224.80357226 -47.14990234 217.11889648 C-47.15394991 214.47305351 -47.15806683 211.82721064 -47.16225243 209.18136787 C-47.17926379 198.17433854 -47.19375637 187.16731019 -47.20100117 176.16026974 C-47.20291095 173.30508867 -47.2048313 170.4499076 -47.20678711 167.59472656 C-47.20727085 166.88511705 -47.20775459 166.17550754 -47.20825299 165.44439472 C-47.21654736 153.9577795 -47.24187461 142.47126863 -47.27436779 130.98469894 C-47.30748322 119.18153759 -47.32545403 107.37842916 -47.32864541 95.57522112 C-47.33080651 88.9523047 -47.33994247 82.32952299 -47.36510658 75.70664787 C-47.38840993 69.47268784 -47.39261119 63.23900102 -47.3823452 57.0050087 C-47.38185027 54.72139769 -47.388158 52.43777312 -47.40190125 50.15420341 C-47.48884827 34.84615932 -47.30853586 21.93146652 -35.91162109 10.40405273 C-24.71874232 0.87898702 -14.04841079 -0.04248035 0 0 Z M-13.91162109 36.40405273 C-14.21111261 39.46965538 -14.32467911 42.33298077 -14.30603027 45.40039062 C-14.31212138 46.33188714 -14.31821248 47.26338366 -14.32448816 48.22310734 C-14.34119422 51.35776363 -14.33633152 54.4920171 -14.33154297 57.62670898 C-14.33887881 59.86856511 -14.34746361 62.11041745 -14.35720825 64.3522644 C-14.37948227 70.4513005 -14.38235204 76.55020173 -14.38046074 82.64927292 C-14.38034133 87.73413457 -14.38889337 92.81896734 -14.39723825 97.90382099 C-14.41759491 110.58137494 -14.41861457 123.25884483 -14.41143113 135.93640292 C-14.40585344 146.95324215 -14.4266894 157.96984899 -14.4597916 168.9866339 C-14.49349953 180.29253291 -14.50822559 191.59832365 -14.50407457 202.90428448 C-14.50200173 209.25424334 -14.50756898 215.60397075 -14.53196716 221.95388794 C-14.55414269 227.92278015 -14.55243312 233.89118678 -14.53203964 239.86008072 C-14.52861344 242.05512998 -14.53378735 244.25021136 -14.54802322 246.44521713 C-14.56607078 249.43329164 -14.55357489 252.41969319 -14.53308105 255.40771484 C-14.55185783 256.72224184 -14.55185783 256.72224184 -14.57101393 258.06332493 C-14.58878502 260.7460157 -14.58878502 260.7460157 -13.91162109 264.40405273 C-10.4080438 267.76763309 -6.97305768 267.7804507 -2.26304626 267.78500366 C-1.28081891 267.79202362 -1.28081891 267.79202362 -0.27874857 267.7991854 C1.9077189 267.81111794 4.09355756 267.80168557 6.2800293 267.79223633 C7.85061508 267.79630278 9.421198 267.80164508 10.99177551 267.8081665 C15.25201415 267.82183606 19.51203469 267.81654328 23.77227712 267.80702925 C28.23071329 267.79943212 32.68913084 267.80647828 37.14756775 267.81118774 C44.63348747 267.81664457 52.11931837 267.809455 59.60522461 267.79516602 C68.26164107 267.77883367 76.91784562 267.78413251 85.57425696 267.80064523 C93.00622436 267.81425506 100.43812794 267.81618241 107.87010378 267.80832922 C112.30908364 267.8036507 116.74796386 267.80303289 121.18693733 267.81293869 C125.35912064 267.82159898 129.5310304 267.81560374 133.70318413 267.79825592 C135.23504558 267.7942863 136.76693002 267.79543326 138.29878235 267.80204391 C140.38842917 267.81023096 142.47719705 267.79997359 144.56678772 267.78500366 C146.32135835 267.78330705 146.32135835 267.78330705 148.11137486 267.78157616 C151.40040046 267.36448428 152.76806329 266.73669273 155.08837891 264.40405273 C156.40060463 260.46737557 156.23297711 256.71477805 156.2288208 252.61099243 C156.23179192 251.70132481 156.23476305 250.79165719 156.2378242 249.85442388 C156.24652454 246.79364642 156.24802057 243.732908 156.24951172 240.67211914 C156.2541389 238.48277197 156.25916342 236.29342561 156.26455688 234.1040802 C156.27769138 228.14750083 156.28412774 222.19093274 156.28856754 216.23434114 C156.2914962 212.51540124 156.29560058 208.79646444 156.30007172 205.07752609 C156.31453498 192.78030977 156.32386369 180.48310194 156.32793823 168.18587787 C156.328161 167.52278769 156.32838376 166.8596975 156.32861328 166.17651367 C156.32883471 165.51261463 156.32905614 164.8487156 156.32928428 164.16469841 C156.33323317 153.40470239 156.35069036 142.64477407 156.3739728 131.8848042 C156.39768135 120.83881049 156.40989037 109.79285246 156.41131473 98.74683321 C156.41236445 92.54441512 156.41830792 86.34209252 156.43613434 80.13969803 C156.45257151 74.3071587 156.45479171 68.47478708 156.44599533 62.64223289 C156.44522265 60.49962478 156.44959786 58.35700781 156.45945358 56.21442223 C156.47210509 53.29310666 156.46633327 50.37239119 156.45587158 47.45108032 C156.46392799 46.60000942 156.47198439 45.74893852 156.48028493 44.87207758 C156.44233448 40.35187969 156.37225704 36.83747922 153.08837891 33.40405273 C150.07027505 32.65335348 150.07027505 32.65335348 146.52172852 32.78259277 C145.51650477 32.77300954 145.51650477 32.77300954 144.49097347 32.76323271 C142.2402864 32.747944 139.99134901 32.76846645 137.74072266 32.78881836 C136.12939876 32.78531828 134.5180783 32.77966097 132.9067688 32.77200317 C128.52649089 32.75772907 124.14683876 32.774842 119.76662064 32.79828835 C115.18759618 32.81836108 110.60859863 32.81251966 106.02954102 32.81018066 C98.33908741 32.81023427 90.64887918 32.83001435 82.95849609 32.86206055 C74.06124101 32.89895509 65.16430748 32.90773654 56.26698589 32.90076303 C47.71596105 32.89446264 39.16504674 32.90520371 30.61404419 32.92472839 C26.97134835 32.93291343 23.32870891 32.93560991 19.68600464 32.93403625 C15.39809343 32.93315874 11.11048887 32.94733742 6.82265854 32.97326279 C5.24685019 32.98043862 3.67100925 32.98250142 2.09518814 32.97914505 C-0.05186662 32.97544361 -2.19801981 32.99012954 -4.3449707 33.00964355 C-5.54770126 33.01337227 -6.75043182 33.01710098 -7.98960876 33.02094269 C-11.28125591 33.45251619 -11.92722166 33.85771452 -13.91162109 36.40405273 Z " fill="#FFD600" transform="translate(323.91162109375,212.595947265625)"/>
<path d="M0 0 C1.728927 -0.00570932 3.45785023 -0.01267575 5.18676758 -0.02079773 C9.86243153 -0.03868177 14.53790732 -0.03756978 19.21359515 -0.03185534 C23.12502446 -0.02875673 27.03641798 -0.03486339 30.94784218 -0.04089409 C40.17896306 -0.05492198 49.40999136 -0.05339237 58.64111328 -0.04199219 C68.14731161 -0.03051133 77.6532278 -0.04459007 87.15938896 -0.07138866 C95.33802312 -0.09357701 103.51656891 -0.10017602 111.69523102 -0.09431225 C116.57256427 -0.09094914 121.44971668 -0.09331481 126.32702446 -0.11056328 C130.91463528 -0.12608049 135.50182948 -0.12202412 140.08942413 -0.10325813 C141.76712784 -0.09958551 143.44486275 -0.10264181 145.12253761 -0.11314392 C159.05314822 -0.19365052 169.28704219 2.12076683 179.57641602 12.02905273 C185.28266699 18.19180379 189.00205841 26.12987899 189.02313709 34.59806919 C189.02759494 35.43178124 189.03205278 36.26549329 189.03664571 37.12446934 C189.03646135 38.0352513 189.03627699 38.94603326 189.03608704 39.88441467 C189.03976372 40.85604016 189.04344041 41.82766565 189.04722852 42.82873434 C189.05826579 46.0935105 189.0621093 49.35825484 189.06591797 52.62304688 C189.07218264 54.96044008 189.07882944 57.29783228 189.08583069 59.63522339 C189.1068749 67.31987819 189.11723414 75.00453321 189.12719727 82.68920898 C189.13124483 85.33505196 189.13536175 87.98089483 189.13954735 90.62673759 C189.15655871 101.63376693 189.17105129 112.64079528 189.17829609 123.64783573 C189.18020587 126.5030168 189.18212622 129.35819787 189.18408203 132.21337891 C189.18456577 132.92298842 189.18504951 133.63259793 189.18554791 134.36371075 C189.19384228 145.85032597 189.21916953 157.33683684 189.25166271 168.82340652 C189.28477815 180.62656788 189.30274895 192.4296763 189.30594033 204.23288435 C189.30810143 210.85580077 189.3172374 217.47858247 189.3424015 224.1014576 C189.36570485 230.33541763 189.36990611 236.56910445 189.35964012 242.80309677 C189.35914519 245.08670778 189.36545292 247.37033234 189.37919617 249.65390205 C189.46620341 264.97254797 189.27830609 277.8622234 177.88891602 289.40405273 C166.63850638 299.122894 155.20871158 299.85156202 140.95556641 299.80810547 C139.25767062 299.81381652 137.55977867 299.82078361 135.8618927 299.8289032 C131.27505982 299.84676802 126.68841894 299.84567891 122.10156178 299.83996081 C118.26225085 299.83685943 114.4229763 299.84297191 110.58367056 299.84899956 C101.52173235 299.8630211 92.45988848 299.86150312 83.39794922 299.85009766 C74.0706796 299.83861717 64.74369755 299.85269636 55.41646582 299.87949413 C47.38726348 299.90169298 39.35815113 299.90827914 31.3289203 299.90241772 C26.54267163 299.89905714 21.75660726 299.90140329 16.9703846 299.91866875 C12.46811551 299.93420282 7.96627059 299.93011113 3.46401787 299.9113636 C1.8189845 299.90769562 0.17391925 299.91073352 -1.47108459 299.92124939 C-15.44032639 300.00368019 -26.54113489 297.8546986 -36.79467773 287.74389648 C-42.37911847 281.63025687 -46.22468205 274.55684812 -46.24530506 266.16039085 C-46.24976291 265.31561192 -46.25422075 264.47083298 -46.25881368 263.60045469 C-46.25862932 262.67731776 -46.25844495 261.75418084 -46.258255 260.80307007 C-46.26377004 259.3261975 -46.26377004 259.3261975 -46.26939648 257.81948912 C-46.2804345 254.51092044 -46.28427738 251.20238317 -46.28808594 247.89379883 C-46.29435051 245.52522685 -46.3009973 243.15665585 -46.30799866 240.78808594 C-46.32722547 233.67359262 -46.33782695 226.55909873 -46.34672645 219.44458669 C-46.35111275 216.09168464 -46.35647869 212.73878415 -46.36171532 209.38588333 C-46.37872592 198.23559332 -46.39321907 187.08530428 -46.40046406 175.93500328 C-46.40237386 173.04268772 -46.4042942 170.15037217 -46.40625 167.25805664 C-46.40673374 166.53921298 -46.40721748 165.82036931 -46.40771588 165.07974251 C-46.41601242 153.44048904 -46.44134369 141.80133848 -46.47383068 130.16212992 C-46.50693442 118.20416172 -46.52491582 106.24624575 -46.5281083 94.28823149 C-46.53027038 87.57758461 -46.53941995 80.86711066 -46.56456947 74.15650558 C-46.58785462 67.84129287 -46.59208139 61.52634987 -46.58180809 55.21110535 C-46.58131273 52.89643583 -46.58763311 50.58175302 -46.60136414 48.26712418 C-46.61909691 45.1000735 -46.61196937 41.9339893 -46.59883118 38.76693726 C-46.60980042 37.85718466 -46.62076967 36.94743207 -46.63207132 36.01011121 C-46.53495242 26.27178072 -42.91633757 17.42789048 -36.11108398 10.40405273 C-24.83511624 0.83772916 -14.13157428 -0.04219274 0 0 Z M-13.11108398 35.40405273 C-14.42330971 39.3407299 -14.25568219 43.09332742 -14.25152588 47.19711304 C-14.254497 48.10678066 -14.25746812 49.01644828 -14.26052928 49.95368159 C-14.26922962 53.01445905 -14.27072565 56.07519746 -14.2722168 59.13598633 C-14.27684398 61.3253335 -14.2818685 63.51467985 -14.28726196 65.70402527 C-14.30039646 71.66060464 -14.30683281 77.61717273 -14.31127262 83.57376432 C-14.31420128 87.29270423 -14.31830566 91.01164103 -14.32277679 94.73057938 C-14.33724006 107.0277957 -14.34656877 119.32500353 -14.35064331 131.62222759 C-14.35086607 132.28531778 -14.35108884 132.94840797 -14.35131836 133.6315918 C-14.35153979 134.29549083 -14.35176122 134.95938987 -14.35198936 135.64340706 C-14.35593825 146.40340308 -14.37339544 157.1633314 -14.39667788 167.92330126 C-14.42038643 178.96929498 -14.43259545 190.01525301 -14.4340198 201.06127226 C-14.43506953 207.26369034 -14.44101299 213.46601295 -14.45883942 219.66840744 C-14.47527659 225.50094677 -14.47749678 231.33331839 -14.46870041 237.16587257 C-14.46792773 239.30848069 -14.47230294 241.45109766 -14.48215866 243.59368324 C-14.49481016 246.51499881 -14.48903835 249.43571428 -14.47857666 252.35702515 C-14.48663306 253.20809605 -14.49468947 254.05916695 -14.50299001 254.93602788 C-14.46503955 259.45622578 -14.39496212 262.97062625 -11.11108398 266.40405273 C-8.09298013 267.15475199 -8.09298013 267.15475199 -4.54443359 267.0255127 C-3.87428443 267.03190152 -3.20413527 267.03829034 -2.51367855 267.04487276 C-0.26299148 267.06016147 1.98594591 267.03963902 4.23657227 267.01928711 C5.84789617 267.02278719 7.45921662 267.0284445 9.07052612 267.03610229 C13.45080403 267.0503764 17.83045617 267.03326346 22.21067429 267.00981712 C26.78969874 266.98974439 31.36869629 266.99558581 35.94775391 266.9979248 C43.63820751 266.99787119 51.32841575 266.97809112 59.01879883 266.94604492 C67.91605391 266.90915038 76.81298744 266.90036893 85.71030903 266.90734243 C94.26133387 266.91364282 102.81224818 266.90290176 111.36325073 266.88337708 C115.00594657 266.87519204 118.64858601 266.87249555 122.29129028 266.87406921 C126.57920149 266.87494673 130.86680605 266.86076804 135.15463638 266.83484268 C136.73044473 266.82766685 138.30628567 266.82560405 139.88210678 266.82896042 C142.02916154 266.83266186 144.17531474 266.81797593 146.32226562 266.79846191 C147.52499619 266.7947332 148.72772675 266.79100449 149.96690369 266.78716278 C153.25855083 266.35558928 153.90451658 265.95039094 155.88891602 263.40405273 C156.18840753 260.33845009 156.30197403 257.4751247 156.2833252 254.40771484 C156.2894163 253.47621833 156.2955074 252.54472181 156.30178308 251.58499813 C156.31848914 248.45034183 156.31362644 245.31608837 156.30883789 242.18139648 C156.31617373 239.93954036 156.32475854 237.69768802 156.33450317 235.45584106 C156.35677719 229.35680497 156.35964696 223.25790374 156.35775566 217.15883255 C156.35763625 212.0739709 156.36618829 206.98913813 156.37453318 201.90428448 C156.39488983 189.22673053 156.39590949 176.54926063 156.38872606 163.87170255 C156.38314836 152.85486332 156.40398432 141.83825648 156.43708652 130.82147157 C156.47079445 119.51557256 156.48552051 108.20978182 156.4813695 96.90382099 C156.47929665 90.55386212 156.4848639 84.20413471 156.50926208 77.85421753 C156.53143761 71.88532532 156.52972804 65.91691869 156.50933456 59.94802475 C156.50590836 57.75297549 156.51108227 55.55789411 156.52531815 53.36288834 C156.54336571 50.37481383 156.53086981 47.38841228 156.51037598 44.40039062 C156.52289382 43.5240393 156.53541167 42.64768797 156.54830885 41.74478054 C156.56607994 39.06208977 156.56607994 39.06208977 155.88891602 35.40405273 C152.38533872 32.04047237 148.9503526 32.02765477 144.24034119 32.02310181 C143.58552295 32.01842183 142.93070471 32.01374186 142.25604349 32.00892007 C140.06957602 31.99698753 137.88373736 32.0064199 135.69726562 32.01586914 C134.12667984 32.01180269 132.55609692 32.00646039 130.98551941 31.99993896 C126.72528077 31.98626941 122.46526023 31.99156219 118.20501781 32.00107622 C113.74658163 32.00867335 109.28816408 32.00162718 104.82972717 31.99691772 C97.34380745 31.9914609 89.85797655 31.99865047 82.37207031 32.01293945 C73.71565385 32.0292718 65.05944931 32.02397296 56.40303797 32.00746024 C48.97107056 31.99385041 41.53916698 31.99192306 34.10719115 31.99977624 C29.66821128 32.00445477 25.22933106 32.00507258 20.79035759 31.99516678 C16.61817428 31.98650648 12.44626452 31.99250173 8.27411079 32.00984955 C6.74224934 32.01381917 5.2103649 32.01267221 3.67851257 32.00606155 C1.58886575 31.99787451 -0.49990212 32.00813188 -2.5894928 32.02310181 C-4.34406343 32.02479842 -4.34406343 32.02479842 -6.13407993 32.02652931 C-9.42310554 32.44362119 -10.79076836 33.07141274 -13.11108398 35.40405273 Z " fill="#FFD600" transform="translate(46.111083984375,-0.404052734375)"/>
<path d="M0 0 C0.71027814 -0.00367669 1.42055628 -0.00735338 2.152358 -0.01114148 C4.53268591 -0.02215536 6.91297014 -0.02601829 9.2933197 -0.02983093 C11.00017942 -0.03609745 12.70703778 -0.04274442 14.41389465 -0.04974365 C20.02074741 -0.07076867 25.62760038 -0.08114638 31.23448181 -0.09111023 C33.16710868 -0.09515873 35.09973541 -0.09927568 37.03236198 -0.10346031 C46.1151532 -0.12251062 55.19793631 -0.13674052 64.28074366 -0.14507228 C74.75143292 -0.15483657 85.22191032 -0.18113567 95.69252497 -0.22157317 C103.79377386 -0.25178188 111.8949622 -0.26654577 119.99626631 -0.26985329 C124.83069636 -0.27219886 129.66490006 -0.28109454 134.49926949 -0.30631447 C139.05231013 -0.32968271 143.60497679 -0.33379341 148.15806198 -0.32355309 C149.82245443 -0.32305969 151.48686583 -0.32932169 153.15120125 -0.34310913 C165.57263393 -0.44018979 176.02041428 0.83179382 185.87901306 9.10029602 C194.22767277 17.3544426 198.24274298 26.51435014 198.36701965 38.18896484 C198.36251801 39.17725784 198.35801636 40.16555084 198.3533783 41.18379211 C198.36024155 42.25008347 198.3671048 43.31637482 198.37417603 44.41497803 C198.39237968 47.91699283 198.38861529 51.41855685 198.38291931 54.92060852 C198.3874844 57.37004236 198.39279095 59.81947492 198.39880371 62.26890564 C198.40772239 67.39472161 198.40532597 72.52038168 198.39537048 77.64619446 C198.38388675 84.19507542 198.40409029 90.74341669 198.43328762 97.29222679 C198.45168815 102.34877405 198.45134935 107.40519293 198.4456501 112.46176529 C198.44549734 114.87534466 198.45150425 117.28893298 198.46394157 119.70248032 C198.47892092 123.08591203 198.46812236 126.46835867 198.45103455 129.85176086 C198.4655365 131.32812767 198.4655365 131.32812767 198.48033142 132.83432007 C198.35964994 144.32167707 194.32351463 153.6829934 186.28916931 161.83076477 C178.96696088 168.51916017 171.66027723 171.26168368 161.82272339 171.29434204 C161.10427815 171.29801873 160.3858329 171.30169542 159.64561659 171.30548352 C157.23764969 171.31649839 154.82972597 171.3203605 152.42173767 171.32417297 C150.69517378 171.33043941 148.96861124 171.33708637 147.24205017 171.34408569 C141.57026608 171.36511153 135.89848176 171.37548845 130.22666931 171.38545227 C128.27175444 171.38950073 126.31683971 171.39361768 124.36192513 171.39780235 C115.17448243 171.41685279 105.98704775 171.4310827 96.7995891 171.43941432 C86.20777985 171.44917886 75.61618001 171.47547856 65.02444452 171.51591522 C56.82977816 171.54612234 48.63517166 171.56088766 40.44045073 171.56419533 C35.55013042 171.56654106 30.66003387 171.57543894 25.76977348 171.60065651 C21.16420443 171.624022 16.5590051 171.62813654 11.95339203 171.61789513 C10.26964904 171.61740167 8.58588733 171.62366561 6.9022007 171.63745117 C-4.96449135 171.72911905 -15.6400869 170.76704423 -25.20301819 162.97138977 C-33.51065333 154.76913689 -37.34760072 145.53514653 -37.46836853 133.96734619 C-37.46386688 132.95878067 -37.45936523 131.95021515 -37.45472717 130.91108704 C-37.46159042 129.82368225 -37.46845367 128.73627747 -37.4755249 127.61592102 C-37.49373084 124.04417121 -37.48996419 120.47286324 -37.48426819 116.90107727 C-37.48883283 114.40440733 -37.49413924 111.90773865 -37.50015259 109.41107178 C-37.51021105 103.51938861 -37.50413889 97.62786132 -37.492899 91.73618501 C-37.48571809 87.05267824 -37.49650808 82.36945095 -37.51722717 77.68598938 C-37.54555172 71.20460251 -37.55417042 64.72350673 -37.54699898 58.24206352 C-37.54684608 55.78020931 -37.55286427 53.31834637 -37.56529045 50.85652351 C-37.58024541 47.4082325 -37.56948922 43.96091118 -37.55238342 40.51264954 C-37.56205139 39.50610825 -37.57171936 38.49956696 -37.5816803 37.46252441 C-37.46531812 26.20345635 -33.16667911 17.49840664 -25.42567444 9.45967102 C-18.12562777 2.70036855 -9.78976818 0.03287639 0 0 Z M-3.93728065 35.42512512 C-4.98011301 37.97466112 -5.42716434 39.60210129 -5.43162537 42.32136536 C-5.44008484 43.12035751 -5.44854431 43.91934967 -5.45726013 44.74255371 C-5.45118744 45.60504227 -5.44511475 46.46753082 -5.43885803 47.3561554 C-5.44411499 48.27544327 -5.44937195 49.19473114 -5.45478821 50.14187622 C-5.4679722 53.17506492 -5.45925567 56.20772715 -5.44911194 59.24092102 C-5.45113313 61.3517212 -5.45404495 63.46252069 -5.45780945 65.57331848 C-5.46223064 69.99497635 -5.45580823 74.41645228 -5.44178772 78.83808899 C-5.42469609 84.50426973 -5.43453835 90.17002416 -5.45250511 95.83618927 C-5.4633484 100.19422108 -5.45989407 104.55215191 -5.45212173 108.91018677 C-5.45012124 110.99936982 -5.4525737 113.08856205 -5.45956039 115.17773438 C-5.46718369 118.098132 -5.45555807 121.01784032 -5.43885803 123.93818665 C-5.44493073 124.8006752 -5.45100342 125.66316376 -5.45726013 126.55178833 C-5.40774138 131.22880477 -5.10473946 134.35627125 -2.05067444 138.14717102 C0.75852039 139.55176843 3.08685584 139.27963123 6.23040771 139.28761292 C6.88195711 139.29058404 7.53350651 139.29355516 8.20479983 139.29661632 C10.39805629 139.30531965 12.59125826 139.30681294 14.78453064 139.30830383 C16.35304888 139.31293088 17.92156599 139.31795538 19.49008179 139.323349 C23.75875755 139.33648654 28.02741757 139.34292067 32.29611039 139.34735966 C34.96191194 139.35028839 37.62770916 139.35439283 40.29350853 139.35886383 C48.63092206 139.37254274 56.96832574 139.38220729 65.30574971 139.38606572 C74.93599781 139.39054666 84.56610398 139.40809454 94.19630891 139.43706632 C101.63585922 139.45867206 109.07536957 139.46876942 116.51495093 139.47010684 C120.96017544 139.47115573 125.40526662 139.47708117 129.85045815 139.49492645 C134.03242409 139.51138788 138.21415619 139.51357209 142.39614296 139.50478745 C143.93081793 139.50401601 145.46550536 139.50837377 147.00014877 139.5182457 C149.0961425 139.53093748 151.1913046 139.52510433 153.28729248 139.5146637 C154.4599809 139.51613026 155.63266932 139.51759682 156.84089375 139.51910782 C160.33793734 139.100672 162.22652134 138.37367593 164.94932556 136.14717102 C165.68715254 134.21045387 165.68715254 134.21045387 165.57078552 132.01020813 C165.58759872 130.74840225 165.58759872 130.74840225 165.60475159 129.46110535 C165.59148834 128.54153046 165.5782251 127.62195557 165.56455994 126.67451477 C165.57288345 125.21805038 165.57288345 125.21805038 165.58137512 123.73216248 C165.59320628 120.5158333 165.56886044 117.3009021 165.54307556 114.08467102 C165.54136535 111.85412155 165.54142923 109.62357006 165.54319763 107.39302063 C165.54154241 102.71549789 165.52280673 98.03845328 165.49131775 93.36103821 C165.45163982 87.35827579 165.44727127 81.35614013 165.45478058 75.35327148 C165.45784671 70.74651829 165.44574243 66.13990663 165.4286499 61.53318787 C165.42160684 59.3195535 165.41849694 57.1059031 165.41934204 54.89225769 C165.41754901 51.80115134 165.39620912 48.71080297 165.36924744 45.61982727 C165.37217804 44.70025238 165.37510864 43.78067749 165.37812805 42.83323669 C165.36677826 41.99203278 165.35542847 41.15082886 165.34373474 40.28413391 C165.34000603 39.55336136 165.33627731 38.82258881 165.33243561 38.06967163 C164.81087373 35.45240006 164.1708918 34.63871613 161.94932556 33.14717102 C158.91619304 32.6866167 158.91619304 32.6866167 155.38267517 32.75276184 C154.71252601 32.74667074 154.04237684 32.74057963 153.35192013 32.73430395 C151.1016653 32.71762688 148.85197341 32.72245619 146.60166931 32.72724915 C144.99034535 32.71991159 143.37902667 32.71132628 141.76771545 32.70158386 C137.3876197 32.67932797 133.00771183 32.67643914 128.62756729 32.67833138 C124.97424992 32.67845087 121.32097267 32.66989553 117.66766644 32.66155386 C109.05156478 32.64230577 100.43556002 32.63944136 91.81944275 32.64619446 C82.92210663 32.65283941 74.02518465 32.629956 65.12793255 32.59288073 C57.49559221 32.56222699 49.86338539 32.55081889 42.23098469 32.55471754 C37.66951342 32.55678924 33.10836445 32.55124119 28.54695129 32.52682495 C24.25894491 32.504631 19.97161412 32.50637358 15.68360519 32.52675247 C14.10777644 32.53017545 12.53190284 32.52501821 10.9561348 32.51076889 C8.80861804 32.4926856 6.66342028 32.50523854 4.51597595 32.52571106 C2.71188011 32.5246423 2.71188011 32.5246423 0.87133789 32.52355194 C-2.21514799 32.86654501 -2.21514799 32.86654501 -3.93728065 35.42512512 Z " fill="#FFD600" transform="translate(37.05067443847656,340.8528289794922)"/>
<path d="M0 0 C0.71844524 -0.00367669 1.43689049 -0.00735338 2.1771068 -0.01114148 C4.5850737 -0.02215635 6.99299742 -0.02601846 9.40098572 -0.02983093 C11.1275496 -0.03609737 12.85411215 -0.04274433 14.58067322 -0.04974365 C20.25245731 -0.07076948 25.92424163 -0.08114641 31.59605408 -0.09111023 C33.55096895 -0.09515869 35.50588368 -0.09927564 37.46079826 -0.10346031 C46.64824096 -0.12251075 55.83567564 -0.13674066 65.02313429 -0.14507228 C75.61494354 -0.15483682 86.20654337 -0.18113652 96.79827887 -0.22157317 C104.99294523 -0.2517803 113.18755173 -0.26654562 121.38227266 -0.26985329 C126.27259297 -0.27219902 131.16268952 -0.2810969 136.05294991 -0.30631447 C140.65851896 -0.32967996 145.26371828 -0.33379449 149.86933136 -0.32355309 C151.55307435 -0.32305963 153.23683606 -0.32932356 154.92052269 -0.34310913 C166.78721474 -0.43477701 177.46281029 0.52729781 187.02574158 8.32295227 C195.33337672 16.52520515 199.17032411 25.75919552 199.29109192 37.32699585 C199.28659027 38.33556137 199.28208862 39.34412689 199.27745056 40.383255 C199.28431381 41.47065979 199.29117706 42.55806458 199.29824829 43.67842102 C199.31645423 47.25017083 199.31268758 50.8214788 199.30699158 54.39326477 C199.31155622 56.88993471 199.31686263 59.38660339 199.32287598 61.88327026 C199.33293444 67.77495343 199.32686228 73.66648072 199.31562239 79.55815703 C199.30844148 84.2416638 199.31923147 88.92489109 199.33995056 93.60835266 C199.36827511 100.08973953 199.37689381 106.57083531 199.36972237 113.05227852 C199.36956947 115.51413273 199.37558766 117.97599567 199.38801384 120.43781853 C199.4029688 123.88610954 199.39221261 127.33343086 199.37510681 130.7816925 C199.38960876 132.29150444 199.38960876 132.29150444 199.40440369 133.83181763 C199.28804151 145.09088569 194.9894025 153.7959354 187.24839783 161.83467102 C179.96022264 168.58298138 171.63034495 171.26465013 161.85395813 171.28761292 C160.7936079 171.2920696 160.7936079 171.2920696 159.71183646 171.29661632 C157.34298944 171.30528811 154.97419305 171.30681029 152.60533142 171.30830383 C150.90670158 171.31293319 149.20807278 171.31795801 147.50944519 171.323349 C142.89345574 171.33646614 138.27748083 171.34291695 133.66147566 171.34735966 C130.77551675 171.35029228 127.8895618 171.35439751 125.00360489 171.35886383 C115.96833355 171.3725387 106.93307128 171.38220467 97.89779031 171.38606572 C87.47919985 171.39054265 77.06074084 171.40807363 66.64219034 171.43706632 C58.58256939 171.45871324 50.52298533 171.46877166 42.46333563 171.47010684 C37.65301498 171.47115297 32.84281789 171.47701952 28.03252792 171.49492645 C23.5033373 171.51145859 18.97436241 171.51353776 14.44515228 171.50478745 C12.78840938 171.50401974 11.13165463 171.50832439 9.47494125 171.5182457 C-4.02445394 171.59430557 -14.56988684 170.26675368 -25.12660217 161.14717102 C-32.88760064 153.28229685 -36.5358622 143.84826712 -36.66871643 132.85653687 C-36.65657104 131.38488319 -36.65657104 131.38488319 -36.6441803 129.88349915 C-36.65118958 128.81691574 -36.65819885 127.75033234 -36.66542053 126.65142822 C-36.68288452 123.16015323 -36.67141854 119.66970285 -36.65785217 116.17842102 C-36.6605504 113.73184556 -36.66443557 111.28527115 -36.66944885 108.83869934 C-36.67532824 103.7247847 -36.66683096 98.61115057 -36.64808655 93.49726868 C-36.62529849 86.96411557 -36.63842989 80.43161993 -36.6623764 73.89849091 C-36.67687634 68.85051072 -36.67220908 63.8026847 -36.66186523 58.75469971 C-36.65920956 56.3467094 -36.66242658 53.93870479 -36.67178345 51.5307312 C-36.68201798 48.1570615 -36.66635057 44.78443548 -36.6441803 41.4108429 C-36.65227722 40.42974045 -36.66037415 39.448638 -36.66871643 38.43780518 C-36.53001972 26.96269538 -32.49277383 17.60321805 -24.46644592 9.46357727 C-17.14423749 2.77518187 -9.83755384 0.03265836 0 0 Z M-3.12660217 35.14717102 C-3.86442915 37.08388817 -3.86442915 37.08388817 -3.74806213 39.28413391 C-3.75927094 40.12533783 -3.77047974 40.96654175 -3.7820282 41.83323669 C-3.76876495 42.75281158 -3.75550171 43.67238647 -3.74183655 44.61982727 C-3.74738556 45.59080353 -3.75293457 46.56177979 -3.75865173 47.56217957 C-3.77048289 50.77850874 -3.74613705 53.99343994 -3.72035217 57.20967102 C-3.71864196 59.4402205 -3.71870584 61.67077198 -3.72047424 63.90132141 C-3.71881902 68.57884415 -3.70008335 73.25588876 -3.66859436 77.93330383 C-3.62891643 83.93606625 -3.62454788 89.93820191 -3.63205719 95.94107056 C-3.63512332 100.54782375 -3.62301904 105.15443541 -3.60592651 109.76115417 C-3.59888345 111.97478854 -3.59577356 114.18843895 -3.59661865 116.40208435 C-3.59482562 119.4931907 -3.57348573 122.58353907 -3.54652405 125.67451477 C-3.54945465 126.59408966 -3.55238525 127.51366455 -3.55540466 128.46110535 C-3.54405487 129.30230927 -3.53270508 130.14351318 -3.52101135 131.01020813 C-3.51728264 131.74098068 -3.51355392 132.47175323 -3.50971222 133.22467041 C-2.98815034 135.84194198 -2.34816841 136.65562591 -0.12660217 138.14717102 C2.90653035 138.60772535 2.90653035 138.60772535 6.44004822 138.5415802 C7.11019738 138.5476713 7.78034655 138.55376241 8.47080326 138.56003809 C10.72105809 138.57671516 12.97074998 138.57188586 15.22105408 138.5670929 C16.83237803 138.57443045 18.44369672 138.58301576 20.05500793 138.59275818 C24.43510369 138.61501407 28.81501156 138.6179029 33.1951561 138.61601067 C36.84847347 138.61589117 40.50175072 138.62444651 44.15505695 138.63278818 C52.77115861 138.65203628 61.38716337 138.65490068 70.00328064 138.64814758 C78.90061676 138.64150263 87.79753874 138.66438604 96.69479084 138.70146132 C104.32713118 138.73211505 111.959338 138.74352315 119.5917387 138.7396245 C124.15320997 138.7375528 128.71435894 138.74310085 133.27577209 138.76751709 C137.56377848 138.78971104 141.85110926 138.78796846 146.13911819 138.76758957 C147.71494695 138.76416659 149.29082055 138.76932383 150.86658859 138.78357315 C153.01410535 138.80165644 155.15930311 138.7891035 157.30674744 138.76863098 C159.11084328 138.76969975 159.11084328 138.76969975 160.9513855 138.7707901 C164.03787138 138.42779703 164.03787138 138.42779703 165.76000404 135.86921692 C166.8028364 133.31968092 167.24988773 131.69224075 167.25434875 128.97297668 C167.26703796 127.77448845 167.26703796 127.77448845 167.27998352 126.55178833 C167.27391083 125.68929977 167.26783813 124.82681122 167.26158142 123.93818665 C167.26683838 123.01889877 167.27209534 122.0996109 167.2775116 121.15246582 C167.29069559 118.11927712 167.28197906 115.0866149 167.27183533 112.05342102 C167.27385652 109.94262084 167.27676833 107.83182135 167.28053284 105.72102356 C167.28495403 101.29936569 167.27853161 96.87788976 167.26451111 92.45625305 C167.24741948 86.79007231 167.25726174 81.12431788 167.2752285 75.45815277 C167.28607179 71.10012096 167.28261746 66.74219013 167.27484512 62.38415527 C167.27284463 60.29497222 167.27529709 58.20577999 167.28228378 56.11660767 C167.28990708 53.19621004 167.27828145 50.27650172 167.26158142 47.3561554 C167.27069046 46.06242256 167.27069046 46.06242256 167.27998352 44.74255371 C167.23046477 40.06553727 166.92746285 36.93807079 163.87339783 33.14717102 C161.064203 31.74257361 158.73586755 32.01471082 155.59231567 32.00672913 C154.94076628 32.003758 154.28921688 32.00078688 153.61792356 31.99772573 C151.4246671 31.98902239 149.23146513 31.9875291 147.03819275 31.98603821 C145.46967451 31.98141116 143.90115739 31.97638666 142.3326416 31.97099304 C138.06396584 31.9578555 133.79530582 31.95142137 129.526613 31.94698238 C126.86081145 31.94405365 124.19501423 31.93994921 121.52921486 31.93547821 C113.19180133 31.9217993 104.85439765 31.91213475 96.51697367 31.90827632 C86.88672558 31.90379538 77.25661941 31.8862475 67.62641448 31.85727572 C60.18686417 31.83566998 52.74735381 31.82557262 45.30777246 31.8242352 C40.86254795 31.82318631 36.41745677 31.81726087 31.97226524 31.79941559 C27.7902993 31.78295416 23.60856719 31.78076995 19.42658043 31.7895546 C17.89190546 31.79032603 16.35721803 31.78596827 14.82257462 31.77609634 C12.72658089 31.76340456 10.63141879 31.76923771 8.53543091 31.77967834 C7.36274249 31.77821178 6.19005407 31.77674522 4.98182964 31.77523422 C1.48478605 32.19367004 -0.40379796 32.92066611 -3.12660217 35.14717102 Z " fill="#FFD600" transform="translate(313.12660217285156,-0.1471710205078125)"/>
</svg>
