<?xml version="1.0" encoding="UTF-8"?>
<svg version="1.1" xmlns="http://www.w3.org/2000/svg" width="32" height="32">
<path d="M0 0 C0.99 0 1.98 0 3 0 C2.835 0.598125 2.67 1.19625 2.5 1.8125 C1.8885876 4.11344336 1.8885876 4.11344336 2 7 C2.66 7.66 3.32 8.32 4 9 C4.62798271 12.07013768 4.64274123 14.02004595 2.890625 16.69140625 C-1.83738098 21.54814506 -6.64975877 21.70632578 -13.20703125 21.796875 C-16.14013889 21.70416979 -16.14013889 21.70416979 -18 24 C-18.99 24 -19.98 24 -21 24 C-20.835 23.401875 -20.67 22.80375 -20.5 22.1875 C-19.8885876 19.88655664 -19.8885876 19.88655664 -20 17 C-20.66 16.34 -21.32 15.68 -22 15 C-22.5625 12.25 -22.5625 12.25 -22 9 C-20.11802429 6.16097862 -18.07428176 4.46028384 -15 3 C-11.81254259 2.71657917 -8.85793526 2.80304882 -5.671875 3.08203125 C-2.9598927 3.28478206 -2.9598927 3.28478206 -1.328125 1.51171875 C-0.88984375 1.01285156 -0.4515625 0.51398437 0 0 Z M-19 10 C-18.42547254 13.93075644 -18.42547254 13.93075644 -16 17 C-13.49701566 14.06171403 -12.53069061 11.82097239 -12 8 C-10.35 8 -8.7 8 -7 8 C-6.67 7.34 -6.34 6.68 -6 6 C-11.71658336 5.54267333 -14.48649253 6.47726246 -19 10 Z M-3 8 C-3.185625 9.11375 -3.37125 10.2275 -3.5625 11.375 C-4.036875 12.57125 -4.51125 13.7675 -5 15 C-8.625 16.4375 -8.625 16.4375 -12 17 C-12 17.33 -12 17.66 -12 18 C-6.28341664 18.45732667 -3.51350747 17.52273754 1 14 C0.67 12.35 0.34 10.7 0 9 C-0.99 8.67 -1.98 8.34 -3 8 Z " fill="#FFD500" transform="translate(25,4)"/>
</svg>
