<?xml version="1.0" encoding="UTF-8"?>
<svg version="1.1" xmlns="http://www.w3.org/2000/svg" width="512" height="512">
<path d="M0 0 C1.92809225 -0.00457615 3.85618289 -0.0098859 5.78427124 -0.0158844 C9.78609943 -0.02473194 13.78772708 -0.02248296 17.78955078 -0.01245117 C22.90251766 -0.00087781 28.01480239 -0.02134253 33.12767982 -0.05036831 C37.09292941 -0.06873821 41.0580149 -0.06843786 45.02329636 -0.06273079 C46.90905094 -0.06257817 48.79481706 -0.06857268 50.68053055 -0.08102226 C53.31170817 -0.09597374 55.94161492 -0.08523121 58.57275391 -0.06811523 C59.72148987 -0.08261719 59.72148987 -0.08261719 60.89343262 -0.09741211 C67.40660557 -0.00911767 72.53020532 2.07878383 77.48046875 6.328125 C78.01027344 6.96105469 78.54007812 7.59398437 79.0859375 8.24609375 C79.62863281 8.87128906 80.17132813 9.49648437 80.73046875 10.140625 C84.69675372 16.0348257 85.71734845 20.95657054 85.66162109 27.90405273 C85.66950653 29.12989075 85.66950653 29.12989075 85.67755127 30.38049316 C85.69068175 33.0637563 85.6820372 35.74641903 85.671875 38.4296875 C85.67389793 40.30623996 85.67681119 42.18279165 85.68057251 44.05934143 C85.68498662 47.98568227 85.67859497 51.91181785 85.66455078 55.83813477 C85.64747131 60.85604187 85.65729807 65.87346708 85.67526817 70.89135647 C85.6861408 74.76483245 85.68264353 78.63819538 85.6748848 82.51167488 C85.67289179 84.36113607 85.67531028 86.21060772 85.68232346 88.06005669 C85.68999408 90.65155858 85.67825539 93.24229494 85.66162109 95.83374023 C85.66769379 96.58879349 85.67376648 97.34384674 85.68002319 98.1217804 C85.5893832 105.79434809 83.24100553 112.19127506 78.01953125 117.89453125 C72.50856726 122.75206998 66.08693693 124.5348113 58.8815918 124.60717773 C57.80334641 124.62066757 56.72510101 124.63415741 55.61418152 124.64805603 C53.87350151 124.66371361 53.87350151 124.66371361 52.09765625 124.6796875 C49.63606416 124.71262676 47.17447571 124.7458384 44.71289062 124.77929688 C40.8353933 124.82668824 36.95791062 124.87112441 33.08032227 124.91040039 C29.33594483 124.95019617 25.59186736 125.00172315 21.84765625 125.0546875 C20.11608528 125.06730873 20.11608528 125.06730873 18.34953308 125.08018494 C10.07033037 125.08089689 10.07033037 125.08089689 2.2734375 127.43359375 C-0.33996882 132.13880991 -0.0685066 137.50023504 -0.140625 142.76953125 C-0.15999115 143.64888336 -0.1793573 144.52823547 -0.1993103 145.43423462 C-0.25879065 148.22559093 -0.3053646 151.01698918 -0.3515625 153.80859375 C-0.38977135 155.70835069 -0.42882476 157.60809085 -0.46875 159.5078125 C-0.56446607 164.14960225 -0.6486129 168.79147304 -0.7265625 173.43359375 C0.05302826 173.42249069 0.83261902 173.41138763 1.63583374 173.39994812 C9.02016758 173.29932993 16.40416419 173.2234197 23.78900719 173.17453289 C27.58473579 173.14855359 31.37989308 173.11337368 35.17529297 173.05639648 C38.8452571 173.00165367 42.51467539 172.97208571 46.18501663 172.95920753 C47.57796434 172.95004259 48.97088567 172.93214714 50.36359787 172.90494347 C59.92339545 172.72581636 67.89803599 173.47730697 75.17782593 180.1894989 C81.16006196 186.50724363 82.72459908 193.02157989 82.66162109 201.45483398 C82.66950653 202.76845413 82.66950653 202.76845413 82.67755127 204.10861206 C82.69069165 206.98665514 82.68203357 209.86413935 82.671875 212.7421875 C82.67389763 214.75326137 82.67681064 216.76433452 82.68057251 218.77540588 C82.68498795 222.98421227 82.67859055 227.19282725 82.66455078 231.40161133 C82.6474705 236.78271213 82.65729783 242.16336361 82.67526817 247.5444479 C82.68613646 251.69586031 82.68264551 255.84716716 82.6748848 259.99858284 C82.67289064 261.98201616 82.67531438 263.96545921 82.68232346 265.94888115 C82.68998687 268.72716329 82.67826502 271.5047298 82.66162109 274.28295898 C82.66769379 275.09411667 82.67376648 275.90527435 82.68002319 276.74101257 C82.59992554 283.99919527 80.86635862 290.49758123 75.859375 296.05078125 C69.35621171 301.72102707 62.57796024 303.56465901 54.10620117 303.54711914 C52.88531296 303.54704361 51.66442474 303.54696808 50.40653992 303.54689026 C49.09804581 303.54172897 47.7895517 303.53656769 46.44140625 303.53125 C45.08091789 303.52938336 43.72042885 303.52796062 42.35993958 303.52696228 C38.79088463 303.5231565 35.22187081 303.51334289 31.65283203 303.5022583 C28.00619055 303.49200238 24.35954239 303.48745572 20.71289062 303.48242188 C13.56638949 303.47171878 6.41991619 303.45466579 -0.7265625 303.43359375 C-0.72379712 304.39419929 -0.72103174 305.35480482 -0.71818256 306.34451962 C-0.65154894 329.73090978 -0.60226861 353.11728762 -0.57112598 376.50375271 C-0.5556649 387.81332717 -0.5345898 399.12283887 -0.50024414 410.43237305 C-0.47031865 420.29111637 -0.45098199 430.14981424 -0.44429702 440.00860173 C-0.44039012 445.22752165 -0.43122401 450.44631154 -0.40937233 455.66518974 C-0.38895749 460.58089251 -0.38273882 465.49641211 -0.38723946 470.41215324 C-0.38641649 472.21283464 -0.38048071 474.01352238 -0.36894608 475.81416702 C-0.23785664 497.34042121 -0.23785664 497.34042121 -6.9140625 504.74609375 C-7.44386719 505.36097656 -7.97367188 505.97585938 -8.51953125 506.609375 C-14.71495098 511.73019095 -20.51513511 513.02503333 -28.41210938 512.95117188 C-29.34652359 512.95818115 -30.28093781 512.96519043 -31.2436676 512.97241211 C-34.31119107 512.98991788 -37.37778077 512.97839555 -40.4453125 512.96484375 C-42.58947933 512.96754079 -44.73364496 512.97142497 -46.87780762 512.97644043 C-51.36315601 512.98232545 -55.84818494 512.97380446 -60.33349609 512.95507812 C-66.07002952 512.93228948 -71.80581426 512.94541787 -77.54232025 512.96936798 C-81.96740311 512.98385275 -86.39230977 512.97920763 -90.81739807 512.96885681 C-92.93201283 512.96619694 -95.04664382 512.96943312 -97.16123962 512.97877502 C-100.12159328 512.98898461 -103.08075059 512.97337757 -106.04101562 512.95117188 C-106.9067067 512.9592688 -107.77239777 512.96736572 -108.6643219 512.97570801 C-115.51110637 512.88102181 -120.64065724 510.98424465 -125.93359375 506.609375 C-126.72830078 505.68705078 -126.72830078 505.68705078 -127.5390625 504.74609375 C-128.35310547 503.84310547 -128.35310547 503.84310547 -129.18359375 502.921875 C-134.91976844 493.67138569 -134.13414105 483.61363778 -134.06713867 473.15405273 C-134.06629156 471.30053216 -134.06676919 469.44701059 -134.06846619 467.5934906 C-134.06932427 462.58169765 -134.05172871 457.57012163 -134.03074431 452.55837893 C-134.01194641 447.31334973 -134.01022462 442.06831514 -134.00666809 436.82325745 C-133.99735677 426.89995536 -133.97275533 416.97675283 -133.94261962 407.05349451 C-133.90904719 395.75242659 -133.89258245 384.45135382 -133.87753332 373.15024841 C-133.84620499 349.9113084 -133.79346224 326.67245666 -133.7265625 303.43359375 C-134.34550888 303.44025558 -134.96445526 303.44691742 -135.60215759 303.45378113 C-142.07529478 303.52042733 -148.54833362 303.56551545 -155.02172852 303.59838867 C-157.4338782 303.6134252 -159.84600078 303.63385974 -162.25805664 303.65991211 C-165.73590814 303.69652107 -169.21339644 303.71337204 -172.69140625 303.7265625 C-174.29507301 303.74978828 -174.29507301 303.74978828 -175.93113708 303.77348328 C-184.00769338 303.77527682 -191.81162881 302.86011855 -198.0390625 297.24609375 C-198.65394531 296.71628906 -199.26882812 296.18648438 -199.90234375 295.640625 C-204.94347742 289.54160888 -206.31934637 283.80358435 -206.24414062 276.0234375 C-206.2511499 275.118284 -206.25815918 274.21313049 -206.26538086 273.2805481 C-206.28288021 270.31041108 -206.27136674 267.34123922 -206.2578125 264.37109375 C-206.26050973 262.29418761 -206.26439407 260.2172827 -206.26940918 258.14038086 C-206.27529332 253.79626392 -206.26677609 249.4524769 -206.24804688 245.10839844 C-206.22525821 239.55345903 -206.23838709 233.99929279 -206.26233673 228.44438171 C-206.27682391 224.15826645 -206.27217529 219.87233304 -206.26182556 215.58621216 C-206.25916636 213.53858345 -206.26239952 211.49093797 -206.27174377 209.44332886 C-206.28195744 206.57636072 -206.26634099 203.71062674 -206.24414062 200.84375 C-206.25223755 200.00611115 -206.26033447 199.16847229 -206.26867676 198.30545044 C-206.16614545 191.12084377 -203.99654511 185.98732418 -199.2265625 180.62109375 C-191.3098212 173.69394512 -184.85542831 173.1439741 -174.546875 173.23828125 C-173.3789743 173.24111115 -172.21107361 173.24394104 -171.00778198 173.24685669 C-167.28893659 173.25802402 -163.57033473 173.28312271 -159.8515625 173.30859375 C-157.32552432 173.31862799 -154.79948235 173.32775306 -152.2734375 173.3359375 C-146.09106317 173.3579521 -139.90883024 173.3913956 -133.7265625 173.43359375 C-133.73655525 172.57393005 -133.73655525 172.57393005 -133.74674988 171.69689941 C-133.81443083 165.59454107 -133.85889655 159.49229322 -133.89135742 153.38964844 C-133.90621214 151.12853652 -133.92650134 148.86745214 -133.95288086 146.60644531 C-134.41310605 106.07053266 -127.54396156 67.4762739 -98.5390625 37.28125 C-90.31099547 28.89691788 -82.01929246 22.15974665 -71.7265625 16.43359375 C-70.10814453 15.52287109 -70.10814453 15.52287109 -68.45703125 14.59375 C-61.97273193 11.14401218 -55.44846164 8.45887568 -48.4765625 6.18359375 C-47.7757959 5.94946777 -47.0750293 5.7153418 -46.35302734 5.47412109 C-31.1609996 0.78023877 -15.77347817 -0.03334629 0 0 Z M-28.2890625 33.12109375 C-29.08078857 33.29552002 -29.87251465 33.46994629 -30.68823242 33.6496582 C-53.45276721 38.94666273 -74.34923786 52.26831441 -86.91162109 72.32568359 C-99.67532228 93.84400794 -102.91043281 116.40267123 -103.09765625 141.11328125 C-103.10608173 142.21583 -103.10608173 142.21583 -103.11467743 143.34065247 C-103.15527545 149.44532196 -103.1654314 155.5499925 -103.16320801 161.65478516 C-103.16153834 166.2497032 -103.17527337 170.84400442 -103.21168709 175.43878555 C-103.22240431 177.56333655 -103.21046888 179.68697306 -103.19786072 181.81149292 C-103.29528374 194.3646421 -103.29528374 194.3646421 -107.7265625 199.43359375 C-114.02399661 204.57298431 -121.6701191 204.03588464 -129.4140625 204.04296875 C-130.56583984 204.05859863 -131.71761719 204.07422852 -132.90429688 204.09033203 C-137.17817816 204.14265838 -141.45241982 204.16115129 -145.7265625 204.18359375 C-155.2965625 204.26609375 -164.8665625 204.34859375 -174.7265625 204.43359375 C-174.7265625 226.87359375 -174.7265625 249.31359375 -174.7265625 272.43359375 C-154.92177416 272.60399851 -154.92177416 272.60399851 -135.11669922 272.73144531 C-132.62986397 272.76081552 -130.1430453 272.79164138 -127.65625 272.82421875 C-125.72664429 272.82591064 -125.72664429 272.82591064 -123.75805664 272.82763672 C-112.47322603 273.00833504 -112.47322603 273.00833504 -107.7265625 277.43359375 C-103.65255088 282.06953801 -103.57597008 286.37272953 -103.56834412 292.311203 C-103.56093715 293.52786297 -103.56093715 293.52786297 -103.55338055 294.76910192 C-103.53798162 297.49604957 -103.52963844 300.22297363 -103.52124023 302.94995117 C-103.51166359 304.90110991 -103.50165364 306.85226656 -103.49124146 308.80342102 C-103.46416314 314.10884599 -103.44316942 319.41427987 -103.42323947 324.71973586 C-103.40139796 330.26111595 -103.3740003 335.80246845 -103.34718323 341.34382629 C-103.29723149 351.84100401 -103.25230187 362.33819702 -103.20916086 372.83540469 C-103.15980968 384.78447917 -103.1048837 396.73352596 -103.04948127 408.68257368 C-102.93562314 433.2662225 -102.82952844 457.84989673 -102.7265625 482.43359375 C-79.2965625 482.43359375 -55.8665625 482.43359375 -31.7265625 482.43359375 C-31.71197998 476.46700684 -31.69739746 470.50041992 -31.68237305 464.35302734 C-31.63209789 444.66746025 -31.56566647 424.98197238 -31.49084759 405.29648399 C-31.44586914 393.35798398 -31.40645916 381.41951393 -31.38012695 369.48095703 C-31.35716352 359.07613139 -31.32378395 348.67140042 -31.27786094 338.26664984 C-31.25390649 332.7566745 -31.23519224 327.24679306 -31.22894859 321.73676682 C-31.22290785 316.55097669 -31.20294438 311.36542688 -31.17228699 306.17972565 C-31.16349059 304.27622012 -31.15978749 302.37268321 -31.16155434 300.46915817 C-31.16320531 297.86981604 -31.14652298 295.27120802 -31.12528992 292.67196655 C-31.13256128 291.54257048 -31.13256128 291.54257048 -31.13997954 290.39035833 C-31.07636659 285.67038989 -30.21958686 282.4426419 -27.7265625 278.43359375 C-22.90441124 274.08189627 -20.33117721 273.30682076 -13.89013672 273.22827148 C-13.18758759 273.21837189 -12.48503845 273.20847229 -11.76119995 273.19827271 C-9.43458447 273.16663695 -7.10794856 273.14189216 -4.78125 273.1171875 C-3.16984521 273.09661976 -1.55844584 273.07562333 0.052948 273.05421448 C4.29766456 272.99897521 8.54242997 272.94957414 12.78723145 272.90136719 C17.87839612 272.84234195 22.96947139 272.77610379 28.06056213 272.7110672 C35.79813273 272.61303433 43.53576022 272.52419436 51.2734375 272.43359375 C51.2734375 249.99359375 51.2734375 227.55359375 51.2734375 204.43359375 C46.313125 204.4078125 41.3528125 204.38203125 36.2421875 204.35546875 C33.08849091 204.33028436 29.93488872 204.3039394 26.78125 204.2734375 C21.78222367 204.22519686 16.783416 204.18111698 11.78417969 204.16259766 C7.75090812 204.14738671 3.71821093 204.11286364 -0.31480408 204.06528473 C-1.84882091 204.05051641 -3.38291976 204.04255536 -4.91700745 204.0417099 C-21.41922928 204.02347858 -21.41922928 204.02347858 -26.7265625 199.43359375 C-32.05716581 193.23221454 -31.29034079 186.24885831 -31.22265625 178.390625 C-31.22281156 177.01690087 -31.22430577 175.64317632 -31.22706604 174.26945496 C-31.22844628 171.39550302 -31.21596414 168.52205233 -31.19311523 165.64819336 C-31.16486554 161.99821085 -31.16743601 158.34906849 -31.18020535 154.69902515 C-31.18722853 151.86161877 -31.17929635 149.02439985 -31.16694832 146.18701744 C-31.16034559 144.19767192 -31.16453951 142.20829973 -31.16905212 140.21894836 C-31.0424649 127.86571326 -29.2793278 115.71300233 -20.75390625 106.2421875 C-10.02952893 95.97175207 3.43387949 94.18459569 17.75 94.01953125 C18.68352295 94.00188721 19.6170459 93.98424316 20.57885742 93.96606445 C24.01855218 93.90367715 27.45851792 93.85702392 30.8984375 93.80859375 C38.6121875 93.68484375 46.3259375 93.56109375 54.2734375 93.43359375 C54.2734375 72.97359375 54.2734375 52.51359375 54.2734375 31.43359375 C45.1984375 31.24796875 36.1234375 31.06234375 26.7734375 30.87109375 C23.94330078 30.80978271 21.11316406 30.74847168 18.19726562 30.68530273 C-5.17862478 30.04027858 -5.17862478 30.04027858 -28.2890625 33.12109375 Z " fill="#FFD500" transform="translate(311.7265625,-0.43359375)"/>
</svg>
