<?xml version="1.0" encoding="UTF-8"?>
<svg version="1.1" xmlns="http://www.w3.org/2000/svg" width="512" height="512">
<path d="M0 0 C1.40577194 -0.00258858 2.81154314 -0.0056031 4.21731335 -0.0090034 C8.05738018 -0.01701888 11.89742826 -0.01885991 15.73750246 -0.01960087 C19.8883815 -0.02146101 24.03925103 -0.02901313 28.19012451 -0.03573608 C37.2566333 -0.04928141 46.32313765 -0.05533827 55.38965487 -0.05974674 C61.05872169 -0.06251578 66.72778682 -0.06675433 72.39685249 -0.07125092 C88.11534613 -0.08343893 103.83383843 -0.09373896 119.55233669 -0.09712601 C121.05952493 -0.09745536 121.05952493 -0.09745536 122.59716142 -0.09779136 C123.6042589 -0.09800964 124.61135638 -0.09822791 125.64897197 -0.09845281 C127.68948901 -0.09889626 129.73000604 -0.09934282 131.77052307 -0.09979248 C132.78267441 -0.10001391 133.79482575 -0.10023534 134.83764834 -0.10046348 C151.22330853 -0.10440812 167.60892416 -0.12185405 183.99456715 -0.145152 C200.84685217 -0.16891858 217.69911489 -0.18133028 234.55141693 -0.18249393 C244.00144986 -0.18340774 253.45142473 -0.18908569 262.90144157 -0.20731354 C270.95109572 -0.22278637 279.00067384 -0.22779295 287.05034005 -0.21957543 C291.14993511 -0.21569411 295.24937742 -0.21647377 299.34895325 -0.23063278 C331.59736518 -0.33536517 360.15934992 1.64030146 384.6408844 24.83966064 C405.03069965 45.2294759 414.42173592 68.98535267 414.48377991 97.50144958 C414.47600571 99.73202659 414.46781323 101.96260217 414.45924377 104.19317627 C414.4646742 106.58334274 414.47180199 108.97350585 414.48048401 111.36366272 C414.49861066 117.81201561 414.49169395 124.26011049 414.47896767 130.70846748 C414.47181914 134.74567247 414.47321156 138.78284507 414.47692871 142.8200531 C414.47754164 143.4932292 414.47815458 144.1664053 414.47878608 144.85998067 C414.48006516 146.22812944 414.48136202 147.5962782 414.48267645 148.96442693 C414.49404403 161.7510055 414.48102889 174.53746878 414.45947498 187.32402843 C414.44160746 198.26175125 414.44471264 209.19930417 414.46315002 220.13702393 C414.48462468 232.88227009 414.49294575 245.62741559 414.48070097 258.37267733 C414.47942696 259.7353951 414.47816948 261.09811289 414.47692871 262.46083069 C414.47631161 263.13106651 414.47569451 263.80130233 414.4750587 264.49184832 C414.4716255 269.18286403 414.47758889 273.87379577 414.48684692 278.56480408 C414.49846915 284.89500667 414.49026365 291.22489094 414.4672699 297.55505943 C414.46201674 299.8672044 414.46343777 302.17937652 414.47232056 304.49151039 C414.56877957 332.16758823 407.55964585 356.22592651 387.80885315 376.39434814 C367.65051197 395.70131525 342.70612479 402.48935358 315.29273987 402.39440918 C313.87170185 402.39671998 312.45066503 402.39990062 311.02963066 402.40386367 C307.16611551 402.41213532 303.30270043 402.40812155 299.43918514 402.40189123 C295.25643202 402.39733616 291.07369523 402.40436554 286.89094543 402.40985107 C278.7132598 402.41871432 270.53561102 402.41683679 262.35792398 402.41102579 C255.70791733 402.40649718 249.05792096 402.40590157 242.40791321 402.40807343 C240.98473528 402.40853312 240.98473528 402.40853312 239.53280628 402.40900211 C237.60497999 402.4096416 235.6771537 402.41029003 233.74932742 402.41094729 C215.69938704 402.4166416 197.64946702 402.41010684 179.59952998 402.39934656 C164.13348689 402.39041187 148.66747383 402.39196417 133.20143127 402.40118408 C115.21323465 402.41190263 97.22505584 402.41609236 79.23685646 402.40995955 C77.31637701 402.4093225 75.39589755 402.40869376 73.47541809 402.40807343 C72.05828689 402.4076106 72.05828689 402.4076106 70.61252677 402.40713842 C63.97547022 402.40541623 57.33842503 402.40831629 50.70137024 402.41303253 C42.60592977 402.41865899 34.51052806 402.41708792 26.41509199 402.40647104 C22.28979581 402.40123802 18.1645641 402.39911688 14.03926849 402.40576935 C10.25431798 402.41178038 6.46949097 402.40836986 2.68455148 402.39781424 C0.68539615 402.39456335 -1.31376792 402.4010048 -3.31291389 402.40792871 C-26.69240051 402.30777866 -48.06107278 396.5528185 -66.05833435 381.14044189 C-66.86915466 380.47399658 -67.67997498 379.80755127 -68.5153656 379.12091064 C-83.21837136 366.58609006 -92.40928819 349.76289234 -97.05833435 331.14044189 C-97.2345592 330.46346913 -97.41078405 329.78649637 -97.59234905 329.08900928 C-98.27180382 324.78969302 -98.20635477 320.54014079 -98.20550537 316.1938324 C-98.20918206 315.18404479 -98.21285875 314.17425718 -98.21664685 313.13386995 C-98.22767142 309.74567459 -98.23152552 306.35750992 -98.2353363 302.96929932 C-98.24160206 300.54135033 -98.24824896 298.1134023 -98.25524902 295.68545532 C-98.27446802 288.39485233 -98.28507785 281.10425189 -98.29397681 273.81363127 C-98.29836598 270.37433738 -98.3037313 266.93504502 -98.30896568 263.49575233 C-98.32597815 252.05119617 -98.34046878 240.60664095 -98.34771442 229.16207409 C-98.34962411 226.19400723 -98.35154447 223.22594037 -98.35350037 220.25787354 C-98.35422598 219.15141563 -98.35422598 219.15141563 -98.35496625 218.02260504 C-98.3632533 206.09324266 -98.38856765 194.16398098 -98.42108104 182.2346625 C-98.45424181 169.96701033 -98.47217146 157.69940916 -98.47535866 145.43171197 C-98.47751588 138.55210488 -98.48614758 131.67264447 -98.51181984 124.79308128 C-98.53594672 118.31288897 -98.53929622 111.83288811 -98.52905846 105.35265732 C-98.52856519 102.9840679 -98.53482327 100.61546514 -98.5486145 98.24691582 C-98.69790135 71.07020114 -92.38020316 47.51541381 -73.29270935 27.37481689 C-52.47722651 6.55933405 -28.767269 -0.01934349 0 0 Z M-12.05833435 52.14044189 C-9.03295929 55.92216072 -6.85359112 58.30801293 -3.18333435 61.20294189 C1.26645987 64.76871033 5.62643026 68.41311163 9.94166565 72.14044189 C14.06589131 75.69548204 18.21376472 79.20838114 22.44166565 82.64044189 C26.66959045 86.07252203 30.81694455 89.58595361 34.94166565 93.14044189 C39.95758253 97.46217053 45.03341864 101.69523386 50.1721344 105.87091064 C56.04965976 110.68733128 61.81778479 115.63538489 67.60768127 120.55645752 C73.16234599 125.275638 78.7222649 129.98119239 84.37916565 134.57794189 C89.24215989 138.53487607 93.99866768 142.60480131 98.74781799 146.69659424 C103.16000188 150.49037184 107.63921639 154.19178448 112.16041565 157.85528564 C114.74638009 159.97998958 117.2895551 162.145454 119.82691956 164.32745361 C131.52075617 174.3531738 143.20154384 183.61972133 159.35572815 183.35137939 C174.88599202 182.08456029 184.94891109 173.61842499 196.12281799 163.74151611 C199.05813657 161.15764776 202.03177232 158.61896561 205.00416565 156.07794189 C205.58392151 155.58084717 206.16367737 155.08375244 206.76100159 154.57159424 C211.17397552 150.78886896 215.60895252 147.03272104 220.04957581 143.28253174 C225.78335329 138.43647547 231.47989718 133.54730408 237.17555237 128.65655518 C240.67660757 125.65108755 244.1805491 122.64898374 247.68482971 119.64727783 C250.64217817 117.11358981 253.59696244 114.5770154 256.5471344 112.03497314 C261.88001887 107.44437637 267.2235251 102.88282791 272.69166565 98.45294189 C277.06674312 94.90298868 281.24715757 91.18480369 285.41041565 87.39044189 C288.91966051 84.27111313 292.57328688 81.34295057 296.22291565 78.39044189 C298.86314294 76.2054262 301.40896285 73.94872799 303.94166565 71.64044189 C309.1103507 66.9326587 314.50373351 62.53163593 319.94166565 58.14044189 C321.96962238 56.49932084 323.96812373 54.84728896 325.94166565 53.14044189 C325.94166565 52.81044189 325.94166565 52.48044189 325.94166565 52.14044189 C214.40166565 52.14044189 102.86166565 52.14044189 -12.05833435 52.14044189 Z M-47.05833435 92.14044189 C-47.14971639 120.71019009 -47.22044083 149.2799198 -47.26259567 177.8497857 C-47.26759809 181.22783996 -47.27277542 184.60589393 -47.27806091 187.98394775 C-47.27911015 188.65641666 -47.2801594 189.32888556 -47.28124043 190.02173231 C-47.29861397 200.88969267 -47.33013468 211.75756783 -47.36694553 222.62547775 C-47.40444016 233.78892147 -47.42628903 244.9523362 -47.43468833 256.11584359 C-47.43989287 262.38120485 -47.45208443 268.64637327 -47.48125458 274.91167259 C-47.50851819 280.8156251 -47.51675718 286.71930633 -47.51076508 292.62331581 C-47.51186042 294.78353477 -47.5197486 296.94376333 -47.53515625 299.10392761 C-47.64621396 315.48563092 -46.98507543 328.97021471 -34.98802185 341.26153564 C-27.50265192 348.36872486 -19.60557085 352.25674139 -9.24011135 352.27466297 C-7.44613357 352.28134974 -7.44613357 352.28134974 -5.61591381 352.28817159 C-3.64275293 352.28789505 -3.64275293 352.28789505 -1.62973022 352.28761292 C-0.21931007 352.29091266 1.19110914 352.29463847 2.60152715 352.29875439 C6.48199426 352.30877003 10.3624459 352.31249049 14.24292409 352.3151437 C18.42647736 352.31904808 22.61001839 352.32862637 26.79356384 352.33735657 C36.89956193 352.3571178 47.00556102 352.36718702 57.11157361 352.37608436 C61.87147614 352.38046805 66.63137756 352.38583467 71.39127922 352.39107323 C87.21591619 352.4080856 103.04055247 352.42257938 118.86519718 352.42982197 C122.97165999 352.43173184 127.07812279 352.43365218 131.18458557 352.43560791 C132.20521902 352.43609165 133.22585246 352.43657539 134.2774142 352.43707379 C150.80790476 352.4453726 167.33832292 352.47070696 183.86878187 352.50318859 C200.84287935 352.53626981 217.81694004 352.55427171 234.79106992 352.55746621 C244.32032379 352.55963038 253.8494721 352.56836542 263.37869453 352.59392738 C271.49497872 352.61564893 279.61113171 352.62367766 287.72744168 352.6139606 C291.86655444 352.60942004 296.00539658 352.61128777 300.14447212 352.63072205 C303.939026 352.64838432 307.73311245 352.64733154 311.52767151 352.63182475 C313.53948261 352.62833596 315.55129878 352.6444521 317.56304127 352.66142923 C330.13420362 352.57259024 341.16409109 349.00243464 350.13697815 339.91778564 C360.88922244 327.39995143 360.50586981 314.57136197 360.39576721 298.87017822 C360.39463772 296.61242696 360.39527458 294.35467424 360.39753723 292.09692383 C360.39868132 285.99226803 360.37522111 279.88792886 360.3472414 273.78334641 C360.32217701 267.39455679 360.31988177 261.00575931 360.31513977 254.6169281 C360.3041339 243.90163686 360.2791768 233.18648351 360.24342346 222.47125244 C360.20665202 211.43935724 360.17836547 200.40749351 360.16139221 189.37554932 C360.15981587 188.35385127 360.15981587 188.35385127 360.15820768 187.31151287 C360.15298716 183.89413772 360.14793242 180.47676236 360.14296007 177.05938685 C360.10155961 148.75299236 360.03086593 120.44672335 359.94166565 92.14044189 C355.19511274 95.2538358 355.19511274 95.2538358 350.7502594 98.76934814 C350.20474426 99.24138672 349.65922913 99.71342529 349.09718323 100.19976807 C348.24676453 100.94383911 348.24676453 100.94383911 347.37916565 101.70294189 C346.14249122 102.77360649 344.90550489 103.84391091 343.66822815 104.91387939 C343.04722229 105.45238525 342.42621643 105.99089111 341.78639221 106.54571533 C338.95756736 108.99117376 336.10862838 111.41249536 333.25416565 113.82794189 C332.71646545 114.28314209 332.17876526 114.73834229 331.62477112 115.20733643 C328.27877295 118.03214474 324.90223627 120.81576753 321.50416565 123.57794189 C317.25774183 127.0331834 313.08870271 130.56742024 308.94166565 134.14044189 C303.92570162 138.46211731 298.84991457 142.6952323 293.7111969 146.87091064 C288.39724899 151.22549984 283.17639799 155.69122625 277.94166565 160.14044189 C271.8327853 165.33263211 265.72655924 170.5216777 259.50416565 175.57794189 C255.25774183 179.0331834 251.08870271 182.56742024 246.94166565 186.14044189 C241.92473213 190.46295261 236.85286845 194.70231219 231.7033844 198.86700439 C229.73966469 200.4835318 227.81127828 202.11439119 225.8986969 203.78887939 C209.60189268 218.01943239 192.54673846 228.3420817 170.94166565 232.14044189 C169.89172424 232.33573486 169.89172424 232.33573486 168.8205719 232.53497314 C145.14231812 236.22700856 119.58524648 228.62709999 100.41041565 214.63653564 C92.80409472 208.85304075 85.65064697 202.49024943 78.46510315 196.19903564 C74.6347813 192.85547957 70.70125639 189.64858001 66.7502594 186.44903564 C63.43867971 183.72700005 60.18856565 180.9390105 56.94166565 178.14044189 C51.9257959 173.81866007 46.84991075 169.58564838 41.7111969 165.40997314 C35.83367154 160.59355251 30.06554651 155.64549889 24.27565002 150.72442627 C18.72098531 146.00524579 13.1610664 141.2996914 7.50416565 136.70294189 C2.64117141 132.74600772 -2.11533638 128.67608248 -6.86448669 124.58428955 C-11.27726718 120.78999897 -15.75856019 117.08967033 -20.27708435 113.42169189 C-23.42217771 110.84200858 -26.52295229 108.2139185 -29.62083435 105.57794189 C-37.83528095 97.12009231 -37.83528095 97.12009231 -47.05833435 92.14044189 Z " fill="#FFD600" transform="translate(98.05833435058594,54.85955810546875)"/>
</svg>
