<?xml version="1.0" encoding="UTF-8"?>
<svg version="1.1" xmlns="http://www.w3.org/2000/svg" width="512" height="512">
<path d="M0 0 C1.04808838 0.00684814 2.09617676 0.01369629 3.17602539 0.02075195 C18.88955702 0.344905 31.31916368 5.21909778 42.82421875 15.97265625 C48.44944905 21.83963199 52.04595223 27.98429095 55.1875 35.4375 C56.36256104 35.45208252 57.53762207 35.46666504 58.74829102 35.48168945 C63.13010272 35.53989511 67.51141248 35.61712608 71.89282227 35.69995117 C73.78499167 35.73309607 75.67725746 35.76116017 77.56958008 35.78393555 C80.29810454 35.81767421 83.025754 35.86999865 85.75390625 35.92578125 C87.01213951 35.93536613 87.01213951 35.93536613 88.29579163 35.94514465 C94.20005244 36.09117699 99.56834254 36.69400812 103.86280823 41.19233704 C105.52805037 44.01468414 105.53252997 45.81562161 105.48046875 49.078125 C105.47080078 50.14804687 105.46113281 51.21796875 105.45117188 52.3203125 C105.42603516 53.43148437 105.40089844 54.54265625 105.375 55.6875 C105.36146484 56.81414063 105.34792969 57.94078125 105.33398438 59.1015625 C105.29865645 61.88069264 105.2493252 64.65885363 105.1875 67.4375 C106.17776436 67.42417633 106.17776436 67.42417633 107.18803406 67.4105835 C114.11590842 67.32146178 121.04361753 67.26149894 127.97192383 67.21777344 C130.55076726 67.19777115 133.129566 67.17056044 135.70825195 67.13574219 C139.43452039 67.08672183 143.16018447 67.06441626 146.88671875 67.046875 C148.59066048 67.01590729 148.59066048 67.01590729 150.32902527 66.98431396 C165.13703197 66.98024741 177.5710656 72.0928408 188.4375 82.125 C198.81590388 93.14273061 203.30624686 106.85038956 203.31613445 121.78104019 C203.3193589 123.01783248 203.32258335 124.25462477 203.3259055 125.52889562 C203.3244346 126.8880993 203.3228669 128.24730288 203.32121277 129.60650635 C203.32308221 131.06076324 203.32538345 132.51501964 203.32807809 133.96927524 C203.334186 137.95698436 203.33406368 141.94467248 203.33288372 145.93238521 C203.33267945 150.23653787 203.33820092 154.54068384 203.34294128 158.84483337 C203.35124295 167.27445904 203.35399591 175.70407772 203.35455366 184.13370714 C203.35502907 190.98699422 203.35708504 197.84027901 203.36025429 204.69356537 C203.36905966 224.13063473 203.37367386 243.56769858 203.37292381 263.00476995 C203.37286388 264.57611244 203.37286388 264.57611244 203.37280273 266.17919922 C203.37276185 267.22804231 203.37272097 268.2768854 203.37267885 269.35751161 C203.37227245 286.35337621 203.38184085 303.34921864 203.3959411 320.34507683 C203.41031015 337.80291471 203.41721099 355.26074179 203.41634732 372.71858573 C203.41601553 382.51715515 203.4187549 392.31570135 203.42952538 402.11426544 C203.43863734 410.45735845 203.4407999 418.8004177 203.43401595 427.14351353 C203.43075423 431.39800837 203.43068149 435.65243846 203.4393692 439.90692711 C203.44725053 443.80672087 203.44578616 447.70639871 203.43708507 451.6061897 C203.43555367 453.01195474 203.43735259 454.41772851 203.44294515 455.82348326 C203.50064839 471.36554448 201.52043905 485.88609467 190.625 497.8125 C178.48929428 508.76998186 164.88125144 512.90448481 148.84133911 512.82518005 C146.86886713 512.83325836 146.86886713 512.83325836 144.85654724 512.84149987 C141.2309292 512.85588426 137.60553984 512.85173189 133.97990966 512.84433305 C130.06023416 512.8395862 126.14060705 512.85212461 122.22094727 512.86235046 C114.55138025 512.8795143 106.88189525 512.88038348 99.21231402 512.87513756 C92.97599546 512.87109004 86.73970106 512.87254632 80.50338364 512.87788582 C79.61453689 512.87863424 78.72569015 512.87938266 77.80990865 512.88015376 C76.00399876 512.8816853 74.19808888 512.88322365 72.392179 512.88476873 C55.47063786 512.89848509 38.549143 512.89306221 21.62760292 512.88158352 C6.1619016 512.87165253 -9.30368005 512.88459102 -24.76936291 512.90851771 C-40.66676434 512.93292615 -56.56411007 512.94251226 -72.46152985 512.93586498 C-81.37982356 512.93237658 -90.29802528 512.93457976 -99.21630478 512.95211601 C-106.80835252 512.96685985 -114.40024348 512.96744501 -121.99228822 512.9500451 C-125.86220174 512.94155054 -129.73183545 512.93934741 -133.60173416 512.95469666 C-137.80550535 512.97116308 -142.00860546 512.95635607 -146.21237183 512.93870544 C-147.42348188 512.94831045 -148.63459194 512.95791546 -149.8824023 512.96781152 C-164.21527527 512.84435218 -177.42579181 507.50222586 -188.125 497.875 C-199.72556442 485.37835858 -201.12156766 470.09095515 -201.07319641 453.80766296 C-201.07622233 452.35209054 -201.08011401 450.89651971 -201.08478898 449.44095165 C-201.09502102 445.46804976 -201.09289947 441.49523861 -201.08860838 437.52232945 C-201.08613239 433.22704492 -201.09516614 428.93178174 -201.10264587 424.63650513 C-201.11537084 416.23181445 -201.11718931 407.82715575 -201.11484561 399.42245706 C-201.11305978 392.58788151 -201.11481778 385.75331563 -201.11907005 378.91874123 C-201.11996284 377.45748621 -201.11996284 377.45748621 -201.12087366 375.9667109 C-201.12208546 373.98742701 -201.12329959 372.00814312 -201.12451603 370.02885924 C-201.13538315 351.48248867 -201.13323304 332.93613629 -201.12713119 314.3897647 C-201.12196314 297.44143335 -201.133216 280.4931595 -201.15222941 263.54483952 C-201.17162469 246.12188705 -201.17986082 228.69896175 -201.17610615 211.27599841 C-201.17419663 201.50253425 -201.17665738 191.72911901 -201.19082069 181.95566368 C-201.20275704 173.63506242 -201.20411417 165.3145402 -201.19203053 156.99393781 C-201.18615756 152.75319258 -201.18499836 148.51259177 -201.19703293 144.27185631 C-201.20794503 140.38126478 -201.20472575 136.49093732 -201.19077124 132.60035787 C-201.18813887 131.20138907 -201.19044435 129.80239921 -201.19850711 128.40345117 C-201.29400204 110.58136975 -197.84595178 94.8563073 -185.23046875 81.69140625 C-175.92356511 73.0159888 -165.08960714 67.29433424 -152.19604492 67.32397461 C-151.09528122 67.32405014 -149.99451752 67.32412567 -148.86039734 67.32420349 C-147.09452019 67.33194542 -147.09452019 67.33194542 -145.29296875 67.33984375 C-144.07926102 67.3412587 -142.86555328 67.34267365 -141.61506653 67.34413147 C-137.74335248 67.34972335 -133.87169653 67.36227442 -130 67.375 C-127.37304771 67.38001605 -124.74609451 67.38457877 -122.11914062 67.38867188 C-115.68357397 67.39969013 -109.24804114 67.41642024 -102.8125 67.4375 C-102.8439209 66.38622925 -102.8439209 66.38622925 -102.87597656 65.3137207 C-102.95933048 62.12596081 -103.01122139 58.93843048 -103.0625 55.75 C-103.09601563 54.64720703 -103.12953125 53.54441406 -103.1640625 52.40820312 C-103.26205709 44.29915108 -103.26205709 44.29915108 -101.171875 40.29296875 C-95.7730255 36.04718479 -90.25499663 36.15982282 -83.6953125 36.2421875 C-82.4095784 36.24643234 -82.4095784 36.24643234 -81.09786987 36.25076294 C-78.37760068 36.26190001 -75.65766859 36.2869924 -72.9375 36.3125 C-71.08594228 36.32253818 -69.23437936 36.33166256 -67.3828125 36.33984375 C-62.8592464 36.36181812 -58.33593023 36.396303 -53.8125 36.4375 C-53.51230957 35.50341309 -53.21211914 34.56932617 -52.90283203 33.60693359 C-48.21634416 19.98400802 -37.4517927 10.52932189 -24.85766602 4.30444336 C-16.72364569 0.85644214 -8.76644551 -0.08853565 0 0 Z M-26.796875 37.45703125 C-29.76314908 41.84320785 -31.55534027 46.598098 -33.29077148 51.5847168 C-33.54930908 52.29668213 -33.80784668 53.00864746 -34.07421875 53.7421875 C-34.29037842 54.38140137 -34.50653809 55.02061523 -34.72924805 55.67919922 C-36.36917858 58.3410833 -37.95367968 59.16709861 -40.8125 60.4375 C-43.73789504 60.75657832 -46.46798627 60.9255893 -49.39453125 60.94921875 C-50.11684937 60.96585571 -50.83916748 60.98249268 -51.58337402 60.99963379 C-54.26362439 61.05716317 -56.94436578 61.08961851 -59.625 61.125 C-65.626875 61.228125 -71.62875 61.33125 -77.8125 61.4375 C-77.8125 77.2775 -77.8125 93.1175 -77.8125 109.4375 C-25.6725 109.4375 26.4675 109.4375 80.1875 109.4375 C80.1875 93.5975 80.1875 77.7575 80.1875 61.4375 C67.62298016 61.30669251 67.62298016 61.30669251 55.05810547 61.22973633 C53.47359926 61.20327259 51.88912192 61.17499146 50.3046875 61.14453125 C49.49330322 61.14851929 48.68191895 61.15250732 47.84594727 61.15661621 C43.71696071 61.05380154 40.99528309 60.70749366 37.70507812 58.09326172 C34.8047387 55.03372989 33.94237815 52.78592476 32.8125 48.75 C29.4514042 38.56001114 24.1184584 31.68911969 14.6328125 26.5546875 C-0.81988111 19.49483067 -15.98119427 25.13458583 -26.796875 37.45703125 Z M-169.8125 102.4375 C-175.27710078 110.29736267 -175.52655871 117.91493346 -175.44741821 127.21524048 C-175.45318748 128.69898252 -175.46113398 130.18271741 -175.47105443 131.66643751 C-175.49184042 135.72176078 -175.48165065 139.77649234 -175.46612334 143.83181715 C-175.45477994 148.21360664 -175.47228719 152.59529653 -175.48602295 156.97706604 C-175.50822695 165.55172901 -175.50346716 174.12617284 -175.48895974 182.7008443 C-175.47765779 189.66994936 -175.47614074 196.63899311 -175.48157883 203.60810471 C-175.48234499 204.60079471 -175.48311116 205.59348471 -175.48390054 206.61625623 C-175.48549919 208.63299806 -175.48712026 210.64973987 -175.4887635 212.66648166 C-175.5030123 231.5656082 -175.48664112 250.46461335 -175.45976166 269.36371998 C-175.43741678 285.5765251 -175.44130975 301.78915123 -175.46435547 318.00195312 C-175.4911169 336.83755355 -175.50164635 355.67304771 -175.48629415 374.50866449 C-175.48470143 376.51728525 -175.48312957 378.52590603 -175.48157883 380.53452682 C-175.48080745 381.52276684 -175.48003607 382.51100685 -175.47924132 383.52919353 C-175.47492587 390.49014694 -175.48220739 397.45103289 -175.49397659 404.41197586 C-175.50800362 412.89459518 -175.50419708 421.37698317 -175.47757287 429.859576 C-175.46443847 434.18673545 -175.45927585 438.51350929 -175.47581863 442.84066582 C-175.49073883 446.80332752 -175.48249663 450.76524689 -175.45593087 454.72784142 C-175.45035468 456.15970024 -175.45316716 457.59162201 -175.46530981 459.0234402 C-175.52810766 467.04482191 -175.3523513 473.27006294 -169.8125 479.4375 C-167.67643436 481.48365809 -167.67643436 481.48365809 -165.375 482.8125 C-164.29412109 483.50472656 -164.29412109 483.50472656 -163.19140625 484.2109375 C-156.25767071 487.78596699 -149.96659638 487.72484949 -142.3135376 487.70492554 C-140.40532876 487.71172221 -140.40532876 487.71172221 -138.45857024 487.71865618 C-134.93411526 487.730875 -131.40975527 487.73062704 -127.88528395 487.72826743 C-124.08146678 487.72785898 -120.27767995 487.73890118 -116.47387695 487.74838257 C-109.02369543 487.76498771 -101.57354556 487.77049191 -94.12334707 487.77160732 C-88.06617202 487.77255809 -82.00900739 487.7766698 -75.95183563 487.78300858 C-58.772627 487.80062013 -41.59344334 487.80984765 -24.41422561 487.80834763 C-23.02534116 487.80822776 -23.02534116 487.80822776 -21.60839844 487.80810547 C-20.68134274 487.80802371 -19.75428705 487.80794195 -18.79913875 487.80785771 C-3.77802527 487.80704497 11.24298791 487.82617982 26.26407239 487.8543822 C41.6935071 487.88312229 57.1228929 487.89692186 72.55235505 487.89519465 C81.21243415 487.89453111 89.87240811 487.90000764 98.53246307 487.92155075 C105.90653548 487.93977741 113.28045508 487.94409777 120.65454027 487.9305319 C124.4148226 487.92400953 128.17481191 487.92385826 131.93506622 487.9412384 C136.01713268 487.9599114 140.09852307 487.94739559 144.18060303 487.93197632 C145.36135776 487.94226344 146.5421125 487.95255057 147.75864768 487.96314943 C157.55066131 487.88149892 165.22908803 485.63269457 172.71484375 479.1953125 C176.36001876 474.84430785 177.56250137 470.72761371 177.56502342 465.13054085 C177.57284666 463.87647253 177.58066991 462.62240422 177.58873022 461.33033383 C177.58224464 459.94646839 177.5754747 458.56260426 177.56845093 457.17874146 C177.5719085 455.70258261 177.57667374 454.22642636 177.58263266 452.75027549 C177.59515893 448.69744274 177.58896488 444.64482185 177.57967401 440.59198833 C177.57289039 436.21969716 177.58336141 431.8474426 177.59161377 427.47515869 C177.60496131 418.91068728 177.60206862 410.3462947 177.59337585 401.78182019 C177.58660284 394.82073563 177.58568093 387.85967318 177.5889473 380.89858627 C177.589407 379.90812967 177.58986669 378.91767307 177.59034032 377.89720263 C177.5912995 375.88513168 177.59227214 373.87306073 177.5932581 371.86098979 C177.60181521 352.98814018 177.59197328 334.11533427 177.575857 315.24249183 C177.56245768 299.05014843 177.56477811 282.85786957 177.57861328 266.66552734 C177.59467056 247.86366872 177.60098684 229.06184842 177.59177649 210.2599839 C177.59082084 208.25467102 177.58987773 206.24935814 177.5889473 204.24404526 C177.58825306 202.76406148 177.58825306 202.76406148 177.58754479 201.25417904 C177.58495504 194.30280642 177.58932567 187.35145812 177.59638596 180.40008926 C177.60480297 171.9265774 177.60251672 163.4531489 177.58654372 154.97964658 C177.5786631 150.65664831 177.5755658 146.333789 177.58549118 142.01079178 C177.59444316 138.05184392 177.58949699 134.09316356 177.57355852 130.1342399 C177.5702128 128.70360265 177.57190014 127.27294271 177.57918589 125.8423201 C177.63011207 115.00984927 176.72246956 107.371655 169.16015625 99.19921875 C164.0733504 94.65634857 157.94370639 92.30723776 151.1652832 92.32397461 C150.14445145 92.32405014 149.12361969 92.32412567 148.07185364 92.32420349 C146.42173531 92.33194542 146.42173531 92.33194542 144.73828125 92.33984375 C143.6105278 92.3412587 142.48277435 92.34267365 141.32084656 92.34413147 C137.71387088 92.3497353 134.10695696 92.36228847 130.5 92.375 C128.05664152 92.38001451 125.61328207 92.3845775 123.16992188 92.38867188 C117.17576013 92.39970597 111.18163448 92.41644785 105.1875 92.4375 C105.17291748 93.41098389 105.15833496 94.38446777 105.14331055 95.38745117 C105.08516704 99.01265476 105.00793623 102.6372476 104.92504883 106.26196289 C104.89187468 107.82826801 104.86381942 109.39469051 104.84106445 110.96118164 C104.80737884 113.21811763 104.75505951 115.47398526 104.69921875 117.73046875 C104.69282883 118.42649704 104.6864389 119.12252533 104.67985535 119.83964539 C104.54932337 124.1940209 103.79814128 126.94207232 101.1875 130.4375 C96.48960216 134.68076257 91.83217689 134.58627013 85.73699951 134.58467102 C84.98376915 134.58834771 84.23053879 134.5920244 83.45448327 134.5958125 C80.92895849 134.606831 78.40347489 134.61069005 75.87792969 134.61450195 C74.06768158 134.62076794 72.25743475 134.62741487 70.44718933 134.63441467 C64.50126031 134.65543972 58.55533107 134.66581497 52.609375 134.67578125 C50.56152584 134.67982926 48.51367682 134.68394619 46.46582794 134.68813133 C36.84536924 134.70717885 27.2249182 134.72141133 17.60444427 134.7297433 C6.50265491 134.73951726 -4.59893514 134.76584282 -15.70065427 134.80624419 C-24.28423012 134.83640879 -32.86774885 134.85121247 -41.45137668 134.85452431 C-46.57689938 134.85687422 -51.70220906 134.86582719 -56.82767487 134.89098549 C-61.6507354 134.91427743 -66.47344281 134.91849489 -71.29654503 134.90822411 C-73.06378797 134.90772892 -74.83104836 134.91404414 -76.59823799 134.92778015 C-93.5557533 135.05218206 -93.5557533 135.05218206 -99.8125 130.4375 C-102.14242357 126.61759399 -102.15675458 122.9790949 -102.2265625 118.609375 C-102.24592865 117.86036926 -102.2652948 117.11136353 -102.2852478 116.33966064 C-102.34485716 113.95572164 -102.39135354 111.57173386 -102.4375 109.1875 C-102.47569701 107.56768769 -102.51474975 105.94789532 -102.5546875 104.328125 C-102.65054313 100.36474594 -102.73464246 96.40127181 -102.8125 92.4375 C-109.91076323 92.33563343 -117.00883619 92.26583918 -124.10766602 92.21777344 C-126.51984705 92.19772448 -128.93197989 92.17047808 -131.34399414 92.13574219 C-134.82189873 92.08692949 -138.29915772 92.06446317 -141.77734375 92.046875 C-143.38101051 92.01590729 -143.38101051 92.01590729 -145.01707458 91.98431396 C-154.96605008 91.98136817 -163.07429743 94.93005849 -169.8125 102.4375 Z " fill="#363636" transform="translate(254.8125,-0.4375)"/>
<path d="M0 0 C1.22391953 -0.00571014 2.44783905 -0.01142029 3.70884705 -0.01730347 C5.06742849 -0.01854881 6.42601004 -0.01967391 7.78459167 -0.02069092 C9.21370573 -0.02531966 10.64281855 -0.0303444 12.07192993 -0.03573608 C15.95632832 -0.04885691 19.84070942 -0.05530445 23.7251265 -0.05974674 C26.1522401 -0.06267806 28.57934897 -0.06678299 31.00646019 -0.07125092 C38.6011674 -0.08492519 46.19586381 -0.09459211 53.79058248 -0.09845281 C62.55598886 -0.10293314 71.32123926 -0.12048012 80.08659822 -0.1494534 C86.86292045 -0.17107411 93.63919882 -0.1811573 100.41555518 -0.18249393 C104.46229687 -0.1835417 108.50889194 -0.1894436 112.55559731 -0.20731354 C116.36331276 -0.22380096 120.17077146 -0.22594658 123.9785099 -0.21717453 C125.37408638 -0.2164045 126.76967671 -0.22074242 128.16521835 -0.23063278 C130.07437756 -0.24336697 131.98364008 -0.23567843 133.89282227 -0.22705078 C134.96004926 -0.22851734 136.02727625 -0.2299839 137.12684345 -0.2314949 C141.42627731 0.29976581 144.77758198 1.87488242 147.9493866 4.82794189 C149.66690246 8.17257806 150.25182072 11.41944973 150.1368866 15.14044189 C148.50627976 19.85108386 146.28287541 22.41015658 142.1368866 25.14044189 C138.8459808 26.23475213 135.75767818 26.26856844 132.30537415 26.27415466 C130.51791779 26.28055214 130.51791779 26.28055214 128.6943512 26.28707886 C127.3903537 26.28662567 126.0863562 26.28617249 124.74284363 26.28570557 C123.35299082 26.28869838 121.96313885 26.2921012 120.57328796 26.29588318 C116.80051057 26.30471495 113.02775585 26.30706095 109.25496912 26.30769897 C106.89703161 26.30840994 104.53909986 26.31054516 102.18116379 26.31319618 C93.95269657 26.32244691 85.72424556 26.32653141 77.49577332 26.32574463 C69.82954936 26.32514392 62.16339579 26.33569514 54.49718964 26.35148829 C47.91192835 26.36457043 41.32669004 26.36992824 34.74141586 26.36928922 C30.80986105 26.36903443 26.87836879 26.37187522 22.94682693 26.38246727 C19.24830005 26.39215957 15.54989537 26.3922197 11.85136414 26.38495064 C9.85106311 26.38340909 7.85076206 26.39174367 5.85047913 26.40039062 C4.6532019 26.39619614 3.45592468 26.39200165 2.22236633 26.38768005 C0.66772014 26.3884972 0.66772014 26.3884972 -0.91833305 26.38933086 C-5.54343014 25.99842373 -8.93707685 24.81953537 -12.6756134 22.07794189 C-15.58286862 18.17391346 -16.16073235 14.96186885 -15.8631134 10.14044189 C-14.37527654 5.91185293 -12.72722984 3.43476103 -8.8631134 1.14044189 C-5.66133985 0.07318404 -3.36596767 0.00939186 0 0 Z " fill="#363636" transform="translate(246.8631134033203,297.85955810546875)"/>
<path d="M0 0 C1.26032547 -0.01272446 2.52065094 -0.02544891 3.81916809 -0.03855896 C5.2082691 -0.03237705 6.59736827 -0.02577107 7.98646545 -0.01878357 C9.45529039 -0.02584401 10.92410804 -0.03458955 12.39291382 -0.04489136 C16.37648399 -0.06738206 20.35965679 -0.06444644 24.34326625 -0.05556989 C27.6708335 -0.0504574 30.99832625 -0.0577547 34.32588583 -0.06504196 C42.17700474 -0.0820401 50.02792927 -0.07847623 57.87904358 -0.06175232 C65.97432649 -0.04483109 74.06907017 -0.06066544 82.16429418 -0.0929752 C89.11903651 -0.1196798 96.07361108 -0.12694478 103.02839953 -0.11846012 C107.18024796 -0.11353337 111.33177198 -0.11573255 115.48357964 -0.13624763 C119.38836736 -0.15461866 123.29238018 -0.14862964 127.19712639 -0.12404823 C128.62816991 -0.1190447 130.0592726 -0.1225184 131.49026871 -0.13519669 C143.64443283 -0.23434112 143.64443283 -0.23434112 147.55288696 2.90957642 C150.84026153 6.81711447 151.99084896 9.4398632 151.61952209 14.5146637 C150.9912425 18.43217179 149.62725749 20.71429217 146.74452209 23.5146637 C143.37351569 25.65479312 140.63786603 25.76982167 136.68522644 25.78208923 C134.82204269 25.79488419 134.82204269 25.79488419 132.92121887 25.80793762 C131.54737841 25.80723862 130.17353805 25.80631557 128.79969788 25.80519104 C127.35072991 25.81117637 125.90176514 25.81798193 124.45280457 25.82554626 C120.51886267 25.84321303 116.58500779 25.84790192 112.65103006 25.84917784 C110.19257992 25.85059961 107.73415189 25.85486969 105.27570724 25.86017227 C96.69710129 25.87867475 88.11855749 25.88684261 79.53993225 25.88526917 C71.54643548 25.88406768 63.55320869 25.90517066 55.55978024 25.93675649 C48.69425695 25.9629176 41.82882184 25.97363653 34.96324909 25.97235835 C30.86394884 25.97184866 26.76488852 25.97753517 22.66563797 25.99871445 C18.80941067 26.01809423 14.95365224 26.01822344 11.09740829 26.00368118 C9.68409286 26.00159163 8.2707481 26.00630281 6.85748291 26.0184021 C-6.39426311 26.12448338 -6.39426311 26.12448338 -11.25547791 21.5146637 C-13.66445311 18.54359427 -14.22060661 16.8401291 -14.63047791 13.0146637 C-14.10456783 8.10616964 -12.5709865 5.76508743 -9.03316402 2.40229893 C-5.71828772 0.14960477 -3.97494052 0.010201 0 0 Z " fill="#353535" transform="translate(245.25547790527344,395.48533630371094)"/>
<path d="M0 0 C1.26032547 -0.01272446 2.52065094 -0.02544891 3.81916809 -0.03855896 C5.2082691 -0.03237705 6.59736827 -0.02577107 7.98646545 -0.01878357 C9.45529039 -0.02584401 10.92410804 -0.03458955 12.39291382 -0.04489136 C16.37648399 -0.06738206 20.35965679 -0.06444644 24.34326625 -0.05556989 C27.6708335 -0.0504574 30.99832625 -0.0577547 34.32588583 -0.06504196 C42.17700474 -0.0820401 50.02792927 -0.07847623 57.87904358 -0.06175232 C65.97432649 -0.04483109 74.06907017 -0.06066544 82.16429418 -0.0929752 C89.11903651 -0.1196798 96.07361108 -0.12694478 103.02839953 -0.11846012 C107.18024796 -0.11353337 111.33177198 -0.11573255 115.48357964 -0.13624763 C119.38836736 -0.15461866 123.29238018 -0.14862964 127.19712639 -0.12404823 C128.62816991 -0.1190447 130.0592726 -0.1225184 131.49026871 -0.13519669 C143.64443283 -0.23434112 143.64443283 -0.23434112 147.55288696 2.90957642 C150.84026153 6.81711447 151.99084896 9.4398632 151.61952209 14.5146637 C150.9912425 18.43217179 149.62725749 20.71429217 146.74452209 23.5146637 C143.37351569 25.65479312 140.63786603 25.76982167 136.68522644 25.78208923 C134.82204269 25.79488419 134.82204269 25.79488419 132.92121887 25.80793762 C131.54737841 25.80723862 130.17353805 25.80631557 128.79969788 25.80519104 C127.35072991 25.81117637 125.90176514 25.81798193 124.45280457 25.82554626 C120.51886267 25.84321303 116.58500779 25.84790192 112.65103006 25.84917784 C110.19257992 25.85059961 107.73415189 25.85486969 105.27570724 25.86017227 C96.69710129 25.87867475 88.11855749 25.88684261 79.53993225 25.88526917 C71.54643548 25.88406768 63.55320869 25.90517066 55.55978024 25.93675649 C48.69425695 25.9629176 41.82882184 25.97363653 34.96324909 25.97235835 C30.86394884 25.97184866 26.76488852 25.97753517 22.66563797 25.99871445 C18.80941067 26.01809423 14.95365224 26.01822344 11.09740829 26.00368118 C9.68409286 26.00159163 8.2707481 26.00630281 6.85748291 26.0184021 C-6.39426311 26.12448338 -6.39426311 26.12448338 -11.25547791 21.5146637 C-13.66445311 18.54359427 -14.22060661 16.8401291 -14.63047791 13.0146637 C-14.10456783 8.10616964 -12.5709865 5.76508743 -9.03316402 2.40229893 C-5.71828772 0.14960477 -3.97494052 0.010201 0 0 Z " fill="#353535" transform="translate(245.25547790527344,200.48533630371094)"/>
<path d="M0 0 C3.00434566 1.79634834 5.40783628 3.81567256 7 7 C7.34375 9.1015625 7.34375 9.1015625 7.5 11.625 C7.60828125 12.85089844 7.60828125 12.85089844 7.71875 14.1015625 C5.81343436 21.78495492 -2.74443057 27.74750127 -8.375 32.9375 C-13.00752395 37.24734573 -17.62241543 41.55267588 -22.0625 46.0625 C-25.20727137 49.2554671 -28.48505093 52.19958433 -31.89453125 55.10546875 C-35.27647792 58.14859331 -38.38034578 61.46384046 -41.5078125 64.765625 C-44.75472076 67.6766462 -47.9002594 69.70416026 -52.2734375 70.3203125 C-61.3795753 69.47401717 -66.17754139 63.15650413 -71.734375 56.49609375 C-73.65735499 54.37750028 -75.62253511 52.43186118 -77.703125 50.47265625 C-78.37593506 49.83070313 -79.04874512 49.18875 -79.74194336 48.52734375 C-81.09573492 47.24267042 -82.46334865 45.97236805 -83.84594727 44.71875 C-88.41342162 40.35011353 -90.74871566 36.43348472 -91 30 C-89.88617538 26.00333519 -88.58664102 23.67291176 -85.875 20.5625 C-81.94269087 18.42537547 -78.37874699 18.02215174 -74 19 C-69.23322934 21.72111199 -65.55017705 25.17161521 -61.75 29.0625 C-61.22148437 29.59166016 -60.69296875 30.12082031 -60.1484375 30.66601562 C-57.82733559 33.01362758 -55.83670518 35.24494222 -54 38 C-50.97022571 36.64768813 -48.91527387 35.14519457 -46.609375 32.76953125 C-45.98651611 32.1350708 -45.36365723 31.50061035 -44.72192383 30.84692383 C-43.74582153 29.83988403 -43.74582153 29.83988403 -42.75 28.8125 C-38.30922647 24.29535344 -33.88537493 19.88779781 -29.02734375 15.81640625 C-27.30059622 14.26932032 -25.68437466 12.68533802 -24.06640625 11.02734375 C-23.27689575 10.21946411 -23.27689575 10.21946411 -22.47143555 9.39526367 C-21.43587504 8.3280298 -20.40693955 7.25431178 -19.38598633 6.1730957 C-13.48993504 0.09517125 -8.20067863 -2.44555952 0 0 Z " fill="#353535" transform="translate(206,269)"/>
<path d="M0 0 C3.20384041 1.29516953 4.5905657 2.51997358 6.8125 5.125 C8.48547092 9.17535065 8.66762138 12.67964555 8 17 C5.72439343 21.74084702 2.29053152 24.63122958 -1.66015625 27.94921875 C-4.39743142 30.34833305 -6.94961126 32.90659265 -9.5 35.5 C-12.55281774 38.59543454 -15.62328354 41.61938247 -18.9375 44.4375 C-22.47685525 47.45358301 -25.73442295 50.69492 -29 54 C-44.79181861 69.94480185 -44.79181861 69.94480185 -52.3125 70.625 C-56.07091679 70.42571462 -57.86507463 69.67211238 -60.6171875 67.125 C-61.30627197 66.49029785 -61.99535645 65.8555957 -62.70532227 65.20166016 C-67.11775294 60.96809278 -71.48700383 56.69746923 -75.8125 52.375 C-76.76227278 51.43740172 -77.71214206 50.49990118 -78.66210938 49.5625 C-79.56380859 48.66273438 -80.46550781 47.76296875 -81.39453125 46.8359375 C-82.20768799 46.02688965 -83.02084473 45.2178418 -83.85864258 44.38427734 C-87.57967184 40.24112699 -89.66336182 36.61063633 -90 31 C-89.31488902 27.02635633 -88.58941986 24.6787259 -85.9375 21.625 C-82.09397086 19.49879239 -78.40224491 18.58540502 -74 19 C-70.49469567 20.86940029 -67.79052579 22.96897785 -65.01171875 25.79296875 C-64.30595703 26.50517578 -63.60019531 27.21738281 -62.87304688 27.95117188 C-62.15181641 28.68916016 -61.43058594 29.42714844 -60.6875 30.1875 C-59.94693359 30.93708984 -59.20636719 31.68667969 -58.44335938 32.45898438 C-56.62428288 34.30153282 -54.81005611 36.14859662 -53 38 C-50.12582911 36.68779341 -47.97603932 35.25742371 -45.6796875 33.09375 C-45.06681885 32.51955322 -44.4539502 31.94535645 -43.82250977 31.35375977 C-43.17983154 30.74201904 -42.53715332 30.13027832 -41.875 29.5 C-41.20847412 28.872146 -40.54194824 28.24429199 -39.85522461 27.59741211 C-35.21651937 23.20947795 -30.69578302 18.7205475 -26.20703125 14.1796875 C-23.50100473 11.50718697 -20.69987878 8.98600368 -17.7890625 6.5390625 C-16.00282435 5.0520067 -16.00282435 5.0520067 -14.5234375 3.4609375 C-10.17069494 -0.89180506 -5.77669603 -0.87906244 0 0 Z " fill="#353535" transform="translate(205,366)"/>
<path d="M0 0 C3.20384041 1.29516953 4.5905657 2.51997358 6.8125 5.125 C8.8107809 9.96294324 8.86667529 14.72497735 7 19.625 C4.6976366 22.35905653 2.17239742 24.54919775 -0.55859375 26.84765625 C-3.50392712 29.44426215 -6.24589475 32.20360357 -9 35 C-12.85057156 38.89955494 -16.76428066 42.60829686 -20.94140625 46.16015625 C-23.56501311 48.50497377 -26.02948555 50.99669111 -28.5 53.5 C-32.83259652 57.87868797 -37.22918003 62.09852944 -42 66 C-42.969375 66.804375 -43.93875 67.60875 -44.9375 68.4375 C-49.17769696 70.6008658 -52.3534108 71.04372017 -57 70 C-58.84130859 68.75537109 -58.84130859 68.75537109 -60.6484375 67.0859375 C-61.33824707 66.45163818 -62.02805664 65.81733887 -62.73876953 65.16381836 C-66.95320855 61.13093421 -71.12375315 57.06068584 -75.25 52.9375 C-76.13429687 52.06544922 -77.01859375 51.19339844 -77.9296875 50.29492188 C-89.69143575 38.55982411 -89.69143575 38.55982411 -90 31 C-89.31488902 27.02635633 -88.58941986 24.6787259 -85.9375 21.625 C-81.95654689 19.42277062 -78.54366009 18.69447803 -74 19 C-68.50818203 21.17778989 -65.50209719 24.39273174 -61.77734375 28.89453125 C-59.04884977 32.1267472 -56.02993046 35.05295517 -53 38 C-50.1438686 36.69412901 -47.99823752 35.27880825 -45.71484375 33.12890625 C-45.10713135 32.55986572 -44.49941895 31.9908252 -43.87329102 31.40454102 C-43.23447998 30.79666748 -42.59566895 30.18879395 -41.9375 29.5625 C-41.27355225 28.93722412 -40.60960449 28.31194824 -39.92553711 27.66772461 C-34.99827685 23.00632158 -30.20473146 18.22701321 -25.43359375 13.40625 C-22.61804405 10.62233569 -19.72081808 7.98157322 -16.6875 5.4375 C-14.82605206 3.89680488 -14.82605206 3.89680488 -12.625 1.5625 C-8.54616246 -0.86537949 -4.6244311 -0.62471722 0 0 Z " fill="#353535" transform="translate(205,171)"/>
</svg>
