<svg xmlns="http://www.w3.org/2000/svg" width="512" height="512" viewBox="0 0 512 512">
<g>
<path d="M 0.00 0.00 L 512.00 0.00 L 393.25 0.12 C326.39,0.18 275.81,0.61 277.50,1.08 C279.47,1.64 278.61,1.70 275.00,1.26 C267.90,0.38 244.10,0.38 237.00,1.26 C233.39,1.70 232.53,1.64 234.50,1.08 C236.19,0.61 185.61,0.18 118.75,0.12 L 0.00 0.00 Z" fill="rgb(249,230,103)"/>
<path d="M 266.87 507.25 L 262.88 512.00 L 250.45 512.00 L 247.45 509.25 C244.64,506.68 233.42,491.30 219.18,470.50 C215.79,465.55 210.20,457.62 206.76,452.88 C203.32,448.13 198.15,440.93 195.29,436.88 C192.42,432.82 187.51,425.90 184.38,421.50 C171.53,403.46 142.00,358.88 137.67,351.00 C136.61,349.08 134.29,345.25 132.51,342.50 C121.91,326.14 101.86,285.79 93.70,264.40 C67.92,196.82 71.09,138.03 103.37,85.11 C113.81,68.00 123.35,56.89 139.50,43.06 C149.53,34.47 154.24,31.13 164.50,25.32 C168.35,23.14 172.40,20.83 173.50,20.19 C181.62,15.47 205.39,6.94 216.00,4.94 C219.57,4.26 225.88,2.91 230.00,1.94 C231.97,1.47 233.22,1.13 231.73,0.87 C233.79,0.94 234.76,1.01 234.50,1.08 C232.53,1.64 233.39,1.70 237.00,1.26 C244.10,0.38 267.90,0.38 275.00,1.26 C278.61,1.70 279.47,1.64 277.50,1.08 C277.44,1.07 277.45,1.05 277.53,1.03 C280.37,1.67 285.81,2.81 291.80,4.03 C315.04,8.76 334.76,16.76 354.65,29.55 C361.86,34.18 372.61,42.35 375.00,45.01 C375.27,45.32 376.73,46.52 378.24,47.67 C382.17,50.68 394.28,64.18 401.19,73.25 C412.97,88.71 424.55,112.20 429.65,131.00 C434.20,147.75 435.19,154.75 435.72,174.00 C436.17,190.54 435.93,195.70 434.14,208.00 C431.75,224.47 429.58,233.47 423.94,250.23 C419.32,263.99 417.51,268.87 414.76,275.00 C413.65,277.48 410.96,283.55 408.79,288.50 C395.31,319.10 366.61,366.45 330.90,417.00 C327.60,421.67 323.33,427.75 321.41,430.50 C318.06,435.31 308.20,449.16 302.18,457.50 C300.59,459.70 292.89,470.73 285.07,482.00 C277.25,493.27 269.06,504.64 266.87,507.25 ZM 252.28 464.25 C253.87,466.31 255.69,467.99 256.33,467.99 C256.98,467.98 259.75,464.78 262.50,460.86 C265.25,456.95 272.90,446.22 279.50,437.01 C333.79,361.27 358.72,322.28 376.72,285.00 C398.32,240.29 406.90,207.84 405.70,175.50 C405.08,158.99 403.68,150.20 399.31,135.50 C394.56,119.53 383.15,98.10 373.52,87.04 C361.98,73.79 356.26,68.24 346.68,60.99 C331.30,49.35 316.60,42.18 293.00,34.81 L 282.50 31.54 L 257.00 31.57 C241.47,31.59 229.94,32.04 227.50,32.72 C198.01,40.91 183.31,47.65 165.21,61.29 C137.41,82.23 116.92,114.98 109.42,150.50 C107.22,160.89 106.33,190.84 107.93,200.47 C111.57,222.43 116.73,240.48 125.65,262.41 C133.67,282.11 152.35,317.77 164.48,336.50 C167.32,340.90 170.86,346.58 172.34,349.12 C173.82,351.66 177.74,357.73 181.06,362.62 C184.37,367.50 189.67,375.33 192.84,380.00 C202.09,393.65 209.55,404.34 222.84,423.00 C229.70,432.62 238.48,445.00 242.35,450.50 C246.22,456.00 250.69,462.19 252.28,464.25 ZM 282.50 266.54 C275.68,268.76 272.29,269.20 259.50,269.52 C251.25,269.73 242.48,269.53 240.00,269.07 C219.51,265.28 198.30,252.31 185.83,235.94 C179.72,227.92 172.23,214.70 170.93,209.64 C166.32,191.63 165.39,182.24 166.97,169.69 C170.22,143.74 183.98,120.43 204.09,106.80 C218.29,97.18 228.77,93.32 247.30,90.91 C279.60,86.70 313.61,103.14 332.34,132.00 C364.23,181.16 339.48,247.98 282.50,266.54 ZM 242.73 238.53 C261.93,242.73 281.76,237.34 296.31,223.97 C304.63,216.33 308.94,209.77 312.48,199.40 C320.63,175.52 313.52,150.13 294.33,134.49 C282.83,125.12 271.12,121.00 256.00,121.00 C239.23,121.00 226.23,126.25 214.35,137.82 C202.46,149.39 196.80,163.00 196.79,180.00 C196.79,207.63 216.54,232.80 242.73,238.53 Z" fill="rgb(253,214,3)"/>
<path d="M 281.28 93.77 C270.23,90.50 258.66,89.43 247.30,90.91 C228.77,93.32 218.29,97.18 204.09,106.80 C201.90,108.28 199.79,109.88 197.76,111.59 C206.36,104.21 216.43,98.49 227.57,94.92 C231.38,93.70 234.73,92.41 235.00,92.05 C236.13,90.58 244.04,88.95 245.74,89.84 C246.77,90.37 251.68,90.41 257.50,89.95 C266.94,89.19 275.65,90.12 277.00,92.03 C277.21,92.33 278.98,93.03 281.28,93.77 ZM 303.40 38.25 C296.17,35.89 288.81,34.00 287.93,34.54 C287.39,34.88 284.83,34.33 282.23,33.32 C279.14,32.13 276.22,31.70 266.87,31.56 L 282.50 31.54 L 293.00 34.81 C296.67,35.96 300.12,37.10 303.40,38.25 ZM 297.85 0.56 C289.22,0.73 285.72,0.95 286.50,1.23 C288.15,1.82 289.73,2.60 290.00,2.97 C290.27,3.35 294.30,4.46 298.95,5.45 C306.61,7.09 315.33,9.95 324.20,13.65 C313.96,9.52 303.31,6.37 291.80,4.03 C285.81,2.81 280.37,1.67 277.53,1.03 C278.34,0.86 285.66,0.70 297.85,0.56 ZM 214.15 0.56 C222.43,0.66 228.46,0.76 231.73,0.87 C233.22,1.13 231.97,1.47 230.00,1.94 C225.88,2.91 219.57,4.26 216.00,4.94 C211.84,5.72 205.66,7.51 199.20,9.68 C205.37,7.58 211.31,5.81 215.50,4.91 C218.80,4.20 221.73,3.33 222.00,2.96 C222.27,2.60 223.85,1.82 225.50,1.23 C226.28,0.95 222.78,0.73 214.15,0.56 ZM 235.89 31.96 C233.14,32.23 231.48,32.67 229.75,33.33 C227.14,34.34 224.44,34.97 223.75,34.73 C222.84,34.42 220.45,34.82 217.18,35.71 C220.42,34.73 223.84,33.73 227.50,32.72 C228.60,32.41 231.55,32.15 235.89,31.96 ZM 181.60 50.28 C182.78,49.62 184.07,48.93 185.44,48.23 C178.52,51.89 172.11,56.09 165.21,61.29 C162.27,63.50 159.41,65.85 156.65,68.31 C136.81,86.21 121.59,109.80 113.29,135.87 C121.60,109.76 136.86,85.94 156.65,68.31 C164.32,61.39 172.68,55.32 181.60,50.28 ZM 312.23 109.92 C303.41,102.94 293.44,97.62 282.96,94.29 C283.14,94.34 283.32,94.39 283.50,94.45 C293.28,97.23 303.28,102.72 312.23,109.92 ZM 266.87 31.56 L 257.00 31.57 C248.48,31.58 241.17,31.72 235.89,31.96 C239.63,31.59 245.37,31.50 256.00,31.50 C260.39,31.50 263.94,31.51 266.87,31.56 ZM 207.53 38.84 C200.26,41.46 191.93,44.95 185.44,48.23 C192.05,44.75 199.12,41.75 207.53,38.84 ZM 352.60 65.68 C359.09,71.09 364.54,76.74 373.52,87.04 C365.63,77.98 359.15,71.30 352.60,65.68 ZM 316.52 43.36 C312.45,41.60 308.11,39.91 303.40,38.25 C307.27,39.52 311.11,40.93 313.88,42.17 C314.82,42.59 315.70,42.99 316.52,43.36 ZM 352.60 65.68 C350.75,64.13 348.81,62.60 346.68,60.99 C343.18,58.34 339.71,55.92 336.16,53.67 C342.18,57.44 347.42,61.23 352.60,65.68 ZM 217.18 35.71 C213.76,36.76 210.56,37.79 207.53,38.84 C211.12,37.54 214.46,36.46 217.18,35.71 ZM 332.66 51.53 C329.48,49.65 326.21,47.90 322.78,46.23 C326.84,48.15 329.09,49.39 332.66,51.53 ZM 322.78 46.23 C321.08,45.43 319.07,44.51 316.52,43.36 C318.68,44.29 320.76,45.24 322.78,46.23 ZM 336.16 53.67 C335.42,53.21 334.67,52.75 333.91,52.29 C333.47,52.02 333.06,51.77 332.66,51.53 C333.83,52.23 335.00,52.94 336.16,53.67 Z" fill="rgb(254,248,195)"/>
<path d="M 0.00 256.00 L 0.00 0.00 L 114.25 0.08 C196.75,0.14 227.67,0.46 225.50,1.23 C223.85,1.82 222.27,2.60 222.00,2.96 C221.73,3.33 218.80,4.20 215.50,4.91 C204.40,7.29 181.10,15.77 173.50,20.19 C172.40,20.83 168.35,23.14 164.50,25.32 C154.24,31.13 149.53,34.47 139.50,43.06 C123.35,56.89 113.81,68.00 103.37,85.11 C71.09,138.03 67.92,196.82 93.70,264.40 C101.86,285.79 121.91,326.14 132.51,342.50 C134.29,345.25 136.61,349.08 137.67,351.00 C142.00,358.88 171.53,403.46 184.38,421.50 C187.51,425.90 192.42,432.82 195.29,436.88 C198.15,440.93 203.32,448.13 206.76,452.88 C210.20,457.62 215.79,465.55 219.18,470.50 C233.42,491.30 244.64,506.68 247.45,509.25 L 250.45 512.00 L 125.22 512.00 L 0.00 512.00 L 0.00 256.00 ZM 266.87 507.25 C269.06,504.64 277.25,493.27 285.07,482.00 C292.89,470.73 300.59,459.70 302.18,457.50 C308.20,449.16 318.06,435.31 321.41,430.50 C323.33,427.75 327.60,421.67 330.90,417.00 C366.61,366.45 395.31,319.10 408.79,288.50 C410.96,283.55 413.65,277.48 414.76,275.00 C417.51,268.87 419.32,263.99 423.94,250.23 C429.58,233.47 431.75,224.47 434.14,208.00 C435.93,195.70 436.17,190.54 435.72,174.00 C435.19,154.75 434.20,147.75 429.65,131.00 C424.55,112.20 412.97,88.71 401.19,73.25 C394.28,64.18 382.17,50.68 378.24,47.67 C376.73,46.52 375.27,45.32 375.00,45.01 C372.61,42.35 361.86,34.18 354.65,29.55 C337.27,18.38 315.60,9.00 298.95,5.45 C294.30,4.46 290.27,3.35 290.00,2.97 C289.73,2.60 288.15,1.82 286.50,1.23 C284.33,0.46 315.25,0.14 397.75,0.08 L 512.00 0.00 L 512.00 256.00 L 512.00 512.00 L 387.44 512.00 L 262.88 512.00 L 266.87 507.25 ZM 252.28 464.25 C250.69,462.19 246.22,456.00 242.35,450.50 C238.48,445.00 229.70,432.62 222.84,423.00 C209.55,404.34 202.09,393.65 192.84,380.00 C189.67,375.33 184.37,367.50 181.06,362.62 C177.74,357.73 173.82,351.66 172.34,349.12 C170.86,346.58 167.32,340.90 164.48,336.50 C152.35,317.77 133.67,282.11 125.65,262.41 C116.73,240.48 111.57,222.43 107.93,200.47 C106.33,190.84 107.22,160.89 109.42,150.50 C118.34,108.27 145.37,70.74 181.60,50.28 C194.41,43.05 220.25,33.52 223.75,34.73 C224.44,34.97 227.14,34.34 229.75,33.33 C233.83,31.76 237.55,31.50 256.00,31.50 C274.41,31.50 278.18,31.76 282.23,33.32 C284.83,34.33 287.39,34.88 287.93,34.54 C289.28,33.71 305.95,38.61 313.88,42.17 C325.54,47.40 327.41,48.35 333.91,52.29 C348.77,61.30 358.62,69.94 373.52,87.04 C383.15,98.10 394.56,119.53 399.31,135.50 C403.68,150.20 405.08,158.99 405.70,175.50 C406.90,207.84 398.32,240.29 376.72,285.00 C358.72,322.28 333.79,361.27 279.50,437.01 C272.90,446.22 265.25,456.95 262.50,460.86 C259.75,464.78 256.98,467.98 256.33,467.99 C255.69,467.99 253.87,466.31 252.28,464.25 ZM 282.50 266.54 C339.48,247.98 364.23,181.16 332.34,132.00 C320.87,114.33 301.80,99.66 283.50,94.45 C280.20,93.50 277.27,92.42 277.00,92.03 C275.65,90.12 266.94,89.19 257.50,89.95 C251.68,90.41 246.77,90.37 245.74,89.84 C244.04,88.95 236.13,90.58 235.00,92.05 C234.73,92.41 231.38,93.70 227.57,94.92 C194.87,105.40 171.40,134.36 166.97,169.69 C165.39,182.24 166.32,191.63 170.93,209.64 C172.23,214.70 179.72,227.92 185.83,235.94 C198.30,252.31 219.51,265.28 240.00,269.07 C242.48,269.53 251.25,269.73 259.50,269.52 C272.29,269.20 275.68,268.76 282.50,266.54 ZM 242.73 238.53 C216.54,232.80 196.79,207.63 196.79,180.00 C196.80,163.00 202.46,149.39 214.35,137.82 C226.23,126.25 239.23,121.00 256.00,121.00 C271.12,121.00 282.83,125.12 294.33,134.49 C313.52,150.13 320.63,175.52 312.48,199.40 C308.94,209.77 304.63,216.33 296.31,223.97 C281.76,237.34 261.93,242.73 242.73,238.53 Z" fill="rgb(254,254,254)"/>
</g>
</svg>