<?xml version="1.0" encoding="UTF-8"?>
<svg version="1.1" xmlns="http://www.w3.org/2000/svg" width="463" height="94">
<path d="M0 0 C4.125 -0.0825 8.25 -0.165 12.5 -0.25 C13.78455078 -0.28641602 15.06910156 -0.32283203 16.39257812 -0.36035156 C23.41571166 -0.42809181 28.10674366 0.05957978 34 4 C37.44748816 8.55003616 38.67800984 13.13284384 38.3828125 18.8203125 C37.70360339 22.68764602 36.42600675 24.87172814 34 28 C30.8515625 29.19140625 30.8515625 29.19140625 28 30 C32.46545478 36.20524236 36.9841031 42.34166505 41.75 48.3203125 C43 50 43 50 43 51 C30.70252728 52.80845187 30.70252728 52.80845187 25 51 C20.22002172 47.16303661 17.57726473 41.4394532 15 36 C14.67 40.95 14.34 45.9 14 51 C9.38 51 4.76 51 0 51 C0 34.17 0 17.34 0 0 Z M14 11 C14 14.96 14 18.92 14 23 C18.91199892 22.69321861 18.91199892 22.69321861 23.0625 20.3125 C24.2918674 17.90288423 24.2918674 17.90288423 23.3125 14.8125 C22.30506878 11.89361993 22.30506878 11.89361993 20 11 C18.02 11 16.04 11 14 11 Z " fill="#FFD600" transform="translate(240,18)"/>
<path d="M0 0 C17.82 0 35.64 0 54 0 C54 0.66 54 1.32 54 2 C53.46890625 2.21914063 52.9378125 2.43828125 52.390625 2.6640625 C47.38587399 4.9107208 44.31543968 6.79026073 42 12 C41.28581918 16.17625739 41.02618206 20.08700586 42.98828125 23.94140625 C45.34133323 26.96467737 47.27768147 28.40498254 51 29 C57.02232453 29.0547484 61.27179959 27.92094668 66 24 C66.99 22.515 66.99 22.515 68 21 C63.05 20.67 58.1 20.34 53 20 C53 16.7 53 13.4 53 10 C63.89 10 74.78 10 86 10 C83.0685864 23.19136118 78.14081129 30.73241623 66.87890625 38.01953125 C56.3118422 44.21317457 56.3118422 44.21317457 50.9609375 42.8359375 C41.90170728 38.97403458 34.17838214 33.34996129 30 24.1875 C28.34040216 19.14835747 29.27043204 14.14614715 30 9 C29.06317383 9.00169189 29.06317383 9.00169189 28.10742188 9.00341797 C25.2372252 8.99120211 22.36961358 8.93341453 19.5 8.875 C18.51773437 8.87757812 17.53546875 8.88015625 16.5234375 8.8828125 C10.10863215 8.71175102 6.3250531 7.57584467 1.34570312 3.47705078 C0 2 0 2 0 0 Z " fill="#FEED5D" transform="translate(11,28)"/>
<path d="M0 0 C0 5.61 0 11.22 0 17 C-2.31 15.68 -4.62 14.36 -7 13 C-11.21192941 12.15628543 -14.88911996 12.56530781 -18.875 14.125 C-21.68985619 16.60869664 -22.80619986 18.41859959 -24 22 C-24.29693827 26.95188239 -23.73531917 30.07117579 -20.625 34 C-16.4395375 37.18892381 -13.16561037 37.42341069 -8 37 C-5.17011322 35.86705582 -2.66899026 34.4983805 0 33 C0 38.28 0 43.56 0 49 C-8.13423173 52.25369269 -14.67486446 52.67357294 -23 50 C-30.00422386 46.74847548 -35.6648456 41.59879846 -38.48828125 34.23828125 C-40.39012118 25.91954631 -39.94950103 17.59985008 -35.609375 10.1875 C-26.44889426 -2.26363887 -14.22213588 -4.06346739 0 0 Z " fill="#FFD600" transform="translate(155,19)"/>
<path d="M0 0 C0.99 0.66 1.98 1.32 3 2 C3.33 1.67 3.66 1.34 4 1 C8.29 1 12.58 1 17 1 C17 12.22 17 23.44 17 35 C12 35 7 35 2 35 C1.39027344 35.17917969 0.78054688 35.35835937 0.15234375 35.54296875 C-5.07338216 37.06368264 -8.82667898 37.19782582 -13.921875 35.17578125 C-18.74941087 32.44441227 -21.29920387 28.64534742 -23.4375 23.625 C-24.34306224 17.78915446 -24.03360222 12.53908292 -21.375 7.1875 C-15.69791398 -0.43174702 -9.07294936 -1.14075094 0 0 Z M-8.375 12.625 C-10.48706506 15.71186432 -10.61195145 17.3282913 -10 21 C-8.5 23.5 -8.5 23.5 -6 25 C-2.3282913 25.61195145 -0.71186432 25.48706506 2.375 23.375 C4.48706506 20.28813568 4.61195145 18.6717087 4 15 C2.5 12.5 2.5 12.5 0 11 C-3.6717087 10.38804855 -5.28813568 10.51293494 -8.375 12.625 Z " fill="#FFD600" transform="translate(422,34)"/>
<path d="M0 0 C0.99 0.66 1.98 1.32 3 2 C3.33 1.67 3.66 1.34 4 1 C8.29 1 12.58 1 17 1 C17 12.22 17 23.44 17 35 C12 35 7 35 2 35 C1.39027344 35.17917969 0.78054687 35.35835937 0.15234375 35.54296875 C-5.07338216 37.06368264 -8.82667898 37.19782582 -13.921875 35.17578125 C-18.74941087 32.44441227 -21.29920387 28.64534742 -23.4375 23.625 C-24.34306224 17.78915446 -24.03360222 12.53908292 -21.375 7.1875 C-15.69791398 -0.43174702 -9.07294936 -1.14075094 0 0 Z M-8.375 12.625 C-10.48706506 15.71186432 -10.61195145 17.3282913 -10 21 C-8.5 23.5 -8.5 23.5 -6 25 C-2.3282913 25.61195145 -0.71186432 25.48706506 2.375 23.375 C4.48706506 20.28813568 4.61195145 18.6717087 4 15 C2.5 12.5 2.5 12.5 0 11 C-3.6717087 10.38804855 -5.28813568 10.51293494 -8.375 12.625 Z " fill="#FFD600" transform="translate(184,34)"/>
<path d="M0 0 C5.45701385 4.09276038 8.1626145 8.18807248 9.5 14.875 C9.5 16.525 9.5 18.175 9.5 19.875 C-2.875 20.37 -2.875 20.37 -15.5 20.875 C-15.17 22.195 -14.84 23.515 -14.5 24.875 C-13.241875 24.91625 -11.98375 24.9575 -10.6875 25 C-9.97980469 25.02320312 -9.27210938 25.04640625 -8.54296875 25.0703125 C-6.18640281 25.00754462 -6.18640281 25.00754462 -3.5 22.875 C-0.58203125 22.6796875 -0.58203125 22.6796875 2.6875 22.75 C4.31751953 22.77707031 4.31751953 22.77707031 5.98046875 22.8046875 C7.22763672 22.83949219 7.22763672 22.83949219 8.5 22.875 C7.83491137 27.77171501 6.37091662 29.58103949 2.5859375 32.578125 C-2.9283977 36.00651318 -9.12094356 36.35219041 -15.4296875 35.41796875 C-18.67733696 34.56622672 -20.91802273 32.97660941 -23.5 30.875 C-24.61375 29.9778125 -24.61375 29.9778125 -25.75 29.0625 C-29.25524074 24.68094907 -29.70070616 20.18488626 -29.3125 14.75 C-28.55997096 9.09748071 -26.76999072 5.8652152 -22.5 2.125 C-16.19543257 -2.60342557 -7.33166856 -2.35660775 0 0 Z M-13.875 8.1875 C-15.7312139 9.72465539 -15.7312139 9.72465539 -15.5 11.875 C-11.54 11.875 -7.58 11.875 -3.5 11.875 C-4.16 10.555 -4.82 9.235 -5.5 7.875 C-8.96475781 6.74518767 -10.6416079 6.40062542 -13.875 8.1875 Z " fill="#FFD600" transform="translate(314.5,35.125)"/>
<path d="M0 0 C3.25900019 1.45614902 5.71264424 3.25517308 8 6 C9.07917226 9.23751678 9.11425601 11.57751771 9.09765625 14.98046875 C9.09443359 16.14384766 9.09121094 17.30722656 9.08789062 18.50585938 C9.07532227 20.32827148 9.07532227 20.32827148 9.0625 22.1875 C9.05798828 23.41404297 9.05347656 24.64058594 9.04882812 25.90429688 C9.03703076 28.93621865 9.01909514 31.9681154 9 35 C4.71 35 0.42 35 -4 35 C-4.04898437 33.51886719 -4.09796875 32.03773437 -4.1484375 30.51171875 C-4.22346843 28.5702935 -4.29901612 26.62888818 -4.375 24.6875 C-4.4059375 23.71103516 -4.436875 22.73457031 -4.46875 21.72851562 C-4.50742187 20.79072266 -4.54609375 19.85292969 -4.5859375 18.88671875 C-4.6173584 18.02264404 -4.6487793 17.15856934 -4.68115234 16.26831055 C-4.87188037 13.72257555 -4.87188037 13.72257555 -7 11 C-10.81813447 11.27540704 -10.81813447 11.27540704 -14 13 C-14.15714654 14.63256758 -14.25085414 16.27135338 -14.31640625 17.91015625 C-14.35830078 18.89951172 -14.40019531 19.88886719 -14.44335938 20.90820312 C-14.48267578 21.94912109 -14.52199219 22.99003906 -14.5625 24.0625 C-14.60568359 25.10728516 -14.64886719 26.15207031 -14.69335938 27.22851562 C-14.79981105 29.81883972 -14.90044308 32.40940175 -15 35 C-19.29 35 -23.58 35 -28 35 C-28 23.78 -28 12.56 -28 1 C-22.66666667 1 -17.33333333 1 -12 1 C-8.31612293 -0.84193854 -4.02993847 -0.36231308 0 0 Z " fill="#FFD600" transform="translate(358,34)"/>
<path d="M0 0 C9.99720977 -0.04649277 19.99439351 -0.08195491 29.99168968 -0.10362434 C34.63463556 -0.11402847 39.27750707 -0.12812561 43.92041016 -0.15087891 C48.40729115 -0.17272813 52.89410092 -0.18459394 57.38103104 -0.18975449 C59.08650456 -0.19342867 60.79197452 -0.20060301 62.49741745 -0.21146011 C85.43636868 -0.35158657 85.43636868 -0.35158657 92.625 4.5 C93.60339844 5.13421875 93.60339844 5.13421875 94.6015625 5.78125 C95.29378906 6.38453125 95.29378906 6.38453125 96 7 C96 7.66 96 8.32 96 9 C84.6645011 9.11603026 73.3291443 9.20478476 61.99317169 9.25906086 C56.72895783 9.28511544 51.46515132 9.32043808 46.20117188 9.37719727 C41.11775224 9.43166434 36.03472355 9.46145166 30.95103455 9.47438622 C29.01498768 9.48359972 27.07896136 9.50159175 25.14308167 9.52865028 C22.4236995 9.56513634 19.70591706 9.56993725 16.98632812 9.56762695 C16.19222534 9.58560333 15.39812256 9.60357971 14.57995605 9.62210083 C9.32248421 9.57401162 5.88352552 8.23961852 1.4340744 5.46441936 C0 4 0 4 0 0 Z " fill="#EED04F" transform="translate(0,17)"/>
<path d="M0 0 C4.29 0 8.58 0 13 0 C13 18.48 13 36.96 13 56 C8.71 56 4.42 56 0 56 C0 37.52 0 19.04 0 0 Z " fill="#FFD600" transform="translate(447,13)"/>
<path d="M0 0 C4.29 0 8.58 0 13 0 C13 3.96 13 7.92 13 12 C15.31 12 17.62 12 20 12 C20 15.3 20 18.6 20 22 C17.69 22 15.38 22 13 22 C13 29.92 13 37.84 13 46 C8.71 46 4.42 46 0 46 C0 38.08 0 30.16 0 22 C-1.32 22 -2.64 22 -4 22 C-4 18.7 -4 15.4 -4 12 C-2.68 12 -1.36 12 0 12 C0 8.04 0 4.08 0 0 Z " fill="#FFD600" transform="translate(376,23)"/>
<path d="M0 0 C0 3.96 0 7.92 0 12 C-1.60875 11.938125 -1.60875 11.938125 -3.25 11.875 C-6.65712165 11.98857072 -8.26226767 12.10464685 -11 14 C-12.14654482 16.29308963 -12.19729117 17.79909656 -12.31640625 20.3515625 C-12.35830078 21.20234375 -12.40019531 22.053125 -12.44335938 22.9296875 C-12.48267578 23.81914063 -12.52199219 24.70859375 -12.5625 25.625 C-12.60568359 26.5221875 -12.64886719 27.419375 -12.69335938 28.34375 C-12.79956715 30.56231239 -12.90029959 32.78113565 -13 35 C-17.29 35 -21.58 35 -26 35 C-26 23.78 -26 12.56 -26 1 C-21.71 1 -17.42 1 -13 1 C-12.67 1.66 -12.34 2.32 -12 3 C-11.319375 2.505 -10.63875 2.01 -9.9375 1.5 C-6.40534991 -0.30365111 -3.91363009 -0.23021353 0 0 Z " fill="#FFD600" transform="translate(234,34)"/>
<path d="M0 0 C10.89 0 21.78 0 33 0 C30.0685864 13.19136118 25.14081129 20.73241623 13.87890625 28.01953125 C3.3118422 34.21317457 3.3118422 34.21317457 -2.0390625 32.8359375 C-11.25312264 28.90803138 -19.07021874 23.23081758 -23 13.75 C-23.95055651 10.1854131 -24.04532987 9.2811743 -23 6 C-17.125 9.625 -17.125 9.625 -16 13 C-15.4225 13.28875 -14.845 13.5775 -14.25 13.875 C-11.24644046 15.37677977 -9.3667705 17.6332295 -7 20 C-2.96919703 22.97377422 -0.15240691 23.33795172 4.8125 23.1875 C5.97394531 23.16042969 7.13539062 23.13335937 8.33203125 23.10546875 C9.21246094 23.07066406 10.09289062 23.03585938 11 23 C11.268125 22.21625 11.53625 21.4325 11.8125 20.625 C13 18 13 18 16 16 C17.65 16.99 19.3 17.98 21 19 C26.4011946 13.44877222 27.04355623 10.13022036 30 2 C20.76 2 11.52 2 2 2 C2 3.98 2 5.96 2 8 C7.61 8 13.22 8 19 8 C17.2335539 12.41611524 16.44893687 14.08995952 13 17 C12.34 17 11.68 17 11 17 C11 17.66 11 18.32 11 19 C9.68 18.67 8.36 18.34 7 18 C8.423125 17.1028125 8.423125 17.1028125 9.875 16.1875 C13.13964197 14.18437474 13.13964197 14.18437474 15 11 C10.05 10.67 5.1 10.34 0 10 C0 6.7 0 3.4 0 0 Z " fill="#ECC623" transform="translate(64,38)"/>
<path d="M0 0 C5.50102837 0.41257713 9.76201664 2.54722675 14 6 C14 6.66 14 7.32 14 8 C2.6645011 8.11603026 -8.6708557 8.20478476 -20.00682831 8.25906086 C-25.27104217 8.28511544 -30.53484868 8.32043808 -35.79882812 8.37719727 C-40.88224776 8.43166434 -45.96527645 8.46145166 -51.04896545 8.47438622 C-52.98501232 8.48359972 -54.92103864 8.50159175 -56.85691833 8.52865028 C-59.5763005 8.56513634 -62.29408294 8.56993725 -65.01367188 8.56762695 C-65.80777466 8.58560333 -66.60187744 8.60357971 -67.42004395 8.62210083 C-73.45236987 8.56692416 -77.20961324 6.58690616 -82 3 C-81.67 2.34 -81.34 1.68 -81 1 C-79.32164063 1.48218994 -79.32164063 1.48218994 -77.609375 1.97412109 C-72.80706516 3.16982351 -68.18076684 3.34748856 -63.25 3.4140625 C-62.35128174 3.43342865 -61.45256348 3.4527948 -60.52661133 3.4727478 C-57.68450104 3.53204608 -54.84234915 3.57872808 -52 3.625 C-50.06118124 3.66322567 -48.12237862 3.70228 -46.18359375 3.7421875 C-41.4558619 3.8377061 -36.72805068 3.9219186 -32 4 C-32 4.66 -32 5.32 -32 6 C-18.14 6 -4.28 6 10 6 C5.05 3.525 5.05 3.525 0 1 C0 0.67 0 0.34 0 0 Z " fill="#EAC336" transform="translate(82,18)"/>
<path d="M0 0 C10.89 0 21.78 0 33 0 C30.47394766 11.36723552 26.67951708 19.29638623 17 26 C4.76582476 33.52416589 4.76582476 33.52416589 -1 33 C1.48838068 30.04768393 3.96057977 29.14295106 7.5625 27.875 C16.21769432 24.38144884 23.485761 18.73017849 27.28125 10.01953125 C28.22766561 7.36030913 29.10741024 4.67776928 30 2 C20.76 2 11.52 2 2 2 C2 3.98 2 5.96 2 8 C7.61 8 13.22 8 19 8 C17.2335539 12.41611524 16.44893687 14.08995952 13 17 C12.34 17 11.68 17 11 17 C11 17.66 11 18.32 11 19 C9.68 18.67 8.36 18.34 7 18 C8.423125 17.1028125 8.423125 17.1028125 9.875 16.1875 C13.13964197 14.18437474 13.13964197 14.18437474 15 11 C10.05 10.67 5.1 10.34 0 10 C0 6.7 0 3.4 0 0 Z " fill="#E7C02F" transform="translate(64,38)"/>
<path d="M0 0 C9.24 0 18.48 0 28 0 C26 8 26 8 24 10 C21.31160615 10.26991906 18.70858064 10.08737357 16 10 C16.33 8.68 16.66 7.36 17 6 C11.39 6 5.78 6 0 6 C0 4.02 0 2.04 0 0 Z " fill="#FDFCA3" transform="translate(66,40)"/>
<path d="M0 0 C17.82 0 35.64 0 54 0 C54 0.66 54 1.32 54 2 C53.46890625 2.21914063 52.9378125 2.43828125 52.390625 2.6640625 C47.36336611 4.9208247 44.43622319 6.83520684 42 12 C41.42598702 14.99762336 41.13543209 17.95277789 41 21 C40.67 21 40.34 21 40 21 C39.78142662 19.15123352 39.62761562 17.29476306 39.5 15.4375 C39.4071875 14.40496094 39.314375 13.37242188 39.21875 12.30859375 C40 9 40 9 48 2 C36.78 2 25.56 2 14 2 C13.67 2.66 13.34 3.32 13 4 C18.445 4.495 18.445 4.495 24 5 C24 5.99 24 6.98 24 8 C8.23605996 9.03307374 8.23605996 9.03307374 3 5.125 C1.1875 3.5078125 1.1875 3.5078125 0 2 C0 1.34 0 0.68 0 0 Z " fill="#E3B637" transform="translate(11,28)"/>
<path d="M0 0 C2.97 0 5.94 0 9 0 C9 4.38968456 6.87194899 5.76905739 4 9 C1.525 7.515 1.525 7.515 -1 6 C-3.87420123 8.71604715 -3.87420123 8.71604715 -6 12 C-10.96889804 13.66350065 -16.43224046 14.03830545 -21.328125 12.05859375 C-24.74268135 10.09952275 -26.65506934 8.97011749 -28 5.1875 C-28 4.465625 -28 3.74375 -28 3 C-26.7315625 4.2375 -26.7315625 4.2375 -25.4375 5.5 C-19.87240368 9.59877426 -12.56326684 8.38011198 -6 8 C-6 7.34 -6 6.68 -6 6 C-4.34997172 4.64613064 -2.6825613 3.31321858 -1 2 C-0.67 1.34 -0.34 0.68 0 0 Z " fill="#F5D131" transform="translate(81,49)"/>
<path d="M0 0 C1.11375 0.598125 2.2275 1.19625 3.375 1.8125 C4.00148438 2.14894531 4.62796875 2.48539063 5.2734375 2.83203125 C8.14994201 4.77790195 9.03986483 7.1112019 10.1875 10.3125 C12.45337689 15.79708406 17.20680386 18.80453591 22 22 C22 23.32 22 24.64 22 26 C13.953477 23.98836925 7.68675724 18.69536748 3 12 C0.99578566 7.82994113 0 4.66894324 0 0 Z " fill="#B67A09" transform="translate(40,44)"/>
<path d="M0 0 C3.16634636 -0.11760715 6.33212074 -0.18771024 9.5 -0.25 C10.386875 -0.28351562 11.27375 -0.31703125 12.1875 -0.3515625 C18.25646946 -0.44081205 22.98523846 0.39957345 28 4 C28.495 4.99 28.495 4.99 29 6 C18.11 6 7.22 6 -4 6 C-4 5.67 -4 5.34 -4 5 C-2.35 5 -0.7 5 1 5 C0.67 3.35 0.34 1.7 0 0 Z " fill="#FEFEA6" transform="translate(64,19)"/>
<path d="M0 0 C17.16 0 34.32 0 52 0 C52 0.66 52 1.32 52 2 C46.83502528 3.0474132 41.86562482 3.16110398 36.62109375 3.16796875 C35.28655907 3.17296135 35.28655907 3.17296135 33.92506409 3.17805481 C32.05169184 3.18309901 30.17831067 3.18546391 28.30493164 3.18530273 C25.44337223 3.1874955 22.58219477 3.20569489 19.72070312 3.22460938 C17.89583465 3.22754259 16.07096434 3.22952787 14.24609375 3.23046875 C12.96779945 3.24124702 12.96779945 3.24124702 11.66368103 3.25224304 C7.32160065 3.2355674 3.95479648 3.0278818 0 1 C0 0.67 0 0.34 0 0 Z " fill="#FFFFAC" transform="translate(0,18)"/>
<path d="M0 0 C11.55 0 23.1 0 35 0 C33.35 1.65 31.7 3.3 30 5 C27.83171097 7.60194683 25.87945712 10.18081431 24 13 C24.52464905 8.38308839 25.07490914 6.90012114 28 3 C18.43 3 8.86 3 -1 3 C-0.67 2.01 -0.34 1.02 0 0 Z " fill="#FDFDCA" transform="translate(25,29)"/>
<path d="M0 0 C5.94 0.33 11.88 0.66 18 1 C17.67 3.64 17.34 6.28 17 9 C9.76781908 8.77399435 5.14130315 7.28139315 0 2 C0 1.34 0 0.68 0 0 Z " fill="#E5C337" transform="translate(22,37)"/>
<path d="M0 0 C1.25683594 0.31710938 2.51367188 0.63421875 3.80859375 0.9609375 C9.2190102 2.16325227 14.53671872 2.44042275 20.0625 2.625 C21.02349609 2.66367187 21.98449219 2.70234375 22.97460938 2.7421875 C25.31622814 2.83538626 27.65786037 2.92119185 30 3 C27.4345406 5.5654594 25.52313332 5.54046087 22 6 C22 6.33 22 6.66 22 7 C7.70701925 7.9033485 7.70701925 7.9033485 1.2578125 3.2890625 C0 2 0 2 0 0 Z " fill="#DC9604" transform="translate(0,19)"/>
<path d="M0 0 C0.66 0.66 1.32 1.32 2 2 C-4.31630089 13.89091493 -12.50719274 20.73734496 -25 26 C-27.89453125 26.19140625 -27.89453125 26.19140625 -30 26 C-27.51161932 23.04768393 -25.03942023 22.14295106 -21.4375 20.875 C-11.28735814 16.77070535 -4.467624 9.94634186 0 0 Z " fill="#562704" transform="translate(93,45)"/>
<path d="M0 0 C0.99 0.33 1.98 0.66 3 1 C2.34 1 1.68 1 1 1 C1.33 3.31 1.66 5.62 2 8 C7.61 8 13.22 8 19 8 C17.2335539 12.41611524 16.44893687 14.08995952 13 17 C12.34 17 11.68 17 11 17 C11 17.66 11 18.32 11 19 C9.68 18.67 8.36 18.34 7 18 C8.423125 17.1028125 8.423125 17.1028125 9.875 16.1875 C13.13964197 14.18437474 13.13964197 14.18437474 15 11 C10.05 10.67 5.1 10.34 0 10 C0 6.7 0 3.4 0 0 Z " fill="#8C500A" transform="translate(64,38)"/>
<path d="M0 0 C0.61875 0.70125 1.2375 1.4025 1.875 2.125 C4.37982111 4.70945415 7.07234036 6.15082984 10.25 7.8125 C14.7460314 10.36736651 14.7460314 10.36736651 15.8671875 13.16015625 C16.125 15.375 16.125 15.375 16 19 C15.01 19 14.02 19 13 19 C12.95875 18.4225 12.9175 17.845 12.875 17.25 C11.56159373 13.87266958 9.01350808 12.91241859 6 11 C2.74117121 8.24810013 1.21136237 6.86170813 0.1875 2.6875 C0.125625 1.800625 0.06375 0.91375 0 0 Z " fill="#C47A04" transform="translate(49,51)"/>
<path d="M0 0 C17.16 0 34.32 0 52 0 C52 0.66 52 1.32 52 2 C47.545 2.495 47.545 2.495 43 3 C43 2.67 43 2.34 43 2 C31.45 1.67 19.9 1.34 8 1 C8 1.66 8 2.32 8 3 C5.6568787 2.74438677 3.32156597 2.40729228 1 2 C0.67 1.34 0.34 0.68 0 0 Z " fill="#FAF6A5" transform="translate(0,18)"/>
<path d="M0 0 C2.35422322 0.3120785 4.70837894 0.62465262 7.0625 0.9375 C7.71927734 1.02451172 8.37605469 1.11152344 9.05273438 1.20117188 C13.37231192 1.77569697 17.68707577 2.37745827 22 3 C22 3.99 22 4.98 22 6 C19.45651575 6.13593443 16.92038504 6.23448907 14.375 6.3125 C13.66214844 6.35439453 12.94929688 6.39628906 12.21484375 6.43945312 C8.11591293 6.5334653 5.70831852 6.18290113 2.4765625 3.54296875 C0 1 0 1 0 0 Z " fill="#743C03" transform="translate(13,30)"/>
<path d="M0 0 C2.97 0 5.94 0 9 0 C9 4.38968456 6.87194899 5.76905739 4 9 C3.278125 8.46375 2.55625 7.9275 1.8125 7.375 C-0.93706631 5.64088949 -0.93706631 5.64088949 -3.8125 6.8125 C-4.534375 7.204375 -5.25625 7.59625 -6 8 C-6 7.34 -6 6.68 -6 6 C-4.34997172 4.64613064 -2.6825613 3.31321858 -1 2 C-0.67 1.34 -0.34 0.68 0 0 Z " fill="#F5E65C" transform="translate(81,49)"/>
<path d="M0 0 C0.99 1.485 0.99 1.485 2 3 C-3.28 3 -8.56 3 -14 3 C-14.33 2.34 -14.66 1.68 -15 1 C-14.67 0.01 -14.34 -0.98 -14 -2 C-9.05535839 -3.75455025 -4.54951104 -2.25241018 0 0 Z " fill="#FEF877" transform="translate(91,22)"/>
<path d="M0 0 C3.36601064 1.12200355 4.06243251 2.00415203 6.25 4.6875 C9.1495358 8.13108516 12.18137449 10.99325729 15.71484375 13.7734375 C16.13894531 14.17820312 16.56304687 14.58296875 17 15 C17 15.66 17 16.32 17 17 C10.04736279 15.43565663 5.10889696 10.89973332 1 5.25 C0 3 0 3 0 0 Z " fill="#522600" transform="translate(43,50)"/>
<path d="M0 0 C8.25 0 16.5 0 25 0 C24.67 0.99 24.34 1.98 24 3 C15.585 3.495 15.585 3.495 7 4 C7 3.01 7 2.02 7 1 C4.69 1 2.38 1 0 1 C0 0.67 0 0.34 0 0 Z " fill="#FCE453" transform="translate(28,32)"/>
<path d="M0 0 C3.02227062 1.00742354 3.88609233 1.79000562 6 4 C6.33 4 6.66 4 7 4 C7.33 7.3 7.66 10.6 8 14 C0.125 8.375 0.125 8.375 -1 5 C-0.5625 2.3125 -0.5625 2.3125 0 0 Z " fill="#DE9F0B" transform="translate(41,37)"/>
<path d="M0 0 C2.475 0.99 2.475 0.99 5 2 C5 2.66 5 3.32 5 4 C2.69921875 5.76171875 2.69921875 5.76171875 -0.3125 7.6875 C-1.29863281 8.33074219 -2.28476563 8.97398438 -3.30078125 9.63671875 C-4.19152344 10.08660156 -5.08226563 10.53648438 -6 11 C-6.99 10.67 -7.98 10.34 -9 10 C-8.34 10 -7.68 10 -7 10 C-6.67 9.01 -6.34 8.02 -6 7 C-5.34 7 -4.68 7 -4 7 C-3.71125 6.21625 -3.4225 5.4325 -3.125 4.625 C-2 2 -2 2 0 0 Z " fill="#E8A405" transform="translate(79,54)"/>
<path d="M0 0 C0.66 0 1.32 0 2 0 C2.33 0.66 2.66 1.32 3 2 C5.80478195 2.91485573 5.80478195 2.91485573 9.0625 3.625 C10.16722656 3.88539062 11.27195312 4.14578125 12.41015625 4.4140625 C13.26480469 4.60742188 14.11945312 4.80078125 15 5 C15 5.66 15 6.32 15 7 C15.66 7 16.32 7 17 7 C17 7.66 17 8.32 17 9 C10.46843612 8.96976128 6.54946948 7.53145045 1.43359375 3.47265625 C0 2 0 2 0 0 Z " fill="#965908" transform="translate(22,37)"/>
<path d="M0 0 C6.93 0 13.86 0 21 0 C21 0.33 21 0.66 21 1 C20.030625 1.12375 19.06125 1.2475 18.0625 1.375 C16.5465625 1.684375 16.5465625 1.684375 15 2 C14.67 2.66 14.34 3.32 14 4 C11.69 4 9.38 4 7 4 C6.67 3.34 6.34 2.68 6 2 C2.97065509 1.34227572 2.97065509 1.34227572 0 1 C0 0.67 0 0.34 0 0 Z " fill="#FEFEC0" transform="translate(67,41)"/>
<path d="M0 0 C-0.7425 0.721875 -1.485 1.44375 -2.25 2.1875 C-5.5650275 5.57786904 -8.37189065 9.05783597 -11 13 C-10.5205537 8.78087253 -9.83374881 6.20336822 -7 3 C-9.97 2.505 -9.97 2.505 -13 2 C-13 1.67 -13 1.34 -13 1 C-8.59085217 -0.10228696 -4.51617599 -0.07654536 0 0 Z " fill="#FBF8C2" transform="translate(60,29)"/>
<path d="M0 0 C4.62 0.99 9.24 1.98 14 3 C13.01 4.32 12.02 5.64 11 7 C6.4923533 6.46968862 3.58045212 4.74778884 0 2 C0 1.34 0 0.68 0 0 Z " fill="#8F4F0A" transform="translate(0,19)"/>
<path d="M0 0 C0.928125 0.825 1.85625 1.65 2.8125 2.5 C7.56544711 5.97180293 12.34702113 5.46000732 18 5 C16.2841869 7.12085751 15.38482316 7.92868886 12.66015625 8.43359375 C5.65034028 8.44413483 5.65034028 8.44413483 2.4375 6.25 C1.04751786 4.07437579 0.54794977 2.48403894 0 0 Z " fill="#DEBF3C" transform="translate(53,52)"/>
<path d="M0 0 C2.31 0 4.62 0 7 0 C7.33 0.99 7.66 1.98 8 3 C10.97 3 13.94 3 17 3 C17 3.33 17 3.66 17 4 C11.39 4 5.78 4 0 4 C0 2.68 0 1.36 0 0 Z " fill="#FBF795" transform="translate(66,42)"/>
<path d="M0 0 C1.65322266 0.01740234 1.65322266 0.01740234 3.33984375 0.03515625 C4.99693359 0.04869141 4.99693359 0.04869141 6.6875 0.0625 C7.54214844 0.07410156 8.39679687 0.08570312 9.27734375 0.09765625 C8.0390625 2.08203125 8.0390625 2.08203125 6.27734375 4.09765625 C3.51592072 4.62565301 1.1136883 4.28364606 -1.72265625 4.09765625 C-1.72265625 3.43765625 -1.72265625 2.77765625 -1.72265625 2.09765625 C-2.38265625 1.76765625 -3.04265625 1.43765625 -3.72265625 1.09765625 C-2.72265625 0.09765625 -2.72265625 0.09765625 0 0 Z " fill="#F9D22A" transform="translate(51.72265625,19.90234375)"/>
<path d="M0 0 C4.95 0 9.9 0 15 0 C14.34 2.64 13.68 5.28 13 8 C12.34 7.67 11.68 7.34 11 7 C11.33 5.35 11.66 3.7 12 2 C8.04 1.67 4.08 1.34 0 1 C0 0.67 0 0.34 0 0 Z " fill="#CD991E" transform="translate(82,38)"/>
<path d="M0 0 C0.33 0 0.66 0 1 0 C1.03738281 0.64066406 1.07476562 1.28132813 1.11328125 1.94140625 C1.54337277 7.60006141 2.46086906 11.92173813 5 17 C1.52837986 15.84279329 0.86843073 15.0574321 -1 12 C-2.5589547 7.56297509 -1.45698441 4.37095322 0 0 Z " fill="#F6E466" transform="translate(50,39)"/>
<path d="M0 0 C1.98 0 3.96 0 6 0 C5.39816251 2.02045442 4.72693904 4.02111039 4 6 C3.01 6.495 3.01 6.495 2 7 C1.67 6.34 1.34 5.68 1 5 C0.01 4.67 -0.98 4.34 -2 4 C-1.34 2.68 -0.68 1.36 0 0 Z " fill="#F9D42D" transform="translate(82,51)"/>
<path d="M0 0 C2.875 0.5625 2.875 0.5625 6 2 C7.375 5.625 7.375 5.625 8 9 C6.68 8.34 5.36 7.68 4 7 C4 6.34 4 5.68 4 5 C2.68 5 1.36 5 0 5 C0 3.35 0 1.7 0 0 Z " fill="#AA6200" transform="translate(42,46)"/>
<path d="M0 0 C-0.928125 0.556875 -1.85625 1.11375 -2.8125 1.6875 C-6.68500559 4.49696484 -8.57708431 6.53713801 -9.3984375 11.3203125 C-9.65668853 13.54685513 -9.85868107 15.76326239 -10 18 C-10.33 18 -10.66 18 -11 18 C-12.213972 7.73182019 -12.213972 7.73182019 -9.32421875 3.609375 C-3.87521626 -1.29173875 -3.87521626 -1.29173875 0 0 Z " fill="#A3650D" transform="translate(62,31)"/>
<path d="M0 0 C5.61 0.33 11.22 0.66 17 1 C14 4 14 4 10.3125 4.1875 C8.6728125 4.0946875 8.6728125 4.0946875 7 4 C7 3.01 7 2.02 7 1 C4.69 1 2.38 1 0 1 C0 0.67 0 0.34 0 0 Z " fill="#D6950F" transform="translate(28,32)"/>
<path d="M0 0 C3.96 0 7.92 0 12 0 C11.67 0.99 11.34 1.98 11 3 C5.71910976 3.30466674 4.422832 3.317124 0 0 Z " fill="#F0E24C" transform="translate(13,29)"/>
<path d="M0 0 C0.66 0.66 1.32 1.32 2 2 C-6.261959 6.59225513 -6.261959 6.59225513 -11 6 C-8.7991151 3.52140092 -6.93627031 2.38789634 -3.8125 1.3125 C-3.09707031 1.06113281 -2.38164063 0.80976562 -1.64453125 0.55078125 C-1.10183594 0.36902344 -0.55914062 0.18726562 0 0 Z " fill="#572B04" transform="translate(74,65)"/>
<path d="M0 0 C0.66 0.66 1.32 1.32 2 2 C-0.97 6.95 -0.97 6.95 -4 12 C-4.66 11.34 -5.32 10.68 -6 10 C-4.07119658 6.59244728 -2.1723491 3.25852365 0 0 Z " fill="#874B0B" transform="translate(93,45)"/>
<path d="M0 0 C4.1424367 1.38081223 5.32203099 3.59825558 8 7 C7.01 7.33 6.02 7.66 5 8 C2.5 5.6875 2.5 5.6875 0 3 C0 2.01 0 1.02 0 0 Z " fill="#6D3700" transform="translate(43,50)"/>
<path d="M0 0 C3.04492309 1.01497436 4.0298639 1.5821057 6 4 C6.6875 6.1875 6.6875 6.1875 7 8 C4.69 7.34 2.38 6.68 0 6 C0 4.02 0 2.04 0 0 Z " fill="#F5CC2B" transform="translate(41,37)"/>
<path d="M0 0 C0.66 0 1.32 0 2 0 C2.33 0.66 2.66 1.32 3 2 C5.11327425 2.90725434 5.11327425 2.90725434 7.5625 3.625 C8.38878906 3.88539062 9.21507812 4.14578125 10.06640625 4.4140625 C11.02353516 4.70410156 11.02353516 4.70410156 12 5 C12 5.66 12 6.32 12 7 C6.75900345 6.58894145 3.75960806 5.75960806 0 2 C0 1.34 0 0.68 0 0 Z " fill="#643407" transform="translate(22,37)"/>
<path d="M0 0 C3.96 0 7.92 0 12 0 C12.33 1.65 12.66 3.3 13 5 C11.68 5 10.36 5 9 5 C9.33 4.01 9.66 3.02 10 2 C6.7 1.67 3.4 1.34 0 1 C0 0.67 0 0.34 0 0 Z " fill="#FFF86F" transform="translate(52,19)"/>
<path d="M0 0 C1.093125 0.0825 2.18625 0.165 3.3125 0.25 C2.25 2.25 2.25 2.25 0.3125 4.25 C-3.375 4.5 -3.375 4.5 -6.6875 4.25 C-4.79150483 0.68106792 -4.16790733 0.28256999 0 0 Z " fill="#C27603" transform="translate(17.6875,21.75)"/>
<path d="M0 0 C0.99 0.33 1.98 0.66 3 1 C3.33 3.64 3.66 6.28 4 9 C3.01 9 2.02 9 1 9 C-1.125 3.375 -1.125 3.375 0 0 Z " fill="#D89202" transform="translate(61,61)"/>
<path d="M0 0 C6.15234375 0.5859375 6.15234375 0.5859375 8 1 C8.33 1.66 8.66 2.32 9 3 C6.03 3 3.06 3 0 3 C0 2.01 0 1.02 0 0 Z " fill="#FCDE36" transform="translate(80,21)"/>
<path d="M0 0 C2.64 0 5.28 0 8 0 C7.67 0.99 7.34 1.98 7 3 C4.03 2.505 4.03 2.505 1 2 C0.01 3.485 0.01 3.485 -1 5 C-0.67 3.35 -0.34 1.7 0 0 Z " fill="#FDF87E" transform="translate(43,35)"/>
<path d="M0 0 C1.98 0 3.96 0 6 0 C6 0.99 6 1.98 6 3 C3.69 3 1.38 3 -1 3 C-0.67 2.01 -0.34 1.02 0 0 Z " fill="#FDFB84" transform="translate(25,29)"/>
<path d="M0 0 C2.475 0.99 2.475 0.99 5 2 C5.33 1.34 5.66 0.68 6 0 C6.33 1.65 6.66 3.3 7 5 C1.25 3.25 1.25 3.25 -1 1 C-0.67 0.67 -0.34 0.34 0 0 Z " fill="#995802" transform="translate(55,65)"/>
<path d="M0 0 C1.21816406 0.03480469 1.21816406 0.03480469 2.4609375 0.0703125 C3.68683594 0.09738281 3.68683594 0.09738281 4.9375 0.125 C5.87722656 0.15980469 5.87722656 0.15980469 6.8359375 0.1953125 C5.59765625 1.71484375 5.59765625 1.71484375 3.8359375 3.1953125 C1.05057902 3.29650143 -1.39942007 2.69385458 -4.1640625 2.1953125 C-2.1640625 0.1953125 -2.1640625 0.1953125 0 0 Z " fill="#CB9722" transform="translate(64.1640625,56.8046875)"/>
<path d="M0 0 C1.258125 0.12375 2.51625 0.2475 3.8125 0.375 C4.87404297 0.47941406 4.87404297 0.47941406 5.95703125 0.5859375 C8 1 8 1 11 3 C3.49230769 3.36923077 3.49230769 3.36923077 1 1.5 C0.67 1.005 0.34 0.51 0 0 Z " fill="#F9E33F" transform="translate(59,59)"/>
<path d="M0 0 C0.66 0.66 1.32 1.32 2 2 C0.71034824 3.37562854 -0.62689293 4.70766393 -2 6 C-2.66 6 -3.32 6 -4 6 C-4 6.66 -4 7.32 -4 8 C-5.32 7.67 -6.64 7.34 -8 7 C-7.05125 6.401875 -6.1025 5.80375 -5.125 5.1875 C-1.86035803 3.18437474 -1.86035803 3.18437474 0 0 Z " fill="#AC660D" transform="translate(79,49)"/>
<path d="M0 0 C2.475 0.495 2.475 0.495 5 1 C5 1.66 5 2.32 5 3 C5.66 3.33 6.32 3.66 7 4 C4.69 4 2.38 4 0 4 C0 2.68 0 1.36 0 0 Z " fill="#F9EF6D" transform="translate(66,42)"/>
<path d="M0 0 C-1.25 1.5 -1.25 1.5 -3 3 C-4.32 3 -5.64 3 -7 3 C-7 2.01 -7 1.02 -7 0 C-3.86650268 -1.04449911 -3.01031744 -0.93423645 0 0 Z " fill="#FCDC37" transform="translate(61,21)"/>
<path d="M0 0 C0.99 0 1.98 0 3 0 C3 0.99 3 1.98 3 3 C2.01 2.67 1.02 2.34 0 2 C0 1.34 0 0.68 0 0 Z " fill="#A1772D" transform="translate(29,51)"/>
<path d="M0 0 C1.32 0.33 2.64 0.66 4 1 C3.67 1.66 3.34 2.32 3 3 C2.01 2.67 1.02 2.34 0 2 C0 1.34 0 0.68 0 0 Z " fill="#6D5A3B" transform="translate(63,83)"/>
<path d="M0 0 C0.99 0.33 1.98 0.66 3 1 C3 1.66 3 2.32 3 3 C2.01 2.67 1.02 2.34 0 2 C0 1.34 0 0.68 0 0 Z " fill="#A97B29" transform="translate(36,54)"/>
<path d="M0 0 C0.66 0 1.32 0 2 0 C1.67 0.99 1.34 1.98 1 3 C0.67 2.01 0.34 1.02 0 0 Z " fill="#7C5F34" transform="translate(56,77)"/>
<path d="M0 0 C0.66 0 1.32 0 2 0 C2 0.66 2 1.32 2 2 C1.34 2 0.68 2 0 2 C0 1.34 0 0.68 0 0 Z " fill="#75592C" transform="translate(68,75)"/>
<path d="M0 0 C0.66 0 1.32 0 2 0 C2 0.66 2 1.32 2 2 C1.34 2 0.68 2 0 2 C0 1.34 0 0.68 0 0 Z " fill="#826331" transform="translate(51,74)"/>
<path d="M0 0 C0.66 0 1.32 0 2 0 C2 0.66 2 1.32 2 2 C1.34 2 0.68 2 0 2 C0 1.34 0 0.68 0 0 Z " fill="#806233" transform="translate(46,74)"/>
<path d="M0 0 C0.66 0 1.32 0 2 0 C2 0.66 2 1.32 2 2 C1.34 2 0.68 2 0 2 C0 1.34 0 0.68 0 0 Z " fill="#886630" transform="translate(45,71)"/>
<path d="M0 0 C0.66 0 1.32 0 2 0 C2 0.66 2 1.32 2 2 C1.34 2 0.68 2 0 2 C0 1.34 0 0.68 0 0 Z " fill="#734E16" transform="translate(73,69)"/>
<path d="M0 0 C0.66 0 1.32 0 2 0 C2 0.66 2 1.32 2 2 C1.34 2 0.68 2 0 2 C0 1.34 0 0.68 0 0 Z " fill="#906A2E" transform="translate(38,66)"/>
<path d="M0 0 C0.66 0 1.32 0 2 0 C2 0.66 2 1.32 2 2 C1.34 2 0.68 2 0 2 C0 1.34 0 0.68 0 0 Z " fill="#8C6A32" transform="translate(33,64)"/>
<path d="M0 0 C0.66 0 1.32 0 2 0 C2 0.66 2 1.32 2 2 C1.34 2 0.68 2 0 2 C0 1.34 0 0.68 0 0 Z " fill="#9A7532" transform="translate(27,56)"/>
<path d="M0 0 C0.66 0 1.32 0 2 0 C2 0.66 2 1.32 2 2 C1.34 2 0.68 2 0 2 C0 1.34 0 0.68 0 0 Z " fill="#916A29" transform="translate(21,44)"/>
<path d="M0 0 C0.66 0 1.32 0 2 0 C2 0.66 2 1.32 2 2 C1.34 2 0.68 2 0 2 C0 1.34 0 0.68 0 0 Z " fill="#926C2B" transform="translate(17,43)"/>
<path d="M0 0 C0.66 0 1.32 0 2 0 C2 0.66 2 1.32 2 2 C1.34 2 0.68 2 0 2 C0 1.34 0 0.68 0 0 Z " fill="#936C2B" transform="translate(13,39)"/>
<path d="M0 0 C0.66 0 1.32 0 2 0 C1.67 0.66 1.34 1.32 1 2 C0.67 1.34 0.34 0.68 0 0 Z " fill="#937031" transform="translate(31,61)"/>
<path d="M0 0 C0.33 0.66 0.66 1.32 1 2 C0.34 1.67 -0.32 1.34 -1 1 C-0.67 0.67 -0.34 0.34 0 0 Z " fill="#A67826" transform="translate(39,57)"/>
<path d="M0 0 C0.66 0 1.32 0 2 0 C1.67 0.66 1.34 1.32 1 2 C0.67 1.34 0.34 0.68 0 0 Z " fill="#956824" transform="translate(20,40)"/>
<path d="M0 0 C2 1 2 1 2 1 Z " fill="#705C3D" transform="translate(53,84)"/>
<path d="" fill="#775C33" transform="translate(0,0)"/>
<path d="M0 0 C2 1 2 1 2 1 Z " fill="#7B5F35" transform="translate(53,78)"/>
<path d="" fill="#83612B" transform="translate(0,0)"/>
<path d="" fill="#8A672D" transform="translate(0,0)"/>
<path d="" fill="#A77726" transform="translate(0,0)"/>
<path d="" fill="#A5782C" transform="translate(0,0)"/>
<path d="" fill="#896731" transform="translate(0,0)"/>
<path d="" fill="#9D6D21" transform="translate(0,0)"/>
<path d="" fill="#946A28" transform="translate(0,0)"/>
</svg>
