<?xml version="1.0" encoding="UTF-8"?>
<svg version="1.1" xmlns="http://www.w3.org/2000/svg" width="463" height="94">
<path d="M0 0 C34.9483871 0 34.9483871 0 40.83984375 5.81640625 C41.38318359 6.68072266 41.38318359 6.68072266 41.9375 7.5625 C42.31777344 8.14128906 42.69804687 8.72007813 43.08984375 9.31640625 C45.62304028 14.00227622 45.44520064 18.81948347 45 24 C43.29444925 28.75758892 40.68614805 31.5974018 37 35 C36.34 35.66 35.68 36.32 35 37 C35.32798584 37.77190674 35.65597168 38.54381348 35.99389648 39.33911133 C37.2117775 42.2068854 38.42862488 45.0750952 39.64477539 47.94360352 C40.17105464 49.18433887 40.69774393 50.42490038 41.22485352 51.6652832 C41.98301592 53.44957305 42.73957548 55.23454369 43.49609375 57.01953125 C44.17949829 58.62985229 44.17949829 58.62985229 44.87670898 60.27270508 C45.6521122 62.15534567 46.35613777 64.0684133 47 66 C43.04 66 39.08 66 35 66 C33.37360349 62.43813164 31.74883236 58.87553713 30.125 55.3125 C29.66480469 54.30509766 29.20460937 53.29769531 28.73046875 52.25976562 C28.28574219 51.28330078 27.84101563 50.30683594 27.3828125 49.30078125 C26.97434082 48.40528564 26.56586914 47.50979004 26.14501953 46.5871582 C25.03702819 44.08366477 24.01676459 41.54191147 23 39 C19.04 38.67 15.08 38.34 11 38 C11 47.24 11 56.48 11 66 C7.37 66 3.74 66 0 66 C0 44.22 0 22.44 0 0 Z M11 11 C11 16.28 11 21.56 11 27 C14.08427046 27.10800947 17.16475747 27.18731002 20.25 27.25 C21.55904297 27.30027344 21.55904297 27.30027344 22.89453125 27.3515625 C28.05360153 27.47230077 28.05360153 27.47230077 32.578125 25.234375 C34.06361637 22.90003141 34.54276275 21.73681574 34.5 19 C34.5103125 18.34 34.520625 17.68 34.53125 17 C33.69992688 13.87031296 32.68833688 12.84110344 30 11 C26.73562492 10.51336631 23.54096834 10.62361126 20.25 10.75 C19.36183594 10.76804687 18.47367188 10.78609375 17.55859375 10.8046875 C15.37193225 10.85171248 13.18582719 10.92345352 11 11 Z " fill="#CBC195" transform="translate(184,14)"/>
<path d="M0 0 C3.7484657 2.17373958 6.70814118 4.44629079 9.4375 7.8125 C9.4375 8.4725 9.4375 9.1325 9.4375 9.8125 C7.90625 11.1015625 7.90625 11.1015625 5.9375 12.4375 C4.96296875 13.10652344 4.96296875 13.10652344 3.96875 13.7890625 C3.4634375 14.12679688 2.958125 14.46453125 2.4375 14.8125 C0.21055286 13.74026619 -1.82230644 12.63695511 -3.875 11.25 C-7.75766625 9.17322503 -11.18398169 8.37920403 -15.578125 9.1796875 C-21.02505576 10.86366228 -24.60224784 13.95730936 -27.5625 18.8125 C-30.7270129 26.59373377 -31.10235062 36.01562096 -27.9375 43.875 C-25.5314818 48.48939919 -22.23786813 51.47481594 -17.5625 53.8125 C-15.77497508 53.96004174 -13.9808716 54.0336522 -12.1875 54.0625 C-10.75277344 54.10117188 -10.75277344 54.10117188 -9.2890625 54.140625 C-6.15858225 53.76389099 -4.9388224 52.80149232 -2.5625 50.8125 C-1.9025 50.8125 -1.2425 50.8125 -0.5625 50.8125 C0.0975 49.1625 0.7575 47.5125 1.4375 45.8125 C5.03141114 47.14738128 8.19240696 48.77272723 11.4375 50.8125 C8.51336787 57.72408503 4.02554874 61.80492614 -2.68359375 64.89453125 C-10.48356626 67.38163239 -18.26833046 66.66822407 -25.5625 63.078125 C-30.18920931 60.15028551 -33.32879455 57.14110619 -36.25 52.5 C-37.12205078 51.14455078 -37.12205078 51.14455078 -38.01171875 49.76171875 C-42.67036975 40.9020676 -42.90481678 30.33117608 -40.91015625 20.64453125 C-37.92485567 11.56050501 -32.66607516 4.47215929 -24.359375 -0.3125 C-16.99228395 -3.89995303 -7.29870264 -3.50645503 0 0 Z " fill="#BDBCB8" transform="translate(43.5625,15.1875)"/>
<path d="M0 0 C4.932333 3.74236455 7.84601623 8.73169826 9.234375 14.6953125 C8.67041016 15.00235107 8.10644531 15.30938965 7.52539062 15.62573242 C4.92700173 17.04223742 2.33068446 18.46249995 -0.265625 19.8828125 C-1.1525 20.36556641 -2.039375 20.84832031 -2.953125 21.34570312 C-11.04904289 25.70920259 -11.04904289 25.70920259 -18.765625 30.6953125 C-18.765625 31.0253125 -18.765625 31.3553125 -18.765625 31.6953125 C-11.86273891 32.26932403 -11.86273891 32.26932403 -5.640625 29.6953125 C-5.021875 29.0353125 -4.403125 28.3753125 -3.765625 27.6953125 C-0.1781037 29.02782041 3.0708373 30.5260295 6.234375 32.6953125 C6.234375 33.3553125 6.234375 34.0153125 6.234375 34.6953125 C5.574375 34.6953125 4.914375 34.6953125 4.234375 34.6953125 C4.028125 35.2728125 3.821875 35.8503125 3.609375 36.4453125 C1.21473126 40.36382044 -2.49313822 42.27115024 -6.765625 43.6953125 C-15.44000046 44.54693421 -22.64091343 44.02918336 -29.765625 38.6953125 C-35.13020346 33.36419295 -37.39352063 27.78846056 -38.078125 20.2578125 C-37.36041808 12.07595363 -33.93718021 6.12243887 -27.765625 0.6953125 C-19.05677411 -5.15440621 -9.04655534 -5.04187002 0 0 Z M-25.640625 14.1328125 C-26.84984117 16.88713821 -27.02050448 18.72171856 -26.765625 21.6953125 C-22.03088403 19.9956619 -17.80395389 17.55872223 -13.453125 15.0703125 C-12.34227539 14.43996094 -12.34227539 14.43996094 -11.20898438 13.796875 C-9.39293489 12.76582755 -7.57905967 11.73095204 -5.765625 10.6953125 C-9.08418337 7.91509804 -11.31129877 7.16238386 -15.73828125 7.34375 C-20.20875955 8.11897745 -22.955319 10.64191469 -25.640625 14.1328125 Z " fill="#C7BA81" transform="translate(275.765625,37.3046875)"/>
<path d="M0 0 C6.33636862 5.45050738 9.59453131 11.71166203 10.23535156 20.06958008 C10.29399113 23.40582388 10.26257077 26.72666295 10.1875 30.0625 C10.16719727 31.79016602 10.16719727 31.79016602 10.14648438 33.55273438 C10.11143093 36.36869475 10.05763525 39.18441129 10 42 C6.37 42 2.74 42 -1 42 C-1 41.34 -1 40.68 -1 40 C-1.85078125 40.48339844 -2.7015625 40.96679688 -3.578125 41.46484375 C-9.98603866 44.33962693 -17.30213291 44.30512956 -23.921875 41.96875 C-30.39685402 38.43694326 -35.38707013 33.12752398 -37.6328125 25.98828125 C-39.00383852 18.56432119 -37.98541411 12.44249833 -34 6 C-25.62184699 -4.9446252 -11.73735967 -7.73054301 0 0 Z M-25.875 13.3125 C-27.56394402 17.34719961 -27.8686812 20.79488619 -26.23828125 24.93359375 C-24.3357423 28.55067372 -22.78773964 30.55054007 -19 32 C-14.94745739 32.63529958 -10.8337176 32.90563196 -7.0859375 31.0546875 C-3.86287782 28.53022204 -1.83516963 25.99025491 -1 22 C-0.93904737 17.72460839 -1.51455483 14.77001647 -3.8125 11.125 C-7.28342035 7.75324881 -8.98267183 7.09845111 -13.875 6.625 C-19.2531018 6.77522631 -22.52727496 9.18363912 -25.875 13.3125 Z " fill="#D9C35B" transform="translate(424,38)"/>
<path d="M0 0 C6.48491637 3.62907879 10.33286512 9.02477642 12.6875 16 C12.91455078 19.13793945 12.91455078 19.13793945 12.8828125 22.61328125 C12.87636719 23.86044922 12.86992188 25.10761719 12.86328125 26.39257812 C12.84652344 27.68615234 12.82976562 28.97972656 12.8125 30.3125 C12.80347656 31.62541016 12.79445312 32.93832031 12.78515625 34.29101562 C12.76161797 37.52752913 12.7287352 40.76367149 12.6875 44 C8.02083333 44 3.35416667 44 -1.3125 44 C-2.7975 44.495 -2.7975 44.495 -4.3125 45 C-11.97574037 45.63947697 -19.05473391 45.92661848 -25.3125 41 C-30.26725219 36.29101925 -33.88056918 31.9225345 -34.6484375 24.94921875 C-34.74385685 16.98170294 -34.25053881 11.26945791 -28.734375 5.2890625 C-20.47847638 -2.33462767 -10.41215582 -4.64156344 0 0 Z M-21.3125 13 C-24.05663961 17.43211552 -24.07055039 21.9410111 -23.3125 27 C-21.86368583 30.30194858 -19.75627794 32.28272866 -16.48046875 33.91015625 C-11.94679205 35.40349749 -8.40988092 35.06279058 -4.078125 33.1015625 C-0.99844126 31.18016689 0.22212203 29.29710042 1.6875 26 C2.5379056 21.90462568 2.6173983 18.56537739 0.44140625 14.90234375 C-2.02392486 11.90828826 -3.57770048 10.24493317 -7.3125 9 C-13.39445317 8.50147925 -16.4916151 8.86781295 -21.3125 13 Z " fill="#C1BDAE" transform="translate(98.3125,36)"/>
<path d="M0 0 C6.18625263 3.57234307 10.51779865 8.44050126 12.6875 15.3125 C13.1655565 20.3241014 13.06554924 25.28410481 12.9375 30.3125 C12.91739985 31.67315073 12.89915529 33.0338302 12.8828125 34.39453125 C12.8359085 37.701263 12.77027725 41.00650416 12.6875 44.3125 C9.0575 44.3125 5.4275 44.3125 1.6875 44.3125 C1.6781543 43.49048096 1.66880859 42.66846191 1.65917969 41.8215332 C1.60542129 38.08875038 1.52178169 34.35721319 1.4375 30.625 C1.42332031 29.33142578 1.40914063 28.03785156 1.39453125 26.70507812 C1.36230469 25.45791016 1.33007812 24.21074219 1.296875 22.92578125 C1.27592773 21.77891846 1.25498047 20.63205566 1.23339844 19.45043945 C0.58091626 15.69983417 -0.68531944 14.0180534 -3.3125 11.3125 C-6.51667721 9.7104114 -9.83589432 9.81964785 -13.3125 10.3125 C-16.75562714 12.4369827 -18.02867547 13.46102641 -19.3125 17.3125 C-19.46279988 19.37612991 -19.56094448 21.44373915 -19.62890625 23.51171875 C-19.67080078 24.72021484 -19.71269531 25.92871094 -19.75585938 27.17382812 C-19.79517578 28.43646484 -19.83449219 29.69910156 -19.875 31 C-19.91818359 32.27423828 -19.96136719 33.54847656 -20.00585938 34.86132812 C-20.1120486 38.01160852 -20.21409533 41.16196839 -20.3125 44.3125 C-23.9425 44.3125 -27.5725 44.3125 -31.3125 44.3125 C-31.40017743 39.81262438 -31.45312009 35.312971 -31.5 30.8125 C-31.52513672 29.5440625 -31.55027344 28.275625 -31.57617188 26.96875 C-31.63832148 19.01360037 -31.49295685 12.76041613 -26.734375 6.10546875 C-19.17356505 -1.15502866 -10.01397409 -4.64799552 0 0 Z " fill="#BBAD69" transform="translate(327.3125,35.6875)"/>
<path d="M0 0 C3.63 0 7.26 0 11 0 C11 6.93 11 13.86 11 21 C14.63 21 18.26 21 22 21 C22 24.63 22 28.26 22 32 C18.37 32 14.74 32 11 32 C11.06042889 34.54405638 11.14759028 37.08256731 11.25 39.625 C11.26417969 40.33785156 11.27835937 41.05070312 11.29296875 41.78515625 C11.52666152 46.87965859 12.55106974 50.02414984 16 54 C18.29447341 55.32048087 18.29447341 55.32048087 20.75 55.875 C22.1525 56.24625 23.555 56.6175 25 57 C25 60.3 25 63.6 25 67 C18.63820367 67.45441402 14.25376521 66.75418752 9 63 C3.88117238 58.27338117 0.33930753 53.76220776 -0.17312622 46.57015991 C-0.23118894 43.60981558 -0.22467585 40.65608371 -0.1953125 37.6953125 C-0.1924826 36.61619598 -0.18965271 35.53707947 -0.18673706 34.42526245 C-0.1755766 30.99172701 -0.1504793 27.55845609 -0.125 24.125 C-0.11496487 21.79167044 -0.10583995 19.45833678 -0.09765625 17.125 C-0.07565075 11.41656534 -0.04114908 5.70832746 0 0 Z " fill="#FCE47B" transform="translate(354,14)"/>
<path d="M0 0 C4.66055868 3.27786181 8.12313892 6.47982035 10 12 C10.21699209 14.72226435 10.14169289 17.26060406 10 20 C6.37 20 2.74 20 -1 20 C-1.226875 18.741875 -1.45375 17.48375 -1.6875 16.1875 C-2.46432358 13.13954638 -2.79756199 12.18508618 -5.1875 10 C-9.39352504 8.50452443 -13.07400397 8.32329869 -17.3125 9.8125 C-19.30067478 11.05967992 -19.30067478 11.05967992 -21 14 C-21.3696435 17.10208984 -21.3696435 17.10208984 -21.4140625 20.63671875 C-21.47207031 22.58481445 -21.47207031 22.58481445 -21.53125 24.57226562 C-21.56270517 25.94400573 -21.59395251 27.31575061 -21.625 28.6875 C-21.66319197 30.07098785 -21.70224442 31.45445223 -21.7421875 32.83789062 C-21.83660517 36.2251245 -21.92218118 39.61235069 -22 43 C-25.63 43 -29.26 43 -33 43 C-33.09969463 38.87417603 -33.17185233 34.74882903 -33.21972656 30.62207031 C-33.2397063 29.22155527 -33.2669002 27.82112218 -33.30175781 26.42089844 C-33.52465832 17.22953046 -33.47553009 10.2929785 -27.2890625 2.9765625 C-18.91616372 -3.82396092 -9.66555582 -5.36975323 0 0 Z " fill="#B7B196" transform="translate(161,37)"/>
<path d="M0 0 C3.3 0 6.6 0 10 0 C10 21.78 10 43.56 10 66 C6.7 66 3.4 66 0 66 C0 44.22 0 22.44 0 0 Z " fill="#FFE55C" transform="translate(450,14)"/>
<path d="M0 0 C3.63 0 7.26 0 11 0 C11 6.93 11 13.86 11 21 C14.63 21 18.26 21 22 21 C22 24.63 22 28.26 22 32 C18.37 32 14.74 32 11 32 C11.06042889 34.54405638 11.14759028 37.08256731 11.25 39.625 C11.26417969 40.33785156 11.27835937 41.05070312 11.29296875 41.78515625 C11.52666152 46.87965859 12.55106974 50.02414984 16 54 C18.29447341 55.32048087 18.29447341 55.32048087 20.75 55.875 C22.1525 56.24625 23.555 56.6175 25 57 C25 60.3 25 63.6 25 67 C18.63820367 67.45441402 14.25376521 66.75418752 9 63 C3.88117238 58.27338117 0.33930753 53.76220776 -0.17312622 46.57015991 C-0.23118894 43.60981558 -0.22467585 40.65608371 -0.1953125 37.6953125 C-0.1924826 36.61619598 -0.18965271 35.53707947 -0.18673706 34.42526245 C-0.1755766 30.99172701 -0.1504793 27.55845609 -0.125 24.125 C-0.11496487 21.79167044 -0.10583995 19.45833678 -0.09765625 17.125 C-0.07565075 11.41656534 -0.04114908 5.70832746 0 0 Z M3 3 C2.75486564 9.70700763 2.54268572 16.41448713 2.35302734 23.12329102 C2.28471075 25.40380246 2.2089451 27.68410375 2.12548828 29.96411133 C2.00659735 33.24793603 1.91481448 36.53159276 1.828125 39.81640625 C1.78560608 40.83021866 1.74308716 41.84403107 1.69927979 42.88856506 C1.54431427 50.21229839 2.76160798 54.43492809 7.78125 59.9609375 C8.3484375 60.42757812 8.915625 60.89421875 9.5 61.375 C10.0671875 61.85710937 10.634375 62.33921875 11.21875 62.8359375 C14.17685245 64.7690834 16.27541384 65.11527507 19.75 64.5625 C20.4925 64.376875 21.235 64.19125 22 64 C22 62.35 22 60.7 22 59 C21.01 59 20.02 59 19 59 C19 58.34 19 57.68 19 57 C18.071875 56.443125 17.14375 55.88625 16.1875 55.3125 C12.42343971 52.58171116 10.96278881 50.44032451 10 46 C9.47441316 41.00177217 9.18740173 36.02107384 9 31 C12.63 31 16.26 31 20 31 C20 28.36 20 25.72 20 23 C16.04 23 12.08 23 8 23 C8 16.4 8 9.8 8 3 C6.35 3 4.7 3 3 3 Z " fill="#E5DC79" transform="translate(354,14)"/>
<path d="M0 0 C3.3 0 6.6 0 10 0 C10 21.78 10 43.56 10 66 C6.7 66 3.4 66 0 66 C0 44.22 0 22.44 0 0 Z M2 2 C2 22.46 2 42.92 2 64 C4.31 64 6.62 64 9 64 C9 43.54 9 23.08 9 2 C6.69 2 4.38 2 2 2 Z " fill="#655722" transform="translate(450,14)"/>
<path d="M0 0 C3.63 0 7.26 0 11 0 C11 6.93 11 13.86 11 21 C14.63 21 18.26 21 22 21 C22 24.63 22 28.26 22 32 C18.37 32 14.74 32 11 32 C10.93613303 44.23823736 10.93613303 44.23823736 16 55 C12.96056485 54.05672702 12.00239292 53.00367484 10.25 50.3125 C7.89648029 44.35873122 8.78108918 37.29976679 9 31 C12.63 31 16.26 31 20 31 C20 28.36 20 25.72 20 23 C16.37 23 12.74 23 9 23 C9 15.74 9 8.48 9 1 C6.36 1 3.72 1 1 1 C1 16.84 1 32.68 1 49 C0.67 49 0.34 49 0 49 C0 32.83 0 16.66 0 0 Z " fill="#1E1B0E" transform="translate(354,14)"/>
<path d="M0 0 C6.82889054 4.49769229 10.41835119 10.49259477 12.10546875 18.38671875 C12.44010792 22.75126056 12.39139989 27.07534267 12.29296875 31.44921875 C12.27266602 33.17688477 12.27266602 33.17688477 12.25195312 34.93945312 C12.21689968 37.7554135 12.163104 40.57113004 12.10546875 43.38671875 C8.47546875 43.38671875 4.84546875 43.38671875 1.10546875 43.38671875 C1.10546875 42.72671875 1.10546875 42.06671875 1.10546875 41.38671875 C0.26242187 41.87398437 -0.580625 42.36125 -1.44921875 42.86328125 C-5.26413065 44.55014705 -7.8708255 44.78860021 -12.01953125 44.76171875 C-13.81777344 44.77332031 -13.81777344 44.77332031 -15.65234375 44.78515625 C-19.05794962 44.36663601 -20.4318523 43.7023721 -22.89453125 41.38671875 C-21.81945312 41.62648438 -21.81945312 41.62648438 -20.72265625 41.87109375 C-12.61822291 43.34869762 -5.47182188 42.52989116 2.10546875 39.38671875 C2.10546875 40.37671875 2.10546875 41.36671875 2.10546875 42.38671875 C4.74546875 42.38671875 7.38546875 42.38671875 10.10546875 42.38671875 C10.08253146 37.88561317 10.00502786 33.38700481 9.91796875 28.88671875 C9.91216797 27.61828125 9.90636719 26.34984375 9.90039062 25.04296875 C9.70078362 16.52640325 8.66040819 10.93160155 2.55737305 4.84204102 C-2.23776785 0.6066673 -5.96241097 0.19157561 -12.20703125 0.07421875 C-13.50253906 0.03683594 -14.79804688 -0.00054687 -16.1328125 -0.0390625 C-21.57870074 0.57734645 -24.55336355 2.93680772 -28.20703125 6.88671875 C-29.74784503 9.16940584 -30.4956116 10.69401112 -30.89453125 13.38671875 C-31.88453125 13.38671875 -32.87453125 13.38671875 -33.89453125 13.38671875 C-32.86875005 7.35350565 -28.00747719 2.91000536 -23.20703125 -0.55078125 C-15.70902491 -3.99581119 -7.329587 -3.6972253 0 0 Z " fill="#19160A" transform="translate(421.89453125,36.61328125)"/>
<path d="M0 0 C3.031875 -0.061875 6.06375 -0.12375 9.1875 -0.1875 C10.60712036 -0.22846802 10.60712036 -0.22846802 12.05541992 -0.27026367 C16.88140236 -0.31790366 20.07903506 -0.13983521 24 3 C26.31837458 5.31837458 26.93523664 6.62761069 27.5 9.875 C26.7969142 14.26928625 25.13662817 15.86337183 22 19 C19.17588235 19.94137255 17.47081968 20.11725382 14.55078125 20.09765625 C13.78677002 20.09515869 13.02275879 20.09266113 12.2355957 20.09008789 C11.27097412 20.08098389 10.30635254 20.07187988 9.3125 20.0625 C4.7028125 20.0315625 4.7028125 20.0315625 0 20 C0 13.4 0 6.8 0 0 Z M2 2 C2 7.28 2 12.56 2 18 C5.08427046 18.10800947 8.16475747 18.18731002 11.25 18.25 C12.55904297 18.30027344 12.55904297 18.30027344 13.89453125 18.3515625 C19.05360153 18.47230077 19.05360153 18.47230077 23.578125 16.234375 C25.06361637 13.90003141 25.54276275 12.73681574 25.5 10 C25.5103125 9.34 25.520625 8.68 25.53125 8 C24.69992688 4.87031296 23.68833688 3.84110344 21 2 C17.73562492 1.51336631 14.54096834 1.62361126 11.25 1.75 C10.36183594 1.76804687 9.47367188 1.78609375 8.55859375 1.8046875 C6.37193225 1.85171248 4.18582719 1.92345352 2 2 Z " fill="#2D2B20" transform="translate(193,23)"/>
<path d="M0 0 C2 2 2 2 3.75 5.3125 C6.1916265 9.67645184 9.3039826 12.93793254 14.0625 14.8125 C16.38712456 15.03746367 18.66621202 15.06482744 21 15 C21 13.35 21 11.7 21 10 C20.01 10 19.02 10 18 10 C18 9.34 18 8.68 18 8 C17.01 7.67 16.02 7.34 15 7 C18.20062687 5.39968656 20.72271806 6.96826309 24 8 C24 11.3 24 14.6 24 18 C17.63429858 18.45469296 13.25881939 17.75031343 8 14 C4.17906207 10.53312581 1.41164414 7.53680477 0.0625 2.5 C0.041875 1.675 0.02125 0.85 0 0 Z " fill="#56512B" transform="translate(355,63)"/>
<path d="M0 0 C0.50144531 0.44472656 1.00289062 0.88945313 1.51953125 1.34765625 C7.50696503 5.82548151 12.43517819 6.53384822 19.6875 6.1875 C20.89853394 6.14411499 20.89853394 6.14411499 22.1340332 6.09985352 C28.13009911 5.6411751 31.38958387 3.83275558 36 0 C34.49364535 4.21779303 31.75987578 5.7747674 28 8 C20.89154561 10.3694848 13.06386422 9.95837425 6.3125 6.75 C2.93772774 4.96043173 1.42439483 3.56479563 0 0 Z " fill="#5B583D" transform="translate(244,72)"/>
<path d="M0 0 C1.74216797 0.04060547 1.74216797 0.04060547 3.51953125 0.08203125 C4.39996094 0.11683594 5.28039062 0.15164062 6.1875 0.1875 C6.1875 0.5175 6.1875 0.8475 6.1875 1.1875 C5.39085937 1.21328125 4.59421875 1.2390625 3.7734375 1.265625 C-4.14209919 1.68932769 -8.59900556 2.71345195 -14.125 8.6875 C-15.66581378 10.97018709 -16.41358035 12.49479237 -16.8125 15.1875 C-17.8025 15.1875 -18.7925 15.1875 -19.8125 15.1875 C-19.21575454 11.67769446 -17.90832861 9.77170662 -15.5625 7.125 C-14.68851562 6.11759766 -14.68851562 6.11759766 -13.796875 5.08984375 C-9.35205483 0.82876615 -6.14746123 -0.1862867 0 0 Z " fill="#534C25" transform="translate(407.8125,34.8125)"/>
<path d="M0 0 C0.763125 0.309375 1.52625 0.61875 2.3125 0.9375 C6.39340374 2.55088055 9.81969633 3.23374058 14.1875 3.5625 C15.27417969 3.64628906 16.36085938 3.73007813 17.48046875 3.81640625 C18.72763672 3.90728516 18.72763672 3.90728516 20 4 C19.67 4.66 19.34 5.32 19 6 C11.87399867 6.35368021 6.52940894 5.95671348 0 3 C0 2.01 0 1.02 0 0 Z " fill="#D4C860" transform="translate(396,74)"/>
<path d="M0 0 C1.63001953 0.01353516 1.63001953 0.01353516 3.29296875 0.02734375 C4.12441406 0.03894531 4.95585937 0.05054688 5.8125 0.0625 C5.8125 0.3925 5.8125 0.7225 5.8125 1.0625 C4.575 1.18625 3.3375 1.31 2.0625 1.4375 C-1.12088965 1.82421459 -3.35285321 2.54393922 -6.1875 4.0625 C-7.5075 4.0625 -8.8275 4.0625 -10.1875 4.0625 C-9.8575 3.0725 -9.5275 2.0825 -9.1875 1.0625 C-5.90230525 -0.03256492 -3.45086585 -0.03710608 0 0 Z " fill="#87825C" transform="translate(260.1875,34.9375)"/>
<path d="M0 0 C0.99 0.33 1.98 0.66 3 1 C-0.33333333 4.33333333 -3.66666667 7.66666667 -7 11 C-6.68232368 5.59950264 -3.80003673 3.47662935 0 0 Z " fill="#FCF4B3" transform="translate(249,39)"/>
<path d="M0 0 C0.66 0 1.32 0 2 0 C2.33 1.32 2.66 2.64 3 4 C0.03 4 -2.94 4 -6 4 C-6 3.34 -6 2.68 -6 2 C-4.02 2 -2.04 2 0 2 C0 1.34 0 0.68 0 0 Z " fill="#D5CFA0" transform="translate(226,75)"/>
<path d="M0 0 C0.66 0 1.32 0 2 0 C2 1.98 2 3.96 2 6 C-0.64 6 -3.28 6 -6 6 C-5.34 5.34 -4.68 4.68 -4 4 C-2.68 4 -1.36 4 0 4 C0 2.68 0 1.36 0 0 Z " fill="#DBD7B5" transform="translate(168,50)"/>
<path d="M0 0 C0.66 0.66 1.32 1.32 2 2 C-1.465 4.97 -1.465 4.97 -5 8 C-3.8141763 4.62496331 -2.72426311 2.35277269 0 0 Z " fill="#F7F3DA" transform="translate(137,39)"/>
</svg>
