<svg xmlns="http://www.w3.org/2000/svg" width="512" height="512" viewBox="0 0 512 512">
<g>
<path d="M 0.00 387.00 L 0.00 125.56 C0.00,196.60 0.38,250.88 0.87,250.58 C1.35,250.28 1.99,248.79 2.30,247.27 C3.61,240.75 10.56,234.00 18.05,231.99 C20.53,231.32 101.79,231.07 258.64,231.24 L 495.50 231.50 L 499.54 234.13 C503.40,236.65 508.14,241.51 510.69,245.60 C511.62,247.08 511.88,232.40 511.88,179.00 C511.88,125.61 511.62,110.92 510.69,112.39 C506.57,118.95 502.86,122.73 498.12,125.21 L 492.77 128.00 L 147.98 128.00 L 143.47 125.88 C134.54,121.68 126.80,108.77 128.40,100.74 C130.59,89.81 134.51,83.92 142.43,79.68 L 146.50 77.50 L 320.10 77.50 C471.79,77.50 494.06,77.69 496.60,78.99 C502.48,82.00 507.21,86.58 509.52,91.48 L 511.88 96.50 L 512.00 0.00 L 512.00 512.00 L 511.92 463.25 C511.88,436.44 511.59,415.17 511.29,416.00 C508.97,422.33 506.49,426.17 502.80,429.17 C501.65,430.11 500.82,430.91 499.91,431.59 C494.66,435.52 486.47,435.53 395.14,435.73 C388.32,435.74 381.03,435.76 373.25,435.78 C367.24,435.79 361.52,435.81 356.07,435.82 C257.65,436.06 248.61,436.08 242.88,431.74 C241.99,431.06 241.17,430.27 240.11,429.36 C237.80,427.39 234.76,423.49 233.34,420.69 C231.10,416.26 230.82,414.68 231.22,408.55 C232.00,396.61 236.72,390.12 247.57,386.06 C253.17,383.97 253.44,383.96 373.34,384.23 L 493.50 384.50 L 498.92 387.50 C503.71,390.15 506.37,392.90 510.69,399.64 C511.62,401.09 511.88,386.37 511.88,333.00 C511.88,279.60 511.62,264.92 510.69,266.42 C508.24,270.37 502.38,276.37 498.51,278.89 L 494.50 281.50 L 18.50 281.50 L 14.50 279.34 C8.22,275.96 2.00,268.09 2.00,263.55 C2.00,262.70 1.55,262.00 1.00,262.00 C0.34,262.00 0.00,304.33 0.00,387.00 Z" fill="rgb(254,214,2)"/>
<path d="M 498.38 79.97 C500.77,80.64 502.01,81.48 503.02,82.53 C504.10,83.65 504.91,85.02 506.55,86.68 L 511.89 92.10 L 511.88 96.50 L 509.52 91.48 C507.45,87.09 503.43,82.95 498.38,79.97 ZM 0.48 237.92 C0.74,244.71 1.14,245.29 1.75,244.90 C2.41,244.48 3.41,243.45 4.33,242.30 C3.34,243.91 2.63,245.60 2.30,247.27 C1.99,248.79 1.35,250.28 0.87,250.58 C0.73,250.67 0.59,246.14 0.48,237.92 ZM 511.54 420.35 L 506.37 425.51 C508.26,423.07 509.81,420.04 511.29,416.00 C511.38,415.76 511.46,417.34 511.54,420.35 ZM 3.67 268.60 C3.31,268.18 2.69,267.67 2.00,267.23 C1.27,266.78 0.81,266.52 0.51,272.41 C0.65,265.49 0.81,262.00 1.00,262.00 C1.55,262.00 2.00,262.70 2.00,263.55 C2.00,264.98 2.62,266.75 3.67,268.60 ZM 467.91 77.79 C443.75,77.55 399.78,77.50 320.10,77.50 C338.28,77.50 354.60,77.49 369.27,77.48 C418.15,77.46 448.63,77.44 467.91,77.79 ZM 510.61 245.47 C511.46,245.53 511.56,239.37 511.76,213.25 C511.91,194.41 511.91,163.67 511.76,144.93 L 511.59 123.05 C511.81,132.90 511.88,150.40 511.88,179.00 C511.88,232.40 511.62,247.08 510.69,245.60 C510.67,245.55 510.64,245.51 510.61,245.47 ZM 497.37 433.00 C496.61,433.46 495.95,433.81 495.41,434.01 C494.05,434.51 490.03,434.85 478.75,435.10 C489.73,434.72 494.53,434.10 497.37,433.00 ZM 504.18 120.78 C502.71,122.25 501.11,123.54 499.58,124.48 L 494.66 127.50 L 493.73 127.50 L 498.12 125.21 C500.31,124.06 502.29,122.63 504.18,120.78 ZM 8.91 275.18 C6.27,272.78 4.00,270.18 4.00,269.21 C4.00,269.19 4.00,269.18 4.00,269.16 C5.23,271.20 6.95,273.31 8.91,275.18 ZM 5.98 239.98 C8.47,236.59 12.97,233.52 17.46,232.16 C13.05,233.49 8.87,236.45 5.98,239.98 ZM 503.94 237.64 C505.96,239.48 507.76,241.43 508.98,243.15 C507.52,241.26 505.75,239.33 503.94,237.64 ZM 147.98 128.00 L 159.25 128.00 L 148.01 128.02 ZM 14.50 279.34 L 18.50 281.50 L 14.41 279.31 C13.95,279.07 13.46,278.77 12.95,278.42 C13.47,278.75 13.98,279.06 14.50,279.34 ZM 498.15 233.23 C498.28,233.29 498.39,233.36 498.50,233.43 C498.87,233.67 499.24,233.92 499.62,234.18 C499.59,234.16 499.57,234.15 499.54,234.13 ZM 242.88 431.74 C242.68,431.58 242.48,431.42 242.28,431.26 C242.48,431.42 242.68,431.58 242.88,431.74 C244.83,433.22 247.17,434.19 253.29,434.82 C247.17,434.19 244.83,433.22 242.88,431.74 Z" fill="rgb(254,249,174)"/>
<path d="M -0.00 388.99 C-0.00,266.23 0.00,265.99 2.00,267.23 C3.10,267.92 4.00,268.81 4.00,269.21 C4.00,270.86 10.60,277.27 14.41,279.31 L 18.50 281.50 L 256.50 281.50 L 494.50 281.50 L 498.51 278.89 C502.38,276.37 508.24,270.37 510.69,266.42 C511.62,264.92 511.88,279.60 511.88,333.00 C511.88,386.37 511.62,401.09 510.69,399.64 C506.37,392.90 503.71,390.15 498.92,387.50 L 493.50 384.50 L 373.34 384.23 C253.44,383.96 253.17,383.97 247.57,386.06 C236.72,390.12 232.00,396.61 231.22,408.55 C230.82,414.68 231.10,416.26 233.34,420.69 C234.76,423.49 237.80,427.39 240.11,429.36 C248.34,436.41 241.66,436.09 373.25,435.75 C473.20,435.49 492.11,435.22 495.41,434.01 C497.63,433.19 502.08,429.81 505.66,426.23 L 512.00 419.89 L 512.00 465.94 L 512.00 512.00 L 256.00 512.00 L 0.00 512.00 L -0.00 388.99 ZM 509.84 244.50 C507.99,241.17 503.08,236.38 498.50,233.43 C495.56,231.54 490.70,231.49 258.64,231.24 C101.79,231.07 20.53,231.32 18.05,231.99 C13.06,233.33 7.96,236.87 5.50,240.68 C4.40,242.39 2.71,244.29 1.75,244.90 C0.09,245.96 0.00,239.92 0.00,123.01 L 0.00 0.00 L 256.00 0.00 L 512.00 0.00 L 512.00 46.11 L 512.00 92.22 L 506.55 86.68 C496.50,76.47 517.38,77.50 320.00,77.50 L 146.50 77.50 L 142.43 79.68 C134.51,83.92 130.59,89.81 128.40,100.74 C126.79,108.78 134.54,121.68 143.49,125.89 L 148.01 128.02 L 321.34 127.76 L 494.66 127.50 L 499.58 124.48 C502.61,122.62 505.85,119.42 508.00,116.16 L 511.50 110.85 L 511.76 144.93 C511.91,163.67 511.91,194.41 511.76,213.25 C511.51,245.81 511.42,247.35 509.84,244.50 Z" fill="rgb(254,254,254)"/>
</g>
</svg>