<?xml version="1.0" encoding="UTF-8"?>
<svg version="1.1" xmlns="http://www.w3.org/2000/svg" width="24" height="24">
<path d="M0 0 C2.375 1.5 2.375 1.5 4 4 C4 6.66666667 4 9.33333333 4 12 C5.87501931 14.37719693 5.87501931 14.37719693 8 16 C8 16.66 8 17.32 8 18 C4 16 4 16 2.125 14.875 C-0.08005609 13.79351474 -0.08005609 13.79351474 -3 14.125 C-6 14 -6 14 -8.375 12.375 C-10.48706506 9.28813568 -10.61195145 7.6717087 -10 4 C-7.21921757 -0.06422047 -4.81255755 -0.80209293 0 0 Z M-6.8125 3.1875 C-8.26103335 4.99801207 -8.26103335 4.99801207 -7.8125 7.5625 C-7.15372967 10.14441272 -7.15372967 10.14441272 -5 12 C-1.70285207 11.67028521 -0.3773161 11.3773161 2 9 C1.67028521 5.70285207 1.3773161 4.3773161 -1 2 C-4.80350374 1.63464916 -4.80350374 1.63464916 -6.8125 3.1875 Z " fill="#000000" transform="translate(13,3)"/>
</svg>
