<?xml version="1.0" encoding="UTF-8"?>
<svg version="1.1" xmlns="http://www.w3.org/2000/svg" width="28" height="30">
<path d="M0 0 C1.65 0 3.3 0 5 0 C5.66 2.31 6.32 4.62 7 7 C9.31 7.33 11.62 7.66 14 8 C14.66 9.65 15.32 11.3 16 13 C15.51789062 13.40089844 15.03578125 13.80179688 14.5390625 14.21484375 C12.63792429 16.41997106 12.55480351 17.69037548 12.375 20.5625 C12.08 24.84 12.08 24.84 11 27 C10.26394531 26.90460937 9.52789063 26.80921875 8.76953125 26.7109375 C7.30580078 26.54464844 7.30580078 26.54464844 5.8125 26.375 C4.84957031 26.25898438 3.88664063 26.14296875 2.89453125 26.0234375 C-0.24920045 25.99798218 -2.14149244 26.78550456 -5 28 C-5.66 27.67 -6.32 27.34 -7 27 C-7 23.37 -7 19.74 -7 16 C-7.99 15.67 -8.98 15.34 -10 15 C-10.33 13.35 -10.66 11.7 -11 10 C-6.392 7.056 -6.392 7.056 -3.8125 6.6875 C-3.214375 6.460625 -2.61625 6.23375 -2 6 C-0.6954344 3.00384054 -0.6954344 3.00384054 0 0 Z " fill="#FBD403" transform="translate(12,0)"/>
</svg>
