<?xml version="1.0" encoding="UTF-8"?>
<svg version="1.1" xmlns="http://www.w3.org/2000/svg" width="60" height="48">
<path d="M0 0 C7.67536627 -0.02312821 15.35072896 -0.04091753 23.02612209 -0.05181217 C26.58977422 -0.05703995 30.15340257 -0.06413569 33.71704102 -0.07543945 C37.81006097 -0.08834176 41.9030558 -0.09322906 45.99609375 -0.09765625 C47.92418129 -0.10539818 47.92418129 -0.10539818 49.89122009 -0.11329651 C51.66294334 -0.11340981 51.66294334 -0.11340981 53.47045898 -0.11352539 C55.03932106 -0.11685631 55.03932106 -0.11685631 56.63987732 -0.12025452 C59 0 59 0 60 1 C60 3.97 60 6.94 60 10 C53.4 10 46.8 10 40 10 C40 11.65 40 13.3 40 15 C46.6 15 53.2 15 60 15 C60.49505637 27.2526451 60.49505637 27.2526451 58.17578125 30.75390625 C54.79248521 34.24653681 51.70378921 37.43207026 47 39 C46.505 39.99 46.505 39.99 46 41 C43.03 41 40.06 41 37 41 C37 40.34 37 39.68 37 39 C36.2575 38.773125 35.515 38.54625 34.75 38.3125 C31.4574253 36.7410439 30.02502891 35.00004284 28 32 C28 31.34 28 30.68 28 30 C27.34 30 26.68 30 26 30 C26 28.02 26 26.04 26 24 C25.2575 24.061875 24.515 24.12375 23.75 24.1875 C20.46254352 23.96335524 19.34744891 23.2665024 17 21 C16.690625 20.29875 16.38125 19.5975 16.0625 18.875 C15.12104207 16.70280998 15.12104207 16.70280998 12.375 16.25 C11.59125 16.1675 10.8075 16.085 10 16 C10 14.02 10 12.04 10 10 C9.01 10 8.02 10 7 10 C6.67 9.34 6.34 8.68 6 8 C4.02111039 7.27306096 2.02045442 6.60183749 0 6 C0 4.02 0 2.04 0 0 Z M36 16 C35.91878076 17.60332791 35.86070866 19.20784026 35.8125 20.8125 C35.77769531 21.70582031 35.74289063 22.59914063 35.70703125 23.51953125 C35.78858208 26.40786775 35.78858208 26.40786775 39 29 C41.97 28.01 44.94 27.02 48 26 C46.10244856 23.65026182 46.10244856 23.65026182 42.875 23.875 C41.92625 23.91625 40.9775 23.9575 40 24 C39.67 21.36 39.34 18.72 39 16 C38.01 16 37.02 16 36 16 Z " fill="#D3A327" transform="translate(0,5)"/>
<path d="M0 0 C7.81452752 -0.02526563 15.62904458 -0.04283105 23.44360352 -0.05493164 C26.10441481 -0.05997383 28.76522332 -0.06680736 31.42602539 -0.07543945 C35.24105516 -0.08751009 39.05604844 -0.09322929 42.87109375 -0.09765625 C44.66793861 -0.10539818 44.66793861 -0.10539818 46.50108337 -0.11329651 C48.15268211 -0.11340981 48.15268211 -0.11340981 49.83764648 -0.11352539 C50.81249496 -0.115746 51.78734344 -0.11796661 52.79173279 -0.12025452 C55 0 55 0 56 1 C56.07179964 2.51928038 56.08392007 4.04167482 56.0625 5.5625 C56.05347656 6.38878906 56.04445312 7.21507812 56.03515625 8.06640625 C56.02355469 8.70449219 56.01195312 9.34257812 56 10 C52.72918529 10.02902429 49.4584037 10.04680684 46.1875 10.0625 C45.25873047 10.07087891 44.32996094 10.07925781 43.37304688 10.08789062 C42.48037109 10.09111328 41.58769531 10.09433594 40.66796875 10.09765625 C39.43469849 10.10551147 39.43469849 10.10551147 38.17651367 10.11352539 C36 10 36 10 33 9 C32.896875 9.598125 32.79375 10.19625 32.6875 10.8125 C31.89505679 13.33391022 30.88056492 14.19465768 29 16 C27.82425289 18.09989652 27.82425289 18.09989652 27 20 C26.608125 18.88625 26.21625 17.7725 25.8125 16.625 C24.82335065 14.59023212 24.82335065 14.59023212 23 13 C18.70884465 11.76410483 14.44584581 11.314807 10 11 C10 9.35 10 7.7 10 6 C9.46375 5.896875 8.9275 5.79375 8.375 5.6875 C5.37497956 4.81907303 2.7620465 3.44379704 0 2 C0 1.34 0 0.68 0 0 Z " fill="#F3DC59" transform="translate(4,5)"/>
<path d="M0 0 C1.32 0 2.64 0 4 0 C4.33 0.66 4.66 1.32 5 2 C7.11015954 3.12706706 7.11015954 3.12706706 9.5625 4.125 C10.38878906 4.47820313 11.21507812 4.83140625 12.06640625 5.1953125 C13.02353516 5.59363281 13.02353516 5.59363281 14 6 C14 7.65 14 9.3 14 11 C15.98 11 17.96 11 20 11 C21.20628008 13.33214148 22.1654738 15.49642139 23 18 C24.093125 18.556875 25.18625 19.11375 26.3125 19.6875 C30.22139287 21.75317509 31.26645132 24.07078322 32.95703125 28.03515625 C34.63523616 31.1967183 37.19554385 32.83292025 40 35 C40 35.66 40 36.32 40 37 C47.69793132 34.56907432 53.31974281 31.2624458 57.4375 24.125 C57.953125 23.09375 58.46875 22.0625 59 21 C59.33 21 59.66 21 60 21 C60.30494684 24.88807225 60.45982549 27.25720498 58.375 30.625 C51.5 37.5 51.5 37.5 47 39 C46.505 39.99 46.505 39.99 46 41 C43.03 41 40.06 41 37 41 C37 40.34 37 39.68 37 39 C36.2575 38.773125 35.515 38.54625 34.75 38.3125 C31.4574253 36.7410439 30.02502891 35.00004284 28 32 C28 31.34 28 30.68 28 30 C27.34 30 26.68 30 26 30 C26 28.02 26 26.04 26 24 C25.2575 24.061875 24.515 24.12375 23.75 24.1875 C20.46254352 23.96335524 19.34744891 23.2665024 17 21 C16.690625 20.29875 16.38125 19.5975 16.0625 18.875 C15.12104207 16.70280998 15.12104207 16.70280998 12.375 16.25 C11.59125 16.1675 10.8075 16.085 10 16 C10 14.02 10 12.04 10 10 C9.01 10 8.02 10 7 10 C6.67 9.34 6.34 8.68 6 8 C4.02111039 7.27306096 2.02045442 6.60183749 0 6 C0 4.02 0 2.04 0 0 Z " fill="#8D5007" transform="translate(0,5)"/>
<path d="M0 0 C1.32 0 2.64 0 4 0 C4.33 0.66 4.66 1.32 5 2 C7.11015954 3.12706706 7.11015954 3.12706706 9.5625 4.125 C10.38878906 4.47820313 11.21507812 4.83140625 12.06640625 5.1953125 C13.02353516 5.59363281 13.02353516 5.59363281 14 6 C14 7.65 14 9.3 14 11 C15.98 11 17.96 11 20 11 C21.20628008 13.33214148 22.1654738 15.49642139 23 18 C24.62948064 19.22445284 24.62948064 19.22445284 26.5625 20.1875 C28.2640625 21.0846875 28.2640625 21.0846875 30 22 C30 22.99 30 23.98 30 25 C28.35 24.34 26.7 23.68 25 23 C25 22.34 25 21.68 25 21 C23.68 20.67 22.36 20.34 21 20 C21.66 21.32 22.32 22.64 23 24 C17 21 17 21 16.1875 19 C15.14044802 16.71525923 15.14044802 16.71525923 12.375 16.25 C11.59125 16.1675 10.8075 16.085 10 16 C10 14.02 10 12.04 10 10 C9.01 10 8.02 10 7 10 C6.67 9.34 6.34 8.68 6 8 C4.02111039 7.27306096 2.02045442 6.60183749 0 6 C0 4.02 0 2.04 0 0 Z " fill="#A16D13" transform="translate(0,5)"/>
<path d="M0 0 C1.47668858 0.0133035 2.95331108 0.03716415 4.4296875 0.0703125 C5.18378906 0.07933594 5.93789063 0.08835937 6.71484375 0.09765625 C8.57826004 0.1212438 10.44151343 0.15711531 12.3046875 0.1953125 C12.56155412 3.5781974 12.67291504 5.59202463 10.87890625 8.53125 C10.25628906 9.20414063 9.63367187 9.87703125 8.9921875 10.5703125 C8.37730469 11.25867187 7.76242188 11.94703125 7.12890625 12.65625 C5.3046875 14.1953125 5.3046875 14.1953125 2.3046875 14.1953125 C2.6346875 11.8853125 2.9646875 9.5753125 3.3046875 7.1953125 C0.6646875 7.1953125 -1.9753125 7.1953125 -4.6953125 7.1953125 C-5.3203125 4.8203125 -5.3203125 4.8203125 -5.6953125 2.1953125 C-3.6953125 0.1953125 -3.6953125 0.1953125 0 0 Z " fill="#DFB93F" transform="translate(47.6953125,19.8046875)"/>
<path d="M0 0 C4.47915328 -0.02886338 8.95828291 -0.04675187 13.4375 -0.0625 C14.71689453 -0.07087891 15.99628906 -0.07925781 17.31445312 -0.08789062 C19.13686523 -0.09272461 19.13686523 -0.09272461 20.99609375 -0.09765625 C22.12200928 -0.10289307 23.2479248 -0.10812988 24.40795898 -0.11352539 C27 0 27 0 28 1 C28.14193337 4.00331018 28.04236378 6.99217134 28 10 C24.7 10 21.4 10 18 10 C18.33 7.69 18.66 5.38 19 3 C12.73 2.67 6.46 2.34 0 2 C0 1.34 0 0.68 0 0 Z " fill="#EDC940" transform="translate(32,5)"/>
<path d="M0 0 C3.3125 0.1875 3.3125 0.1875 7 1 C8.875 3.4375 8.875 3.4375 10 6 C10.33 6.66 10.66 7.32 11 8 C11.66 6.68 12.32 5.36 13 4 C13.33 4 13.66 4 14 4 C14 5.65 14 7.3 14 9 C14.66 9 15.32 9 16 9 C16.66 12.3 17.32 15.6 18 19 C14 18 14 18 12.3125 15.3125 C11.9928125 14.77238281 11.673125 14.23226563 11.34375 13.67578125 C9.61495186 11.51980915 7.67621914 10.41748347 5.3125 9 C1.12815399 6.40707739 1.12815399 6.40707739 -0.0625 2.625 C-0.041875 1.75875 -0.02125 0.8925 0 0 Z " fill="#DCB539" transform="translate(20,16)"/>
<path d="M0 0 C0.99 0 1.98 0 3 0 C3 1.98 3 3.96 3 6 C4.32 6.33 5.64 6.66 7 7 C6.67 8.65 6.34 10.3 6 12 C8.64 12.33 11.28 12.66 14 13 C13.49396008 15.16874252 13.00016187 16.99967627 12 19 C11.01 18.67 10.02 18.34 9 18 C9 17.34 9 16.68 9 16 C8.030625 16.020625 7.06125 16.04125 6.0625 16.0625 C3 16 3 16 2 15 C1.85884839 12.32941149 1.95752893 9.67567762 2 7 C1.01 7 0.02 7 -1 7 C-1 8.32 -1 9.64 -1 11 C-1.66 11 -2.32 11 -3 11 C-3.32136655 6.39374606 -2.91033076 3.66486096 0 0 Z " fill="#CA982D" transform="translate(37,14)"/>
<path d="M0 0 C0.33 0 0.66 0 1 0 C1.30494684 3.88807225 1.45982549 6.25720498 -0.625 9.625 C-7.5 16.5 -7.5 16.5 -12 18 C-12.33 18.66 -12.66 19.32 -13 20 C-15.31 20 -17.62 20 -20 20 C-20 18.02 -20 16.04 -20 14 C-19.67 14.66 -19.34 15.32 -19 16 C-11.30206868 13.56907432 -5.68025719 10.2624458 -1.5625 3.125 C-1.046875 2.09375 -0.53125 1.0625 0 0 Z " fill="#875309" transform="translate(59,26)"/>
<path d="M0 0 C5.28 0 10.56 0 16 0 C14.98670594 4.05317624 14.72918047 4.37998675 12 7 C10.82425289 9.09989652 10.82425289 9.09989652 10 11 C9.484375 9.88625 8.96875 8.7725 8.4375 7.625 C7.19467053 5.40405925 6.47129124 4.23514102 4.17578125 3.08984375 C2.04770412 2.47406597 2.04770412 2.47406597 -1 2 C-0.67 1.34 -0.34 0.68 0 0 Z " fill="#F4E085" transform="translate(21,14)"/>
<path d="M0 0 C1.32 0 2.64 0 4 0 C4.33 0.66 4.66 1.32 5 2 C7.11015954 3.12706706 7.11015954 3.12706706 9.5625 4.125 C10.38878906 4.47820313 11.21507812 4.83140625 12.06640625 5.1953125 C13.02353516 5.59363281 13.02353516 5.59363281 14 6 C14 7.65 14 9.3 14 11 C15.98 11 17.96 11 20 11 C20 11.33 20 11.66 20 12 C17.03 12 14.06 12 11 12 C10.67 10.35 10.34 8.7 10 7 C9.01 6.67 8.02 6.34 7 6 C6.67 6.66 6.34 7.32 6 8 C4.02 7.34 2.04 6.68 0 6 C0 4.02 0 2.04 0 0 Z " fill="#B0822C" transform="translate(0,5)"/>
<path d="M0 0 C6.93 0 13.86 0 21 0 C21 1.32 21 2.64 21 4 C13.70968976 4.2494783 7.09326321 3.72330907 0 2 C0 1.34 0 0.68 0 0 Z " fill="#FCF07E" transform="translate(8,5)"/>
<path d="M0 0 C1.41655793 -0.0272415 2.83327045 -0.04650467 4.25 -0.0625 C5.43335938 -0.07990234 5.43335938 -0.07990234 6.640625 -0.09765625 C8.90691002 -0.00385306 10.8288895 0.36758937 13 1 C13.20086443 4.71599191 13.1519437 5.77208445 11 9 C10.01 8.67 9.02 8.34 8 8 C8 6.68 8 5.36 8 4 C5.36 4 2.72 4 0 4 C0 2.68 0 1.36 0 0 Z " fill="#F7F3A3" transform="translate(44,22)"/>
<path d="M0 0 C7.92 0.33 15.84 0.66 24 1 C24 1.66 24 2.32 24 3 C22.90300781 3.04898437 21.80601563 3.09796875 20.67578125 3.1484375 C19.22133075 3.22350591 17.76690484 3.29905197 16.3125 3.375 C15.2306543 3.42140625 15.2306543 3.42140625 14.12695312 3.46875 C10.02789606 3.69335587 6.75631541 4.17740909 3 6 C3 4.35 3 2.7 3 1 C2.01 0.67 1.02 0.34 0 0 Z " fill="#EDBB1B" transform="translate(11,10)"/>
<path d="M0 0 C1.32 0.33 2.64 0.66 4 1 C4 2.65 4 4.3 4 6 C6.64 6 9.28 6 12 6 C12 7.65 12 9.3 12 11 C9.03 10.67 6.06 10.34 3 10 C3 8.02 3 6.04 3 4 C2.01 4 1.02 4 0 4 C0 2.68 0 1.36 0 0 Z " fill="#905B14" transform="translate(7,11)"/>
<path d="M0 0 C1.45823212 -0.0270043 2.91660675 -0.04639787 4.375 -0.0625 C5.18710937 -0.07410156 5.99921875 -0.08570313 6.8359375 -0.09765625 C9 0 9 0 11 1 C11 1.99 11 2.98 11 4 C8.47524538 5.26237731 6.68799534 5.09856404 3.875 5.0625 C2.96492188 5.05347656 2.05484375 5.04445313 1.1171875 5.03515625 C0.41851562 5.02355469 -0.28015625 5.01195312 -1 5 C-0.67 3.35 -0.34 1.7 0 0 Z " fill="#F9EC7B" transform="translate(40,7)"/>
<path d="M0 0 C5.61 0 11.22 0 17 0 C17.33 0.99 17.66 1.98 18 3 C19.32 3 20.64 3 22 3 C21.67 3.66 21.34 4.32 21 5 C19.68644531 4.98839844 18.37289062 4.97679687 17.01953125 4.96484375 C15.28385559 4.95546172 13.54817839 4.94636196 11.8125 4.9375 C10.94818359 4.92912109 10.08386719 4.92074219 9.19335938 4.91210938 C4.99713231 4.89603188 1.09063114 4.92440962 -3 6 C-2.01171875 4.51171875 -2.01171875 4.51171875 0 3 C2.81127043 2.78285759 5.3883345 2.71715724 8.1875 2.8125 C8.93708984 2.82603516 9.68667969 2.83957031 10.45898438 2.85351562 C12.30629767 2.88881461 14.15324066 2.94262083 16 3 C16 2.34 16 1.68 16 1 C10.72 1 5.44 1 0 1 C0 0.67 0 0.34 0 0 Z " fill="#F1CB3B" transform="translate(19,10)"/>
<path d="M0 0 C-0.3125 1.9375 -0.3125 1.9375 -1 4 C-1.99 4.33 -2.98 4.66 -4 5 C-4 5.66 -4 6.32 -4 7 C-5.32 7 -6.64 7 -8 7 C-10 4 -10 4 -10 1 C-2.25 0 -2.25 0 0 0 Z " fill="#F7D41D" transform="translate(48,35)"/>
<path d="M0 0 C-1.39130435 4.17391304 -1.39130435 4.17391304 -4 6 C-7.6875 6.1875 -7.6875 6.1875 -11 6 C-11 4.02 -11 2.04 -11 0 C-10.67 0.66 -10.34 1.32 -10 2 C-9.44570313 1.77183594 -8.89140625 1.54367188 -8.3203125 1.30859375 C-7.59585938 1.02113281 -6.87140625 0.73367187 -6.125 0.4375 C-5.40570313 0.14746094 -4.68640625 -0.14257812 -3.9453125 -0.44140625 C-2 -1 -2 -1 0 0 Z " fill="#9B6D0E" transform="translate(50,40)"/>
<path d="M0 0 C1.23556641 0.01740234 1.23556641 0.01740234 2.49609375 0.03515625 C3.32238281 0.04417969 4.14867187 0.05320312 5 0.0625 C5.63808594 0.07410156 6.27617188 0.08570312 6.93359375 0.09765625 C6.93359375 0.42765625 6.93359375 0.75765625 6.93359375 1.09765625 C4.29359375 1.42765625 1.65359375 1.75765625 -1.06640625 2.09765625 C-1.06640625 2.75765625 -1.06640625 3.41765625 -1.06640625 4.09765625 C1.57359375 4.42765625 4.21359375 4.75765625 6.93359375 5.09765625 C7.05734375 5.71640625 7.18109375 6.33515625 7.30859375 6.97265625 C7.80556731 9.28886457 7.80556731 9.28886457 9.93359375 11.09765625 C9.27359375 11.75765625 8.61359375 12.41765625 7.93359375 13.09765625 C6.94359375 13.09765625 5.95359375 13.09765625 4.93359375 13.09765625 C5.26359375 10.78765625 5.59359375 8.47765625 5.93359375 6.09765625 C3.29359375 6.09765625 0.65359375 6.09765625 -2.06640625 6.09765625 C-2.44859392 4.44150968 -2.78035727 2.77308601 -3.06640625 1.09765625 C-2.06640625 0.09765625 -2.06640625 0.09765625 0 0 Z " fill="#E7D053" transform="translate(45.06640625,20.90234375)"/>
<path d="M0 0 C1.98 0.66 3.96 1.32 6 2 C6 3.65 6 5.3 6 7 C6.99 7.33 7.98 7.66 9 8 C9 8.66 9 9.32 9 10 C7.65686601 9.35330586 6.32608822 8.68096422 5 8 C4.0925 7.566875 3.185 7.13375 2.25 6.6875 C1.5075 6.130625 0.765 5.57375 0 5 C-0.3125 2.3125 -0.3125 2.3125 0 0 Z " fill="#D79C19" transform="translate(21,17)"/>
<path d="M0 0 C0.33 0.66 0.66 1.32 1 2 C0.67 2.66 0.34 3.32 0 4 C1.98 3.01 3.96 2.02 6 1 C4.63491499 4.11728368 3.13080302 6.08663738 0.5625 8.3125 C-0.03433594 8.84488281 -0.63117187 9.37726562 -1.24609375 9.92578125 C-1.82488281 10.28027344 -2.40367188 10.63476562 -3 11 C-3.99 10.67 -4.98 10.34 -6 10 C-5.01 9.34 -4.02 8.68 -3 8 C-2.61781233 6.34385343 -2.28604898 4.67542976 -2 3 C-1.34 2.01 -0.68 1.02 0 0 Z " fill="#D6A612" transform="translate(50,30)"/>
<path d="M0 0 C1.32 0.33 2.64 0.66 4 1 C4 3.97 4 6.94 4 10 C3.01 10 2.02 10 1 10 C0.67 6.7 0.34 3.4 0 0 Z " fill="#D7B136" transform="translate(56,5)"/>
<path d="M0 0 C3.34998521 1.11666174 3.79340222 1.74694925 5.6875 4.5625 C6.12449219 5.20316406 6.56148437 5.84382813 7.01171875 6.50390625 C7.33785156 6.99761719 7.66398437 7.49132813 8 8 C7.67 8.66 7.34 9.32 7 10 C3.17398693 8.54875366 1.77670876 6.64225296 0 3 C0 2.01 0 1.02 0 0 Z " fill="#6B3102" transform="translate(29,31)"/>
<path d="M0 0 C1.32 0.33 2.64 0.66 4 1 C4 1.66 4 2.32 4 3 C4.78375 3.144375 5.5675 3.28875 6.375 3.4375 C9 4 9 4 11 5 C10.67 5.66 10.34 6.32 10 7 C9.34 6.67 8.68 6.34 8 6 C8 6.66 8 7.32 8 8 C7.01 8 6.02 8 5 8 C5 6.68 5 5.36 5 4 C4.360625 3.896875 3.72125 3.79375 3.0625 3.6875 C2.381875 3.460625 1.70125 3.23375 1 3 C0.67 2.01 0.34 1.02 0 0 Z " fill="#874E06" transform="translate(21,25)"/>
<path d="M0 0 C3.3125 0.1875 3.3125 0.1875 7 1 C9.42243783 4.0071642 10.66066941 7.39410995 12 11 C10 11 10 11 8.4375 9.8125 C6.67318459 7.5879284 6.37596209 5.78211944 6 3 C4.02 2.34 2.04 1.68 0 1 C0 0.67 0 0.34 0 0 Z " fill="#EEC739" transform="translate(20,16)"/>
<path d="M0 0 C0.99 0 1.98 0 3 0 C4.4606285 2.64738916 5 3.89448334 5 7 C1.125 6.125 1.125 6.125 0 5 C-0.04063832 3.33382885 -0.042721 1.66611905 0 0 Z " fill="#F4D44A" transform="translate(33,28)"/>
<path d="M0 0 C0.99 0 1.98 0 3 0 C3.80967438 2.91482778 4.21845993 4.46113217 3.0625 7.3125 C2.5365625 8.1478125 2.5365625 8.1478125 2 9 C-0.29013653 5.5647952 -0.17842973 4.014669 0 0 Z " fill="#FCF67E" transform="translate(29,16)"/>
<path d="M0 0 C2.31 0 4.62 0 7 0 C7 0.99 7 1.98 7 3 C4.36 3 1.72 3 -1 3 C-0.67 2.01 -0.34 1.02 0 0 Z " fill="#FCF6A9" transform="translate(41,8)"/>
<path d="M0 0 C1.32 0 2.64 0 4 0 C4 0.66 4 1.32 4 2 C5.32 2 6.64 2 8 2 C8 2.66 8 3.32 8 4 C8.66 4.33 9.32 4.66 10 5 C6.28111761 4.49287967 3.26545761 3.88391785 0 2 C0 1.34 0 0.68 0 0 Z " fill="#E6CD66" transform="translate(4,5)"/>
<path d="M0 0 C2.64 0 5.28 0 8 0 C7.67 1.65 7.34 3.3 7 5 C6.01 4.67 5.02 4.34 4 4 C4 3.34 4 2.68 4 2 C2.68 2 1.36 2 0 2 C0 1.34 0 0.68 0 0 Z " fill="#9B5A0D" transform="translate(42,28)"/>
<path d="M0 0 C0.99 0.495 0.99 0.495 2 1 C3.70363822 1.22622081 5.41328701 1.40888473 7.125 1.5625 C8.03507812 1.64628906 8.94515625 1.73007812 9.8828125 1.81640625 C10.58148438 1.87699219 11.28015625 1.93757813 12 2 C11.67 2.99 11.34 3.98 11 5 C11 4.34 11 3.68 11 3 C8.36 3 5.72 3 3 3 C3 3.66 3 4.32 3 5 C2.01 4.67 1.02 4.34 0 4 C0 2.68 0 1.36 0 0 Z " fill="#A57223" transform="translate(39,25)"/>
<path d="M0 0 C1.98 0 3.96 0 6 0 C6 1.32 6 2.64 6 4 C3.03 3.505 3.03 3.505 0 3 C0 2.01 0 1.02 0 0 Z " fill="#78480B" transform="translate(13,18)"/>
<path d="M0 0 C1.98 0 3.96 0 6 0 C5.2575 0.680625 5.2575 0.680625 4.5 1.375 C2.77390663 2.87635519 2.77390663 2.87635519 3 5 C3.99 5.33 4.98 5.66 6 6 C4.68 6 3.36 6 2 6 C0 3 0 3 0 0 Z " fill="#E7B51D" transform="translate(38,36)"/>
<path d="M0 0 C2.64 0 5.28 0 8 0 C8 0.99 8 1.98 8 3 C5.36 2.67 2.72 2.34 0 2 C0 1.34 0 0.68 0 0 Z " fill="#EFD658" transform="translate(45,5)"/>
<path d="M0 0 C0.33 0 0.66 0 1 0 C1 1.65 1 3.3 1 5 C0.01 5 -0.98 5 -2 5 C-2 6.32 -2 7.64 -2 9 C-2.66 9 -3.32 9 -4 9 C-3.47181039 5.19703482 -2.56226812 2.88255163 0 0 Z " fill="#AC7015" transform="translate(38,16)"/>
<path d="M0 0 C2.64 0 5.28 0 8 0 C8.33 0.66 8.66 1.32 9 2 C7.02 2.66 5.04 3.32 3 4 C3 3.01 3 2.02 3 1 C2.01 0.67 1.02 0.34 0 0 Z " fill="#E09F20" transform="translate(11,10)"/>
<path d="M0 0 C1.32 0.33 2.64 0.66 4 1 C4.33 2.98 4.66 4.96 5 7 C3.5 5.625 3.5 5.625 2 4 C2 3.34 2 2.68 2 2 C1.34 2 0.68 2 0 2 C0 1.34 0 0.68 0 0 Z " fill="#9C660C" transform="translate(26,33)"/>
<path d="M0 0 C0.66 0 1.32 0 2 0 C2 1.65 2 3.3 2 5 C0.68 5.33 -0.64 5.66 -2 6 C-2 5.01 -2 4.02 -2 3 C-1.34 3 -0.68 3 0 3 C0 2.01 0 1.02 0 0 Z " fill="#F7E44A" transform="translate(53,5)"/>
<path d="M0 0 C0.99 0.33 1.98 0.66 3 1 C3 1.99 3 2.98 3 4 C2.34 4 1.68 4 1 4 C0.67 2.68 0.34 1.36 0 0 Z " fill="#A57C30" transform="translate(21,32)"/>
<path d="M0 0 C0.66 0 1.32 0 2 0 C2 0.66 2 1.32 2 2 C1.34 2 0.68 2 0 2 C0 1.34 0 0.68 0 0 Z " fill="#956D2B" transform="translate(14,26)"/>
<path d="M0 0 C3 1 3 1 3 1 Z " fill="#7C6137" transform="translate(32,47)"/>
</svg>
