<?xml version="1.0" encoding="UTF-8"?>
<svg version="1.1" xmlns="http://www.w3.org/2000/svg" width="48" height="48">
<path d="M0 0 C5.82485779 3.51996782 10.54466582 8.98962934 12.5625 15.5 C13.36764105 23.33608208 13.68710392 31.11922577 8.5625 37.5 C3.75801361 42.54521222 -0.59927055 46.10562995 -7.70703125 46.8359375 C-16.22326573 46.92983204 -22.11345494 46.6177288 -28.40234375 40.62890625 C-34.7841668 33.72505269 -35.91792252 28.29832071 -35.7421875 18.9453125 C-35.04689797 11.08319245 -31.38995981 6.95041296 -25.53515625 1.9453125 C-18.47077988 -2.92213491 -7.84396301 -3.47595223 0 0 Z M-29.3125 8.5625 C-33.17460162 13.90128754 -34.98042044 18.89810294 -34.19140625 25.5859375 C-32.5536366 33.15156368 -28.50719061 37.94773204 -22.4375 42.5 C-17.07451931 45.88152543 -10.5150864 45.16016336 -4.4375 44.5 C2.04717634 42.15747351 6.078801 37.2255485 9.8125 31.625 C12.03767212 25.32034566 11.9391098 19.67918547 9.5625 13.5 C6.37476011 7.69375948 1.81216303 2.98019844 -4.4375 0.5 C-15.05775756 -0.74251782 -22.19836254 0.50527804 -29.3125 8.5625 Z " fill="#F7F6ED" transform="translate(35.4375,1.5)"/>
<path d="M0 0 C1.32 0 2.64 0 4 0 C4 2.64 4 5.28 4 8 C4.99 8 5.98 8 7 8 C7.185625 6.8553125 7.185625 6.8553125 7.375 5.6875 C8 3 8 3 10 0 C10.99 0 11.98 0 13 0 C12.52558085 2.43986989 12.05833639 4.8143842 11.3125 7.1875 C11.1578125 8.0846875 11.1578125 8.0846875 11 9 C11.66 9.66 12.32 10.32 13 11 C12.8125 14 12.8125 14 12 17 C9 19 9 19 0 19 C0 12.73 0 6.46 0 0 Z M4 12 C4 12.99 4 13.98 4 15 C5.65 15 7.3 15 9 15 C9 14.01 9 13.02 9 12 C7.35 12 5.7 12 4 12 Z " fill="#85813C" transform="translate(26,14)"/>
<path d="M0 0 C0.33 0 0.66 0 1 0 C1.49658622 5.9590347 0.46754741 10.07395772 -3 15 C-7.75718416 20.06506038 -12.19376612 23.60891743 -19.26953125 24.3359375 C-27.78576573 24.42983204 -33.67595494 24.1177288 -39.96484375 18.12890625 C-44.13895808 13.61335108 -46.88746767 9.9821068 -47.125 3.6875 C-47.063125 2.3571875 -47.063125 2.3571875 -47 1 C-46.34 1 -45.68 1 -45 1 C-44.7525 2.19625 -44.505 3.3925 -44.25 4.625 C-42.44125576 11.78408561 -38.45836445 16.2185429 -32.265625 20.08203125 C-26.67521709 22.34711032 -19.05882183 22.13185762 -13.4453125 20.0546875 C-5.48661555 15.27946933 -2.33797116 8.68389286 0 0 Z " fill="#FEEB73" transform="translate(47,24)"/>
<path d="M0 0 C0.99 0.66 1.98 1.32 3 2 C2.67 2.99 2.34 3.98 2 5 C-0.31 5 -2.62 5 -5 5 C-6.21297649 7.2806707 -6.21297649 7.2806707 -7 10 C-6.23396041 12.2857711 -6.23396041 12.2857711 -5 14 C-3.329375 13.7215625 -3.329375 13.7215625 -1.625 13.4375 C2 13 2 13 4 14 C4 14.66 4 15.32 4 16 C1.52673502 17.83728256 -0.47120681 18.89424136 -3.5 19.5 C-7.38266137 18.72346773 -8.71755422 17.19542409 -11 14 C-11.71251985 10.84781217 -11.70697397 8.15287584 -11 5 C-7.85825656 0.47219328 -5.47313527 -0.83286841 0 0 Z " fill="#979797" transform="translate(20,15)"/>
<path d="M0 0 C1.32 0 2.64 0 4 0 C4 2.64 4 5.28 4 8 C4.99 8 5.98 8 7 8 C7.185625 6.8553125 7.185625 6.8553125 7.375 5.6875 C8 3 8 3 10 0 C10.99 0 11.98 0 13 0 C12.33333333 3.33333333 11.66666667 6.66666667 11 10 C8.36 9.67 5.72 9.34 3 9 C3 6.36 3 3.72 3 1 C2.34 1 1.68 1 1 1 C1 6.61 1 12.22 1 18 C3.64 18 6.28 18 9 18 C9 18.33 9 18.66 9 19 C6.03 19 3.06 19 0 19 C0 12.73 0 6.46 0 0 Z " fill="#19170A" transform="translate(26,14)"/>
<path d="M0 0 C0.66 0 1.32 0 2 0 C2 2.64 2 5.28 2 8 C3.65 8 5.3 8 7 8 C7.33 7.34 7.66 6.68 8 6 C8 6.99 8 7.98 8 9 C8.66 9 9.32 9 10 9 C9.67 9.99 9.34 10.98 9 12 C6.69 11.34 4.38 10.68 2 10 C2 11.98 2 13.96 2 16 C1.34 16 0.68 16 0 16 C0 10.72 0 5.44 0 0 Z " fill="#F4EC71" transform="translate(27,15)"/>
<path d="M0 0 C2.0625 0.4375 2.0625 0.4375 4 1 C4 1.66 4 2.32 4 3 C1.44280327 4.89963186 -0.45736517 5.92248074 -3.625 6.375 C-6.43480343 5.93134683 -7.33780641 5.2745807 -9 3 C-9 2.34 -9 1.68 -9 1 C-7.700625 1.020625 -6.40125 1.04125 -5.0625 1.0625 C-3.70834367 1.08399454 -2.35243917 1.07148199 -1 1 C-0.67 0.67 -0.34 0.34 0 0 Z " fill="#B3B3B1" transform="translate(20,28)"/>
<path d="M0 0 C0.99 0.66 1.98 1.32 3 2 C2.67 2.99 2.34 3.98 2 5 C0.88625 4.979375 -0.2275 4.95875 -1.375 4.9375 C-4.83215921 4.73619282 -4.83215921 4.73619282 -7 6 C-7 5.01 -7 4.02 -7 3 C-7.99 3.495 -7.99 3.495 -9 4 C-8.67 3.01 -8.34 2.02 -8 1 C-5.22899606 -0.38550197 -3.0665294 -0.1877467 0 0 Z " fill="#606060" transform="translate(20,15)"/>
<path d="M0 0 C0.99 0 1.98 0 3 0 C2.33333333 3.33333333 1.66666667 6.66666667 1 10 C-1.64 9.67 -4.28 9.34 -7 9 C-5.68 8.67 -4.36 8.34 -3 8 C-2.814375 6.8553125 -2.814375 6.8553125 -2.625 5.6875 C-2 3 -2 3 0 0 Z " fill="#847E3D" transform="translate(36,14)"/>
<path d="M0 0 C3 1 3 1 4.6875 4.125 C6.14581407 7.79357134 6.24159551 11.05393993 6 15 C5.34 14.67 4.68 14.34 4 14 C3.47281656 12.05601108 2.95374356 10.1087514 2.5078125 8.14453125 C1.84982648 5.36580569 0.94273438 2.69352679 0 0 Z " fill="#FAF2C8" transform="translate(42,9)"/>
<path d="M0 0 C1.06294873 3.64870344 0.76960736 4.64705973 -1 8 C-1.75924382 10.64970999 -2.37333323 13.31428526 -3 16 C-3.33 16 -3.66 16 -4 16 C-4.46450943 9.49686791 -3.32575612 5.5825192 0 0 Z " fill="#F9F2C6" transform="translate(4,9)"/>
<path d="M0 0 C0.66 0 1.32 0 2 0 C3.09845718 4.32059823 4.17812739 8.61667943 5 13 C4.34 13 3.68 13 3 13 C0.78145293 8.37802694 -0.38281159 5.23175837 0 0 Z " fill="#FCEE98" transform="translate(0,25)"/>
<path d="M0 0 C0.33 0 0.66 0 1 0 C1.34615998 5.65394631 0.43425238 9.03006806 -2 14 C-2.66 13.01 -3.32 12.02 -4 11 C-3.71125 10.484375 -3.4225 9.96875 -3.125 9.4375 C-1.71219973 6.37643275 -0.8751483 3.25055082 0 0 Z " fill="#FBEF9A" transform="translate(47,24)"/>
<path d="M0 0 C2.0625 0.4375 2.0625 0.4375 4 1 C4 1.66 4 2.32 4 3 C2.02 3.99 2.02 3.99 0 5 C0 4.34 0 3.68 0 3 C-1.65 3 -3.3 3 -5 3 C-4.360625 2.690625 -3.72125 2.38125 -3.0625 2.0625 C-1.06389179 1.1654837 -1.06389179 1.1654837 0 0 Z " fill="#6B674B" transform="translate(20,28)"/>
<path d="M0 0 C2.31 0.33 4.62 0.66 7 1 C6.67 1.99 6.34 2.98 6 4 C5.01 4 4.02 4 3 4 C1.3125 2 1.3125 2 0 0 Z " fill="#A29F88" transform="translate(16,16)"/>
</svg>
